<?xml version="1.0" standalone="no"?>
<!DOCTYPE svg PUBLIC "-//W3C//DTD SVG 1.1//EN" "http://www.w3.org/Graphics/SVG/1.1/DTD/svg11.dtd" >
<svg>
<metadata>
Created by FontForge 20090914 at Thu Mar 31 13:54:19 2016
 By www-data
Inspired on the popular font HELVETICA by Max Miedinger with Eduard Hoffman, eliminating all highs and lows.
</metadata>
<defs>
<font id="Lowvetica" horiz-adv-x="166" >
  <font-face 
    font-family="Lowvetica"
    font-weight="400"
    font-stretch="normal"
    units-per-em="1000"
    panose-1="0 0 0 0 0 0 0 0 0 0"
    ascent="800"
    descent="-200"
    x-height="512"
    cap-height="714"
    bbox="-165 -202.004 1162 949.999"
    underline-thickness="50"
    underline-position="-50"
    unicode-range="U+000D-U+FB02"
  />
<missing-glyph horiz-adv-x="222" 
 />
    <glyph glyph-name=".notdef" horiz-adv-x="222" 
 />
    <glyph glyph-name=".null" horiz-adv-x="0" 
 />
    <glyph glyph-name=".null" horiz-adv-x="0" 
 />
    <glyph glyph-name="nonmarkingreturn" unicode="&#xd;" horiz-adv-x="222" 
 />
    <glyph glyph-name="space" unicode=" " horiz-adv-x="222" 
 />
    <glyph glyph-name="exclam" unicode="!" horiz-adv-x="181" 
d="M74 128c-1.33301 42 -2.83203 83 -4.49902 123s-2.5 80 -2.5 120v140h48v-140c0 -40 -0.833008 -80 -2.5 -120s-2.83398 -81 -3.50098 -123h-35zM67.001 81h48v-82h-48v82z" />
    <glyph glyph-name="quotedbl" unicode="&#x22;" horiz-adv-x="352" 
d="M86 484v230h40v-230h-40zM226 484v230h40v-230h-40z" />
    <glyph glyph-name="numbersign" unicode="#" horiz-adv-x="454" 
d="M324 303l-16 -114h78v-35h-83l-22 -160h-36l22 160h-106l-22 -160h-36l22 160h-79v35h84l16 114h-79v36h84l22 160h35l-21 -160h106l22 160h36l-22 -160h78v-36h-83zM182 303l-16 -114h106l16 114h-106z" />
    <glyph glyph-name="dollar" unicode="$" horiz-adv-x="454" 
d="M248 -77h-36.002v66c-70.667 4.66699 -121.167 23.334 -151.5 56.001s-45.5 76 -45.5 130h44c0.666992 -44 12.834 -78.5 36.501 -103.5s62.5 -39.167 116.5 -42.5l1 212l-65 14.5c-22 5 -41.833 12.333 -59.5 22s-32 22.834 -43 39.501s-16.5 39 -16.5 67
c0 42 16.333 74.167 49 96.5s77.334 34.166 134.001 35.499v52h36v-51c53.333 -4 96.166 -18.833 128.499 -44.5s49.5 -65.167 51.5 -118.5h-44c-1.33301 14 -4.16602 27.833 -8.49902 41.5s-11.5 26.167 -21.5 37.5s-23.5 20.833 -40.5 28.5s-38.833 12.5 -65.5 14.5v-198
l65.5 -13c23 -4.66699 44 -12 63 -22s34.667 -23.5 47 -40.5s18.5 -39.5 18.5 -67.5c0 -17.333 -3.16699 -34.666 -9.5 -51.999s-17 -32.833 -32 -46.5s-35 -24.834 -60 -33.501s-55.833 -13.334 -92.5 -14.001v-66zM211.998 476c-26 -1.33301 -47.667 -4.66797 -65 -10.001
s-31 -12.166 -41 -20.499s-17.167 -18 -21.5 -29s-6.5 -22.833 -6.5 -35.5c0 -29.333 11.333 -50.5 34 -63.5s56 -23.833 100 -32.5v191zM247.998 232.998l-0.00292969 -204.002c26.667 0.666992 49.334 4 68.001 10s33.667 13.667 45 23s19.5 20 24.5 32s7.5 24.667 7.5 38
c0 12.667 -1.66699 23.834 -5 33.501s-9.16602 18.167 -17.499 25.5s-19.666 13.833 -33.999 19.5s-32.833 10.834 -55.5 15.501z" />
    <glyph glyph-name="percent" unicode="%" horiz-adv-x="648" 
d="M487 -17c-43.333 0 -75.501 13.1689 -96.501 39.502s-31.5 60.166 -31.5 101.499c0 40 10.333 73.167 31 99.5s53 39.5 97 39.5s76.167 -12.833 96.5 -38.5s30.5 -58.834 30.5 -99.501c0 -20 -2.66699 -38.5 -8 -55.5s-13.166 -32 -23.499 -45s-23.5 -23.167 -39.5 -30.5
s-35 -11 -57 -11h1zM107.999 -20.998l379 535h43l-379 -535h-43zM162.999 230.002c-43.333 0 -75.501 13.1689 -96.501 39.502s-31.5 60.166 -31.5 101.499c0 40 10.333 73.167 31 99.5s53 39.5 97 39.5s76.167 -12.833 96.5 -38.5s30.833 -58.834 31.5 -99.501
c0 -20 -2.66699 -38.5 -8 -55.5s-13.166 -32 -23.499 -45s-23.5 -23.167 -39.5 -30.5s-35 -11 -57 -11zM487.998 227.004c-32 0 -54.666 -9.5 -67.999 -28.5s-20 -43.5 -20 -73.5c0 -30.667 6.66699 -56 20 -76s35.666 -30 66.999 -30s54 10 68 30s21 44.667 21 74
c0.666992 30.667 -6 55.667 -20 75s-37 29 -69 29h1zM163.999 474.004c-32 0 -54.666 -9.5 -67.999 -28.5s-20 -43.5 -20 -73.5c0 -30.667 6.66699 -56 20 -76s35.666 -30 66.999 -30s54 10 68 30s21 44.667 21 74c0.666992 30.667 -5.83301 55.667 -19.5 75
s-36.5 29 -68.5 29z" />
    <glyph glyph-name="ampersand" unicode="&#x26;" horiz-adv-x="461" 
d="M415 65c-28.667 -28.667 -58.168 -48.6709 -88.501 -60.0039s-66.5 -17 -108.5 -17c-32 0 -60 4.5 -84 13.5s-43.667 20.667 -59 35s-26.833 30.833 -34.5 49.5s-11.5 38 -11.5 58c0 22 4.33301 41 13 57s20 29.833 34 41.5s29.5 21.834 46.5 30.501
s33.833 16.334 50.5 23.001l-24 26c-8 8.66699 -15 17.667 -21 27s-10.833 19.5 -14.5 30.5s-5.5 23.167 -5.5 36.5c0 10 2 21 6 33s10.833 23.333 20.5 34s22.334 19.5 38.001 26.5s35.5 10.5 59.5 10.5c16.667 0 32.5 -2.16699 47.5 -6.5s28.167 -10.833 39.5 -19.5
s20.333 -19.667 27 -33s10 -28.666 10 -45.999c0 -18 -3.83301 -34 -11.5 -48s-17 -26.167 -28 -36.5s-23 -19.166 -36 -26.499s-24.5 -13.333 -34.5 -18l165 -157c7.33301 11.333 13 25 17 41s6 31.667 6 47l44 -2c0 -22 -3.66699 -43.333 -11 -64s-16 -38 -26 -52
l105 -100h-64zM232.999 478.996c-28 0 -48.334 -6.66992 -61.001 -20.0029s-19 -27.666 -19 -42.999c0 -9.33301 2 -18.666 6 -27.999s9.16699 -18.333 15.5 -27s13.333 -17 21 -25s14.834 -15 21.501 -21c10 4.66699 20.667 10 32 16s21.5 12.833 30.5 20.5
s16.5 16.5 22.5 26.5s9 21.667 9 35c0 12.667 -2.66699 23.334 -8 32.001s-12 15.5 -20 20.5s-16.667 8.66699 -26 11s-18 3.5 -26 3.5zM205.998 265.993c-19.333 -8 -37.168 -16.002 -53.501 -24.002s-30.166 -16.667 -41.499 -26s-20.166 -19.666 -26.499 -30.999
s-9.5 -24.666 -9.5 -39.999c0 -19.333 3.83301 -36.166 11.5 -50.499s18.167 -26.5 31.5 -36.5s28.833 -17.5 46.5 -22.5s36.834 -7.5 57.501 -7.5c23.333 0 44.166 2.5 62.499 7.5s34.166 11 47.499 18s24.5 14.167 33.5 21.5s15.5 13.666 19.5 18.999l-180 173z" />
    <glyph glyph-name="quotesingle" unicode="'" horiz-adv-x="222" 
d="M91 484v230h40v-230h-40z" />
    <glyph glyph-name="parenleft" unicode="(" horiz-adv-x="207" 
d="M159 -70c-35.333 50 -63.666 101.334 -84.999 154.001s-32 109 -32 169s10.667 116.333 32 169s49.666 104 84.999 154h41c-18.667 -30 -34.834 -57.5 -48.501 -82.5s-25 -49.833 -34 -74.5s-15.833 -50.334 -20.5 -77.001s-7 -56 -7 -88
c0 -32.667 2.33301 -62.167 7 -88.5s11.667 -51.833 21 -76.5s20.833 -49.667 34.5 -75s29.834 -53 48.501 -83h-42v-1z" />
    <glyph glyph-name="parenright" unicode=")" horiz-adv-x="207" 
d="M7 -70c18.667 30 34.834 57.5 48.501 82.5s25 50 34 75s15.833 50.667 20.5 77s7 55.833 7 88.5s-2.33301 62.167 -7 88.5s-11.5 52 -20.5 77s-20.333 50 -34 75s-29.834 52.5 -48.501 82.5h42c36 -50 64.333 -101 85 -153s31 -108.333 31 -169
c-0.666992 -60.667 -11.167 -117.167 -31.5 -169.5s-48.5 -103.5 -84.5 -153.5z" />
    <glyph glyph-name="asterisk" unicode="*" horiz-adv-x="408" 
d="M83 424l95 112l-139 50l14 33l134 -46v141h34v-141l134 46l14 -33l-139 -50l95 -112l-28 -22l-93 110l-93 -110z" />
    <glyph glyph-name="plus" unicode="+" horiz-adv-x="600" 
d="M47 233v40h233v233h40v-233h233v-40h-233v-233h-40v233h-233z" />
    <glyph glyph-name="comma" unicode="," horiz-adv-x="222" 
d="M85 100h52.001v-100c0 -30 -5.16699 -56.5 -15.5 -79.5s-28.5 -39.833 -54.5 -50.5v34c15.333 6.66699 25.166 18 29.499 34s6.5 31.667 6.5 47v15h-18v100z" />
    <glyph glyph-name="hyphen" unicode="-" horiz-adv-x="407" 
d="M75 247v46h257v-46h-257z" />
    <glyph glyph-name="period" unicode="." horiz-adv-x="222" 
d="M85 0v100h52v-100h-52z" />
    <glyph glyph-name="slash" unicode="/" horiz-adv-x="285" 
d="M28 -17h-46l275 534h45z" />
    <glyph glyph-name="zero" unicode="0" horiz-adv-x="454" 
d="M230 -9c-40 0 -73.8311 7.33008 -101.498 21.9971s-49.834 34.334 -66.501 59.001s-28.667 53 -36 85s-11 65.333 -11 100s3.66699 68 11 100s19.333 60.333 36 85s38.5 44.334 65.5 59.001s60.167 22 99.5 22c40.667 0 74.834 -7.33301 102.501 -22s50 -34.167 67 -58.5
s29.167 -52.666 36.5 -84.999s11 -65.833 11 -100.5c0 -35.333 -3.5 -69 -10.5 -101s-18.833 -60.333 -35.5 -85s-38.834 -44.167 -66.501 -58.5s-61.834 -21.5 -102.501 -21.5h1zM230.002 482.997c-32 0 -59 -6.16602 -81 -18.499s-39.5 -29 -52.5 -50
s-22.333 -45.167 -28 -72.5s-8.5 -55.666 -8.5 -84.999s2.66699 -57.5 8 -84.5s14.5 -51 27.5 -72s30.333 -37.833 52 -50.5s49.167 -19 82.5 -19c32.667 0 60 6.16699 82 18.5s39.5 28.833 52.5 49.5s22.167 44.667 27.5 72s8 56.333 8 87c0 30 -2.66699 58.667 -8 86
s-14.5 51.166 -27.5 71.499s-30.5 36.666 -52.5 48.999s-49.333 18.5 -82 18.5z" />
    <glyph glyph-name="one" unicode="1" horiz-adv-x="301" 
d="M170 434c-22 -17.333 -46.666 -30.502 -73.999 -39.502s-55.333 -14.833 -84 -17.5l1 42c14 0.666992 29.333 3.33398 46 8.00098s32.667 10.834 48 18.501s29.166 17 41.499 28s21.5 23.167 27.5 36.5h38v-510h-44v434z" />
    <glyph glyph-name="two" unicode="2" horiz-adv-x="461" 
d="M34 0c2.66699 26 7.66797 47.835 15.001 65.502s17.833 33.834 31.5 48.501s30.834 28.667 51.501 42s45.667 28.333 75 45l64.5 37c23.667 13.333 43.5 27.666 59.5 42.999c13.333 12.667 23.166 25.667 29.499 39s9.5 29.666 9.5 48.999c0.666992 36 -11 64 -35 84
s-60 30 -108 30c-50 0 -85.667 -13 -107 -39s-32 -63 -32 -111h-45c1.33301 68 17.833 116.833 49.5 146.5s78.5 44.5 140.5 44.5s107.833 -14.167 137.5 -42.5s44.167 -65.5 43.5 -111.5c0 -24 -3.33301 -44.5 -10 -61.5s-17.667 -33.167 -33 -48.5
c-14.667 -14.667 -33.834 -29.334 -57.501 -44.001l-87.5 -52l-39 -22.5c-15.333 -9 -30.333 -19 -45 -30s-27.5 -22.5 -38.5 -34.5s-17.5 -24 -19.5 -36h341v-41h-390h-1z" />
    <glyph glyph-name="three" unicode="3" horiz-adv-x="461" 
d="M335 275c11.333 -3.33301 22.8301 -8.33398 34.4971 -15.001s22 -15.334 31 -26.001s16.333 -24 22 -40s8.5 -35 8.5 -57c0 -43.333 -16.667 -79 -50 -107s-82.666 -42 -147.999 -42c-62.667 0 -112 15 -148 45s-54.667 78.333 -56 145h45
c0 -54 13.833 -92.5 41.5 -115.5s68.5 -34.167 122.5 -33.5c17.333 0 34.833 1.5 52.5 4.5s33.667 8.83301 48 17.5s26 20.5 35 35.5s13.5 34.167 13.5 57.5c0 26.667 -6.16699 47.334 -18.5 62.001s-27.833 25.334 -46.5 32.001s-39 10.667 -61 12s-42.667 2 -62 2l1 41
c21.333 0 42.333 0.5 63 1.5s39.334 4.33301 56.001 10s30 14.334 40 26.001s15 28.5 15 50.5c0 19.333 -3.5 35.5 -10.5 48.5s-16.667 23.5 -29 31.5s-26.666 13.667 -42.999 17s-33.833 5 -52.5 5c-46 0 -82.667 -10.833 -110 -32.5s-41 -57.5 -41 -107.5h-44
c0.666992 32 6 59.5 16 82.5s23.5 41.667 40.5 56s37.333 24.833 61 31.5s49.5 10 77.5 10c54.667 0 98.167 -11.833 130.5 -35.5s48.5 -57.834 48.5 -102.501c0 -32 -7.5 -56.667 -22.5 -74s-34.833 -29.333 -59.5 -36h-1z" />
    <glyph glyph-name="four" unicode="4" horiz-adv-x="459" 
d="M342 126v-126h-44v126h-273v42l274 342h43v-343h95v-41h-95zM298 447l-222 -280h222v280z" />
    <glyph glyph-name="five" unicode="5" horiz-adv-x="459" 
d="M99 300c19.333 15.333 41.166 26.8311 65.499 34.498s48.833 11.5 73.5 11.5c29.333 0 55.666 -4.33301 78.999 -13s43.166 -20.667 59.499 -36s28.833 -33.666 37.5 -54.999s13 -44.666 13 -69.999c0 -30 -5 -56.333 -15 -79s-24 -41.834 -42 -57.501
s-39.333 -27.334 -64 -35.001s-51.667 -11.5 -81 -11.5c-26 0 -50.667 3.66699 -74 11s-43.833 18.333 -61.5 33s-31.667 32.834 -42 54.501s-15.833 47.167 -16.5 76.5h44c4 -48 19.667 -82.167 47 -102.5s63.333 -30.5 108 -30.5c48 0.666992 85.5 12.334 112.5 35.001
s40.167 57 39.5 103c0 16 -2.66699 32.167 -8 48.5s-14.166 31 -26.499 44s-28.166 23.5 -47.499 31.5s-43 12 -71 12c-36 0 -65.667 -7 -89 -21s-40.666 -29.333 -51.999 -46h-44l58 273h299v-40h-264l-37 -170z" />
    <glyph glyph-name="six" unicode="6" horiz-adv-x="461" 
d="M73 260c12 22 31.499 41.667 58.499 59s61.833 26 104.5 26c26.667 0 51.834 -3.83301 75.501 -11.5s44 -19 61 -34s30.5 -33.333 40.5 -55s15 -46.5 15 -74.5c0 -26 -4.5 -50.167 -13.5 -72.5s-22 -41.666 -39 -57.999s-37.667 -29.166 -62 -38.499
s-51.833 -14 -82.5 -14c-39.333 0 -72 6.5 -98 19.5s-46.667 30.833 -62 53.5s-26.166 49.167 -32.499 79.5s-9.5 62.5 -9.5 96.5c0 38 2.66699 74.333 8 109s15.666 65.167 30.999 91.5s37.166 47.333 65.499 63s65.5 23.5 111.5 23.5c50 0 90.833 -12.667 122.5 -38
s48.834 -60.333 51.501 -105h-44c-4 36.667 -19.167 63 -45.5 79s-56.833 24 -91.5 24c-34 0 -61.833 -6.33301 -83.5 -19s-38.5 -29.334 -50.5 -50.001s-20.167 -44.334 -24.5 -71.001s-6.5 -54 -6.5 -82v-1zM237.999 304c-52 0 -91 -12.667 -117 -38s-38.667 -58 -38 -98
c0 -12.667 2 -27.167 6 -43.5s11.667 -31.833 23 -46.5s27 -27 47 -37s46.333 -15 79 -15c44 0 79.333 12.667 106 38s40 60 40 104c0 38.667 -12.167 71 -36.5 97s-60.5 39 -108.5 39h-1z" />
    <glyph glyph-name="seven" unicode="7" horiz-adv-x="419" 
d="M20 470l-0.000976562 40h378v-41c-36 -36 -67.167 -70.833 -93.5 -104.5s-49 -69 -68 -106s-34.667 -76.333 -47 -118s-22.166 -88.5 -29.499 -140.5l-50 -1c14 94 40 180 78 258s90.333 149 157 213h-325z" />
    <glyph glyph-name="eight" unicode="8" horiz-adv-x="461" 
d="M326 278c12.667 -3.33301 25.6641 -8.33008 38.9971 -14.9971s25.333 -15.334 36 -26.001s19.334 -23.834 26.001 -39.501s10 -34.5 10 -56.5c0.666992 -48.667 -16.5 -86.334 -51.5 -113.001s-86.5 -40 -154.5 -40c-68.667 0 -120.334 13.333 -155.001 40
s-52 64.334 -52 113.001c0 22 3.33301 41 10 57s15.334 29.333 26.001 40s22.5 19.167 35.5 25.5s26.167 11.166 39.5 14.499c-33.333 10.667 -56.166 26 -68.499 46s-18.5 43 -18.5 69c0 26.667 5.66699 48.334 17 65.001s26 29.667 44 39s37.833 15.833 59.5 19.5
s42.834 5.5 63.501 5.5c20 0 40.833 -1.83301 62.5 -5.5s41.167 -10.334 58.5 -20.001s31.666 -22.667 42.999 -39s17 -37.5 17 -63.5c0 -26.667 -6.16699 -50 -18.5 -70s-35.166 -35.333 -68.499 -46zM229.997 482.003c-17.333 0 -34.3311 -1.33594 -50.998 -4.00293
s-31.334 -7.5 -44.001 -14.5s-22.834 -16.833 -30.501 -29.5s-11.5 -28.667 -11.5 -48c0 -18.667 4 -33.667 12 -45s18.5 -20.166 31.5 -26.499s27.667 -10.666 44 -12.999s32.833 -3.5 49.5 -3.5s33.334 1.16699 50.001 3.5s31.5 6.83301 44.5 13.5
s23.5 15.834 31.5 27.501s12 27.167 12 46.5c0 18 -4 33 -12 45s-18.5 21.5 -31.5 28.5s-27.833 12 -44.5 15s-33.334 4.5 -50.001 4.5zM230.999 257c-56.667 0 -97.8311 -10.165 -123.498 -30.498s-38.834 -48.5 -39.501 -84.5c0 -32.667 12.667 -59.667 38 -81
s67 -32 125 -32c18 0 36.667 1.5 56 4.5s36.666 8.66699 51.999 17s28 19.666 38 33.999s15 33.166 15 56.499c0 36 -12.5 64.333 -37.5 85s-66.5 31 -124.5 31h1z" />
    <glyph glyph-name="nine" unicode="9" horiz-adv-x="461" 
d="M386 254c-12 -22 -31.502 -41.8359 -58.502 -59.5029s-61.833 -26.5 -104.5 -26.5c-27.333 0 -52.666 3.83301 -75.999 11.5s-43.5 19 -60.5 34s-30.333 33.5 -40 55.5s-14.5 47 -14.5 75c0 26 4.5 50.167 13.5 72.5s22 41.5 39 57.5s37.667 28.667 62 38
s51.833 14 82.5 14c38.667 0 71 -6.66699 97 -20s46.833 -31.166 62.5 -53.499s26.667 -48.5 33 -78.5s9.5 -62 9.5 -96c0 -38 -2.66699 -74.333 -8 -109s-15.833 -65.167 -31.5 -91.5s-37.667 -47.333 -66 -63s-65.166 -23.5 -110.499 -23.5
c-50 0 -90.833 12.667 -122.5 38s-49.167 60.333 -52.5 105l44 -1c2 -18.667 7 -34.5 15 -47.5s18.167 -23.5 30.5 -31.5s26.333 -13.833 42 -17.5s32.167 -5.5 49.5 -5.5c34 0 61.833 6.33301 83.5 19s38.5 29.334 50.5 50.001s20.167 44.334 24.5 71.001s6.5 54 6.5 82v1z
M221.998 485.997c-44 0 -79.3311 -12.667 -105.998 -38s-40.334 -59.333 -41.001 -102c0 -38.667 12.333 -71 37 -97s61 -39 109 -39c51.333 0 90.166 12.667 116.499 38s39.5 58 39.5 98c0 12.667 -2 27 -6 43s-11.667 31.167 -23 45.5s-27 26.5 -47 36.5
s-46.333 15 -79 15z" />
    <glyph glyph-name="colon" unicode=":" horiz-adv-x="222" 
d="M85 395v100h52v-100h-52zM85 0v100h52v-100h-52z" />
    <glyph glyph-name="semicolon" unicode=";" horiz-adv-x="222" 
d="M85 100h52.001v-100c0 -30 -5.16699 -56.5 -15.5 -79.5s-28.5 -39.833 -54.5 -50.5v34c15.333 6.66699 25.166 18 29.499 34s6.5 31.667 6.5 47v15h-18v100zM85.001 495h52v-100h-52v100z" />
    <glyph glyph-name="less" unicode="&#x3c;" horiz-adv-x="420" 
d="M27 156v44l366 171v-42l-322 -152l322 -152v-41z" />
    <glyph glyph-name="equal" unicode="=" horiz-adv-x="600" 
d="M553 370v-40h-506v40h506zM553 176v-40h-506v40h506z" />
    <glyph glyph-name="greater" unicode="&#x3e;" horiz-adv-x="420" 
d="M27 -16v41l322 152l-322 152v42l366 -173v-44z" />
    <glyph glyph-name="question" unicode="?" horiz-adv-x="441" 
d="M305 248l-34.999 -23.9971c-9.33301 -6.66699 -16.5 -13 -21.5 -19s-8.5 -12.667 -10.5 -20s-3 -16.333 -3 -27v-29h-44l-1 21c-0.666992 18 0.5 32.667 3.5 44s8 21.5 15 30.5s16.333 17.667 28 26l41.5 29.5c15.333 10.667 28 20 38 28s17.833 15.667 23.5 23
s9.66699 15 12 23s3.5 17.333 3.5 28c0 18 -3.83301 33.333 -11.5 46s-17.667 23 -30 31s-26.666 14 -42.999 18s-33.166 6 -50.499 6c-46.667 0 -82.5 -10.333 -107.5 -31s-37.833 -56 -38.5 -106h-44c0 31.333 4.66699 58.166 14 80.499s22.166 40.666 38.499 54.999
s35.833 24.833 58.5 31.5s47.667 10 75 10c26 0 50.167 -2.66699 72.5 -8s41.666 -13.833 57.999 -25.5s29.166 -26.167 38.499 -43.5s14 -38 14 -62c0 -15.333 -1.83301 -29 -5.5 -41s-9.16699 -23.167 -16.5 -33.5s-17 -20.333 -29 -30s-26 -19.834 -42 -30.501z
M188.001 81.0029h48v-82h-48v82z" />
    <glyph glyph-name="at" unicode="@" horiz-adv-x="800" 
d="M336 166c24 0 46.667 9.16602 68 27.499s40 41 56 68s28.833 55.667 38.5 86s14.5 57.5 14.5 81.5c0 22.667 -2.33301 41.5 -7 56.5s-11 27 -19 36s-17.333 15.333 -28 19s-22 5.5 -34 5.5c-28 0 -53.833 -8.66699 -77.5 -26s-44 -39 -61 -65
s-30.167 -54.167 -39.5 -84.5s-14 -58.166 -14 -83.499c0 -36.667 9.66699 -66 29 -88s44 -33 74 -33zM566 559.999h45.9961l-101 -309c-3.33301 -9.33301 -6.16602 -18 -8.49902 -26s-3.5 -15.667 -3.5 -23c0 -20 13.333 -30 40 -30c20.667 0 42.5 6 65.5 18
s44 28.667 63 50s34.667 47.166 47 77.499s18.5 63.833 18.5 100.5c0 39.333 -7.83301 75.666 -23.5 108.999s-37.167 62 -64.5 86s-60.166 42.833 -98.499 56.5s-79.833 20.5 -124.5 20.5c-54 0 -102.833 -8.66699 -146.5 -26s-81 -41.166 -112 -71.499
s-54.833 -65.666 -71.5 -105.999s-25 -83.5 -25 -129.5c0 -45.333 8.66699 -88.166 26 -128.499s41 -75.666 71 -105.999s65.167 -54.333 105.5 -72s83.166 -26.5 128.499 -26.5c22.667 0 45.834 1.33301 69.501 4s46.834 7.33398 69.501 14.001s44 15.5 64 26.5
s37.667 24.5 53 40.5h46c-18.667 -24 -39.334 -44.167 -62.001 -60.5s-46.667 -29.166 -72 -38.499s-52 -16 -80 -20s-56.667 -6 -86 -6c-51.333 0 -99.666 9.66699 -144.999 29s-84.833 45.833 -118.5 79.5s-60.334 73.167 -80.001 118.5s-29.5 94 -29.5 146
c0 51.333 9.5 99.666 28.5 144.999s45.667 84.833 80 118.5s75.5 60.334 123.5 80.001s101 29.5 159 29.5c53.333 0 101.833 -7.83301 145.5 -23.5s81 -37.167 112 -64.5s55 -59.333 72 -96s25.5 -76 25.5 -118c0 -45.333 -8 -86.333 -24 -123s-36 -67.834 -60 -93.501
s-50 -45.334 -78 -59.001s-54.333 -20.5 -79 -20.5c-20.667 0 -37.667 5.83301 -51 17.5s-20.666 29.5 -21.999 53.5h-2c-17.333 -23.333 -38.166 -41 -62.499 -53s-48.5 -18 -72.5 -18c-18 0 -34.833 3.5 -50.5 10.5s-29.334 17 -41.001 30s-20.834 28.667 -27.501 47
s-10 39.166 -10 62.499c0 35.333 5.83301 70.833 17.5 106.5s28 67.667 49 96s45.833 51.333 74.5 69s60.334 26.5 95.001 26.5c12.667 0 25.334 -2 38.001 -6s24.167 -9.83301 34.5 -17.5s19 -16.834 26 -27.501s11.5 -22.667 13.5 -36h2z" />
    <glyph glyph-name="A" unicode="A" horiz-adv-x="686" 
d="M-11 0l328 714h52l328 -714h-52l-105 230h-394l-105 -230h-52zM343 662l-179 -392h358z" />
    <glyph glyph-name="B" unicode="B" horiz-adv-x="722" 
d="M106 390l318.003 -0.000976562c6 0 14.833 0.166992 26.5 0.5s24.167 1.83301 37.5 4.5s27.166 7 41.499 13s27.166 14.333 38.499 25s20.666 24.334 27.999 41.001s11 37 11 61c0 34.667 -6.33301 61.5 -19 80.5s-28.5 32.833 -47.5 41.5s-39.667 13.667 -62 15
s-42.833 2 -61.5 2h-311v-284zM106.003 39.999l322 0.000976562c6 0 15.167 0.166992 27.5 0.5s26 2 41 5s30.5 7.83301 46.5 14.5s30.5 15.834 43.5 27.501s23.667 26.667 32 45s12.5 40.833 12.5 67.5c0 37.333 -7.5 66.166 -22.5 86.499s-33.5 35.166 -55.5 44.499
s-45.333 14.833 -70 16.5s-47 2.5 -67 2.5h-310v-310zM60.0029 714h385.001c68.667 0 120.5 -15.167 155.5 -45.5s52.5 -73.833 52.5 -130.5c0 -18 -2.33301 -35.5 -7 -52.5s-12.334 -32.667 -23.001 -47s-25 -27.166 -43 -38.499s-40.333 -20 -67 -26v-2
c34.667 -3.33301 62.667 -11.5 84 -24.5s38 -28.167 50 -45.5s20 -35.5 24 -54.5s6 -36.167 6 -51.5c0 -19.333 -3.16699 -40.333 -9.5 -63s-18.333 -43.834 -36 -63.501s-42 -36.167 -73 -49.5s-71.167 -20 -120.5 -20h-378v714z" />
    <glyph glyph-name="C" unicode="C" horiz-adv-x="796" 
d="M760 271c-4 -34 -14.4951 -68 -31.4951 -102s-40.333 -64.833 -70 -92.5s-65.334 -50 -107.001 -67s-89.167 -25.5 -142.5 -25.5c-54 0 -104.167 8.33301 -150.5 25s-86.5 41 -120.5 73s-60.667 71 -80 117s-29 98.667 -29 158c0 43.333 7.5 87.166 22.5 131.499
s38 84.333 69 120s70.5 64.834 118.5 87.501s104.667 34 170 34c42.667 0 82.667 -5 120 -15s70.666 -25 99.999 -45s54.166 -45 74.499 -75s35.166 -65 44.499 -105h-46c-8.66699 34 -22.5 63.667 -41.5 89s-41.5 46.166 -67.5 62.499s-54.667 28.5 -86 36.5s-64 12 -98 12
c-51.333 0 -97.5 -8.83301 -138.5 -26.5s-76 -41.834 -105 -72.501s-51.333 -66.167 -67 -106.5s-23.5 -82.833 -23.5 -127.5s7.16699 -87.167 21.5 -127.5s35.5 -75.666 63.5 -105.999s62.833 -54.5 104.5 -72.5s89.834 -27 144.501 -27
c39.333 0 76.166 5.66699 110.499 17s64.666 27.5 90.999 48.5s48.5 46.833 66.5 77.5s30.333 65.334 37 104.001h46z" />
    <glyph glyph-name="D" unicode="D" horiz-adv-x="759" 
d="M60 714l333.998 -0.000976562c42 0 82.333 -5.66699 121 -17s72.834 -30.666 102.501 -57.999s53.167 -64 70.5 -110s26 -103.333 26 -172c0 -52 -6.66699 -100 -20 -144s-33.5 -81.667 -60.5 -113s-61.167 -55.833 -102.5 -73.5s-89.666 -26.5 -144.999 -26.5h-326v714z
M105.998 39.999h289.002c39.333 0 75.666 6.16699 108.999 18.5s62.166 31.5 86.499 57.5s43.333 58.833 57 98.5s20.5 87.167 20.5 142.5c0 56.667 -6.83301 105 -20.5 145s-33 72.667 -58 98s-55 44 -90 56s-73.5 18 -115.5 18h-278v-634z" />
    <glyph glyph-name="E" unicode="E" horiz-adv-x="648" 
d="M60 0v714h564v-40h-518v-284h497v-40h-497v-310h524v-40h-570z" />
    <glyph glyph-name="F" unicode="F" horiz-adv-x="593" 
d="M60 0v714h518v-40h-472v-284h446v-40h-446v-350h-46z" />
    <glyph glyph-name="G" unicode="G" horiz-adv-x="833" 
d="M440 356l332.998 0.00195312v-356h-40v176h-2c-13.333 -32 -30.666 -60 -51.999 -84s-45.5 -44 -72.5 -60s-56.5 -28 -88.5 -36s-65 -12 -99 -12c-54 0 -104.167 8.33301 -150.5 25s-86.5 41 -120.5 73s-60.667 71 -80 117s-29 98.667 -29 158
c0 43.333 7.5 87.166 22.5 131.499s38 84.333 69 120s70.5 64.834 118.5 87.501s104.667 34 170 34c44 0 84.667 -5.33301 122 -16s70.666 -26.167 99.999 -46.5s54 -45.333 74 -75s34.333 -63.834 43 -102.501h-46c-7.33301 32.667 -20 61.5 -38 86.5s-40 46 -66 63
s-55 29.667 -87 38s-66 12.5 -102 12.5c-51.333 0 -97.5 -8.83301 -138.5 -26.5s-76 -41.834 -105 -72.501s-51.333 -66.167 -67 -106.5s-23.5 -82.833 -23.5 -127.5s7.16699 -87.167 21.5 -127.5s35.5 -75.666 63.5 -105.999s62.833 -54.5 104.5 -72.5
s89.834 -27 144.501 -27c44.667 0 85.5 6.66699 122.5 20s68.667 32.666 95 57.999s47.333 56 63 92s24.834 76.667 27.501 122h-287v40z" />
    <glyph glyph-name="H" unicode="H" horiz-adv-x="759" 
d="M60 0v714h46v-318h547v318h46v-714h-46v356h-547v-356h-46z" />
    <glyph glyph-name="I" unicode="I" 
d="M60 0v714h46v-714h-46z" />
    <glyph glyph-name="J" unicode="J" horiz-adv-x="537" 
d="M70 228v-16.999c0 -16 1.66699 -34.667 5 -56s11.166 -41.833 23.499 -61.5s30.666 -36.167 54.999 -49.5s57.5 -20 99.5 -20c62 0 107.167 15.667 135.5 47s42.5 78 42.5 140v503h46v-499c0 -78 -20 -136 -60 -174s-94.667 -57 -164 -57
c-29.333 0 -57.666 3.5 -84.999 10.5s-51.666 19.167 -72.999 36.5s-38.5 40.666 -51.5 69.999s-19.5 66 -19.5 110v17h46z" />
    <glyph glyph-name="K" unicode="K" horiz-adv-x="704" 
d="M60 0v714h46v-410l514 410h73l-370 -295l396 -419h-64l-368 390l-181 -144v-246h-46z" />
    <glyph glyph-name="L" unicode="L" horiz-adv-x="574" 
d="M60 0v714h46v-674h468v-40h-514z" />
    <glyph glyph-name="M" unicode="M" horiz-adv-x="962" 
d="M65 0v714h69l347 -656l347 656h69v-714h-46v650h-2l-345 -650h-46l-345 650h-2v-650h-46z" />
    <glyph glyph-name="N" unicode="N" horiz-adv-x="759" 
d="M60 0v714h58l533 -650h2v650h46v-714h-58l-533 650h-2v-650h-46z" />
    <glyph glyph-name="O" unicode="O" horiz-adv-x="816" 
d="M75 357c0 -42.667 7.33301 -84 22 -124s36 -75.5 64 -106.5s62.667 -55.833 104 -74.5s89 -28 143 -28s101.667 9.33301 143 28s76 43.5 104 74.5s49.333 66.5 64 106.5s22 81.333 22 124s-7.33301 84 -22 124s-36 75.5 -64 106.5s-62.667 55.833 -104 74.5
s-89 28 -143 28s-101.667 -9.33301 -143 -28s-76 -43.5 -104 -74.5s-49.333 -66.5 -64 -106.5s-22 -81.333 -22 -124zM29 357c0 23.333 2.66699 48.666 8 75.999s14 54.833 26 82.5s27.667 54.334 47 80.001s43 48.5 71 68.5s60.667 36 98 48s80.333 18 129 18
c48 0 90.833 -6 128.5 -18s70.5 -28 98.5 -48s51.667 -42.833 71 -68.5s35 -52.334 47 -80.001s20.667 -55.167 26 -82.5s8 -52.666 8 -75.999s-2.66699 -48.666 -8 -75.999s-14 -54.833 -26 -82.5s-27.667 -54.334 -47 -80.001s-43 -48.5 -71 -68.5s-60.833 -36 -98.5 -48
s-80.5 -18 -128.5 -18s-90.833 6 -128.5 18s-70.5 28 -98.5 48s-51.667 42.833 -71 68.5s-35 52.334 -47 80.001s-20.667 55.167 -26 82.5s-8 52.666 -8 75.999z" />
    <glyph glyph-name="P" unicode="P" horiz-adv-x="667" 
d="M60 714l371.999 0.00195312c24.667 0 50 -2.66699 76 -8s49.333 -15.333 70 -30s37.667 -34.834 51 -60.501s20 -58.834 20 -99.501c0 -30 -4.33301 -57.333 -13 -82s-22.167 -46 -40.5 -64s-41.666 -31.833 -69.999 -41.5s-61.833 -14.5 -100.5 -14.5h-319v-314h-46v714
zM105.999 354.002h318c22 0 43.667 2.5 65 7.5s40.5 13.5 57.5 25.5s30.667 28.333 41 49s15.5 46.667 15.5 78c0 40 -7 70.833 -21 92.5s-31 37.5 -51 47.5s-40.833 15.833 -62.5 17.5s-40.167 2.5 -55.5 2.5h-307v-320z" />
    <glyph glyph-name="Q" unicode="Q" horiz-adv-x="816" 
d="M493 184l127.001 -91.001c40 34 70.167 73.833 90.5 119.5s30.5 93.834 30.5 144.501c0 42.667 -7.33301 84 -22 124s-36 75.5 -64 106.5s-62.667 55.833 -104 74.5s-89 28 -143 28s-101.667 -9.33301 -143 -28s-76 -43.5 -104 -74.5s-49.333 -66.5 -64 -106.5
s-22 -81.333 -22 -124s7.33301 -84 22 -124s36 -75.5 64 -106.5s62.667 -55.833 104 -74.5s89 -28 143 -28c34.667 0 66.667 4 96 12s55.666 19 78.999 33l-114 80zM622.001 40.999c-28 -17.333 -59.168 -31.167 -93.501 -41.5s-74.5 -15.5 -120.5 -15.5
c-48 0 -90.833 6 -128.5 18s-70.5 28 -98.5 48s-51.667 42.833 -71 68.5s-35 52.334 -47 80.001s-20.667 55.167 -26 82.5s-8 52.666 -8 75.999s2.66699 48.666 8 75.999s14 54.833 26 82.5s27.667 54.334 47 80.001s43 48.5 71 68.5s60.667 36 98 48s80.333 18 129 18
c48 0 90.833 -6 128.5 -18s70.5 -28 98.5 -48s51.667 -42.833 71 -68.5s35 -52.334 47 -80.001s20.667 -55.167 26 -82.5s8 -52.666 8 -75.999c0 -22 -2.33301 -45.667 -7 -71s-12.167 -50.833 -22.5 -76.5s-23.666 -50.667 -39.999 -75s-36.5 -46.5 -60.5 -66.5l119 -84
l-24 -35z" />
    <glyph glyph-name="R" unicode="R" horiz-adv-x="704" 
d="M60 714l365.002 -0.00488281c34 0 65.833 -2.83301 95.5 -8.5s55.167 -15.667 76.5 -30s38.166 -33.666 50.499 -57.999s18.5 -55.166 18.5 -92.499c0 -19.333 -2.83301 -38.166 -8.5 -56.499s-14.5 -35.5 -26.5 -51.5s-27.167 -30 -45.5 -42s-40.166 -21 -65.499 -27v-2
c44 -5.33301 77.167 -21.666 99.5 -48.999s33.833 -60.333 34.5 -99c0.666992 -33.333 1.5 -61 2.5 -83s2.16699 -40.5 3.5 -55.5s3.16602 -27 5.49902 -36s5.16602 -16.833 8.49902 -23.5h-46c-6.66699 6 -11.334 21.5 -14.001 46.5s-4.66699 64.833 -6 119.5
c-0.666992 30.667 -4 56.334 -10 77.001s-16 37 -30 49s-32.667 20.5 -56 25.5s-52.666 7.5 -87.999 7.5h-318v-325h-46v714zM106.002 364.995h311c7.33301 0 17.5 0.333008 30.5 1s27 2.5 42 5.5s30.333 7.66699 46 14s29.667 15.5 42 27.5s22.5 27.333 30.5 46
s12 41.667 12 69c0 28.667 -5.16699 52.5 -15.5 71.5s-24.333 34 -42 45s-38 18.667 -61 23s-47.167 6.5 -72.5 6.5h-323v-309z" />
    <glyph glyph-name="S" unicode="S" horiz-adv-x="667" 
d="M74 236c0.666992 -66.667 22.4951 -118.672 65.4951 -156.005s112.5 -56 208.5 -56c44 0 81.167 4.33301 111.5 13s55 20.334 74 35.001s32.667 31.5 41 50.5s12.5 39.167 12.5 60.5c0 20 -2.83301 37.5 -8.5 52.5s-15.5 28.167 -29.5 39.5s-33.167 21.333 -57.5 30
s-55.166 17 -92.499 25l-133 28c-39.333 8 -72.666 17.333 -99.999 28s-49.666 23.334 -66.999 38.001s-29.833 31.834 -37.5 51.501s-11.5 42.834 -11.5 69.501s5.83301 51.334 17.5 74.001s28.834 42.167 51.501 58.5s50.834 29.166 84.501 38.499s72.5 14 116.5 14
c44.667 0 85.167 -4.16699 121.5 -12.5s67.5 -21.5 93.5 -39.5s46.167 -40.667 60.5 -68s22.166 -60 23.499 -98h-46c-1.33301 20.667 -5.83301 41.5 -13.5 62.5s-20.5 40 -38.5 57s-42.167 31 -72.5 42s-68.833 16.5 -115.5 16.5c-43.333 0 -79.833 -3.83301 -109.5 -11.5
s-53.5 -18 -71.5 -31s-30.833 -28.333 -38.5 -46s-11.5 -36.834 -11.5 -57.501c0 -19.333 2.5 -36.166 7.5 -50.499s13.667 -27.166 26 -38.499s29.5 -21.166 51.5 -29.499s50 -15.833 84 -22.5l147 -29c36 -7.33301 67.667 -15.833 95 -25.5s50.333 -21.834 69 -36.501
s32.834 -32.167 42.501 -52.5s14.5 -44.833 14.5 -73.5c0 -24 -4.5 -48.167 -13.5 -72.5s-24.5 -46 -46.5 -65s-51.333 -34.5 -88 -46.5s-83 -18 -139 -18c-58.667 0 -108.5 6 -149.5 18s-74.5 29 -100.5 51s-44.833 48.5 -56.5 79.5s-17.5 65.5 -17.5 103.5h46z" />
    <glyph glyph-name="T" unicode="T" horiz-adv-x="592" 
d="M-15 674v40h622v-40h-288v-674h-46v674h-288z" />
    <glyph glyph-name="U" unicode="U" horiz-adv-x="740" 
d="M54 714h46.0039v-448c0 -38 4.83301 -72 14.5 -102s25.167 -55.333 46.5 -76s49.166 -36.5 83.499 -47.5s76.166 -16.5 125.499 -16.5s91.166 5.5 125.499 16.5s62.166 26.833 83.499 47.5s36.833 46 46.5 76s14.5 64 14.5 102v448h46v-450
c0 -186.667 -105.333 -280 -316 -280s-316 93.333 -316 280v450z" />
    <glyph glyph-name="V" unicode="V" horiz-adv-x="668" 
d="M308 0l-317 714h52l291 -656l291 656h52l-317 -714h-52z" />
    <glyph glyph-name="W" unicode="W" horiz-adv-x="1018" 
d="M220 0l-235 714h52l212 -650h2l229 650h58l229 -650h2l212 650h52l-235 -714h-58l-230 650h-2l-230 -650h-58z" />
    <glyph glyph-name="X" unicode="X" horiz-adv-x="648" 
d="M-9 0l303 363l-292 351h62l260 -315l265 315h58l-292 -351l302 -363h-61l-272 328l-275 -328h-58z" />
    <glyph glyph-name="Y" unicode="Y" horiz-adv-x="668" 
d="M311 300l-331 414h64l290 -371l296 371h58l-331 -414v-300h-46v300z" />
    <glyph glyph-name="Z" unicode="Z" horiz-adv-x="611" 
d="M-5 0v49l561 625h-528v40h580v-46l-561 -628h569v-40h-621z" />
    <glyph glyph-name="bracketleft" unicode="[" horiz-adv-x="207" 
d="M61 -133v645h128v-40h-84v-565h84v-40h-128z" />
    <glyph glyph-name="backslash" unicode="\" horiz-adv-x="285" 
d="M254 -12l-274 534h46l274 -534h-46z" />
    <glyph glyph-name="bracketright" unicode="]" horiz-adv-x="207" 
d="M17 -133v40h84v565h-84v40h128v-645h-128z" />
    <glyph glyph-name="asciicircum" unicode="^" horiz-adv-x="420" 
d="M361 170l-151 286l-151 -286h-42l172 329h44l170 -329h-42z" />
    <glyph glyph-name="underscore" unicode="_" horiz-adv-x="500" 
d="M500 -125h-500v50h500v-50z" />
    <glyph glyph-name="grave" unicode="`" 
d="M103 593l-78 61h58l65 -61h-45z" />
    <glyph glyph-name="a" unicode="a" horiz-adv-x="593" 
d="M476 286l-1.99902 -0.00195312c-5.33301 -6 -14.833 -11.667 -28.5 -17s-31.5 -8.66602 -53.5 -9.99902l-173 -12c-21.333 -1.33301 -41 -4.16602 -59 -8.49902s-33.5 -10.666 -46.5 -18.999s-23.167 -19 -30.5 -32s-11 -28.833 -11 -47.5
c0 -26 5.83301 -46.667 17.5 -62s26 -27 43 -35s35.167 -13.167 54.5 -15.5s36.666 -3.5 51.999 -3.5c25.333 0 52 3 80 9s53.667 15.667 77 29s42.5 30.666 57.5 51.999s22.5 47.333 22.5 78v94zM49.001 353.998c4 32 11.4971 59.165 22.4971 81.498s26 40.333 45 54
s42.5 23.5 70.5 29.5s61.333 9 100 9c36.667 0 69.667 -2.5 99 -7.5s54 -13.167 74 -24.5s35.333 -26.666 46 -45.999s16 -43.333 16 -72v-287c0 -19.333 1.33301 -34.333 4 -45s12.667 -16 30 -16c12.667 0 27.667 2.66699 45 8v-40c-16 -5.33301 -34.667 -8 -56 -8
c-16 0 -28.167 2.66699 -36.5 8s-14.5 12.833 -18.5 22.5s-6.33301 21.334 -7 35.001s-1 29.167 -1 46.5h-2c-14 -26 -31.5 -46.833 -52.5 -62.5s-42.833 -27.667 -65.5 -36s-45.167 -13.666 -67.5 -15.999s-41.833 -3.5 -58.5 -3.5
c-7.33301 0 -17.666 0.166992 -30.999 0.5s-27.666 2 -42.999 5s-31.166 7.66699 -47.499 14s-31 15.333 -44 27s-23.667 26.334 -32 44.001s-12.5 39.5 -12.5 65.5s5.16699 48 15.5 66s24.333 32.667 42 44s38.167 19.833 61.5 25.5s48 9.5 74 11.5l179 12
c13.333 0.666992 24.833 2 34.5 4s17.834 5.5 24.501 10.5s11.5 12.167 14.5 21.5s4.5 21.666 4.5 36.999c0 17.333 -2.83301 33.166 -8.5 47.499s-15.667 26.5 -30 36.5s-33.666 17.833 -57.999 23.5s-55.5 8.5 -93.5 8.5c-34 0 -62.333 -2.66699 -85 -8
s-41.334 -13.5 -56.001 -24.5s-25.834 -25 -33.501 -42s-13.167 -36.833 -16.5 -59.5h-46z" />
    <glyph glyph-name="b" unicode="b" horiz-adv-x="593" 
d="M563 144c0 -14 -2.33105 -29.5 -6.99805 -46.5s-13.334 -32.667 -26.001 -47s-30.334 -26.333 -53.001 -36s-51.667 -14.5 -87 -14.5h-333v512h338c50 0 87.667 -11 113 -33s38 -54 38 -96c0 -23.333 -5.66699 -45.5 -17 -66.5s-32 -36.833 -62 -47.5
c20 -4.66699 36.333 -12 49 -22s22.5 -21 29.5 -33s11.667 -24.333 14 -37s3.5 -24 3.5 -34v1zM502.002 381c0 22.667 -3.99902 40.167 -11.999 52.5s-18.333 21.5 -31 27.5s-26.334 9.5 -41.001 10.5s-29 1.5 -43 1.5h-274v-187h278c6 0 15.833 0.5 29.5 1.5
s27.5 4.5 41.5 10.5s26.167 15.5 36.5 28.5s15.5 31.5 15.5 55.5v-1zM518.003 146c0 24.667 -4.83301 43.668 -14.5 57.001s-21.667 23.166 -36 29.499s-30 10 -47 11s-32.5 1.5 -46.5 1.5h-273v-205h282c6 0 16.5 0.5 31.5 1.5s30.167 4.83301 45.5 11.5s29 17.167 41 31.5
s18 34.833 18 61.5h-1z" />
    <glyph glyph-name="c" unicode="c" horiz-adv-x="611" 
d="M532 351c-1.33301 16 -7.66699 32.166 -19 48.499s-26.5 31 -45.5 44s-41.5 23.667 -67.5 32s-54.333 12.5 -85 12.5c-40.667 0 -76.167 -6.66699 -106.5 -20s-55.666 -31 -75.999 -53s-35.5 -47.167 -45.5 -75.5s-15 -57.833 -15 -88.5c0 -20.667 4 -44.167 12 -70.5
s21.333 -51 40 -74s43.667 -42.5 75 -58.5s70 -24 116 -24c26 0 51.167 3.16699 75.5 9.5s46.5 15.833 66.5 28.5s37.167 28.667 51.5 48s24.5 42.333 30.5 69h46c-6.66699 -33.333 -18.5 -62.333 -35.5 -87s-37.5 -45 -61.5 -61s-50.833 -27.833 -80.5 -35.5
s-60.5 -11.5 -92.5 -11.5c-42 0 -80.667 6.5 -116 19.5s-65.833 31.167 -91.5 54.5s-45.667 51.333 -60 84s-21.5 69 -21.5 109c0 44.667 7.66699 84.334 23 119.001s36.166 63.667 62.499 87s57 41 92 53s72.167 18 111.5 18c38.667 0 74 -5.16699 106 -15.5
s59.333 -23.833 82 -40.5s40.5 -35.5 53.5 -56.5s20.167 -42.5 21.5 -64.5h-46z" />
    <glyph glyph-name="d" unicode="d" horiz-adv-x="587" 
d="M57 1v512h270c30 0 59 -4.16699 87 -12.5s52.5 -22.333 73.5 -42s37.833 -46 50.5 -79s19 -73.833 19 -122.5c0 -37.333 -4.83301 -71.666 -14.5 -102.999s-24.167 -58.333 -43.5 -81s-43.833 -40.334 -73.5 -53.001s-64.5 -19 -104.5 -19h-264zM101 473v-431.999h226
c26.667 0 51.334 4.16699 74.001 12.5s42.167 21.333 58.5 39s29.166 40 38.499 67s14 59.5 14 97.5c0 38.667 -4.66699 71.667 -14 99s-22.5 49.666 -39.5 66.999s-37.167 30 -60.5 38s-49.333 12 -78 12h-219z" />
    <glyph glyph-name="e" unicode="e" horiz-adv-x="611" 
d="M72 246c0.666992 -32 6.49805 -61.498 17.498 -88.498s26.833 -50.5 47.5 -70.5s46 -35.5 76 -46.5s64.333 -16.5 103 -16.5c40 0 73 5.5 99 16.5s47 24.167 63 39.5s28.167 31.333 36.5 48s14.833 30.667 19.5 42h46c-21.333 -64.667 -54.333 -111.834 -99 -141.501
s-101.334 -44.5 -170.001 -44.5c-44 0 -83.5 6.33301 -118.5 19s-64.833 31 -89.5 55s-43.667 53 -57 87s-20 72.333 -20 115c0 26.667 4.66699 55.667 14 87s25 60.333 47 87s51.333 49 88 67s82.334 27 137.001 27c44.667 0 84.334 -7 119.001 -21s64 -33.5 88 -58.5
s42.333 -54.833 55 -89.5s19.334 -72.334 20.001 -113.001h-522zM541.998 286.002c-4.66699 34.667 -14.001 64.833 -28.001 90.5s-31.5 46.667 -52.5 63s-44.667 28.5 -71 36.5s-54.166 12 -83.499 12c-66.667 0 -120 -18.167 -160 -54.5s-65 -85.5 -75 -147.5h470z" />
    <glyph glyph-name="f" unicode="f" horiz-adv-x="464" 
d="M99 471v-187h312v-40h-312v-245h-44v512h374v-40h-330z" />
    <glyph glyph-name="g" unicode="g" horiz-adv-x="617" 
d="M543 103c-11.333 -20 -25.3301 -37.499 -41.9971 -52.499s-35 -27.5 -55 -37.5s-41.333 -17.5 -64 -22.5s-45.334 -7.5 -68.001 -7.5c-39.333 0 -76.5 6.16699 -111.5 18.5s-65.5 30 -91.5 53s-46.5 51.333 -61.5 85s-22.5 72.167 -22.5 115.5
c0 31.333 6 63.166 18 95.499s30 61.666 54 87.999s54 47.833 90 64.5s78 25 126 25c32 0 62.167 -3.83301 90.5 -11.5s53.833 -19.334 76.5 -35.001s42 -35 58 -58s27.333 -49.5 34 -79.5h-45c-5.33301 24 -14.833 44.833 -28.5 62.5s-30.167 32.334 -49.5 44.001
s-40.833 20.5 -64.5 26.5s-47.834 9 -72.501 9c-35.333 0 -67.833 -6.33301 -97.5 -19s-55.167 -29.5 -76.5 -50.5s-38 -45.5 -50 -73.5s-18 -57.333 -18 -88c0 -31.333 5.5 -61 16.5 -89s26.833 -52.667 47.5 -74s46.167 -38.166 76.5 -50.499s64.5 -18.5 102.5 -18.5
c30.667 0 59.167 4.5 85.5 13.5s49.166 22 68.499 39s35 37.667 47 62s19.333 51.833 22 82.5h-215v40h260v-266h-41v108z" />
    <glyph glyph-name="h" unicode="h" horiz-adv-x="611" 
d="M511 1v249h-409v-249h-44v512h44v-223h409v223h44v-512h-44z" />
    <glyph glyph-name="i" unicode="i" 
d="M60 0v512h46v-512h-46z" />
    <glyph glyph-name="j" unicode="j" horiz-adv-x="424" 
d="M216 -16c-21.333 0 -42.334 2.66797 -63.001 8.00098s-39.5 14.166 -56.5 26.499s-30.667 29.166 -41 50.499s-15.5 48 -15.5 80v18h44v-18c0 -11.333 1.5 -24.166 4.5 -38.499s9.33301 -27.833 19 -40.5s23.167 -23.5 40.5 -32.5s40 -13.5 68 -13.5
c42 0 74 10.333 96 31s33 52 33 94v358h44v-355c0 -28 -4.33301 -52.5 -13 -73.5s-20.667 -38.5 -36 -52.5s-33.666 -24.5 -54.999 -31.5s-44.333 -10.5 -69 -10.5z" />
    <glyph glyph-name="k" unicode="k" horiz-adv-x="556" 
d="M56 0v510h46v-270l365 272h68l-259 -193l283 -319h-63l-256 290l-138 -102v-188h-46z" />
    <glyph glyph-name="l" unicode="l" horiz-adv-x="448" 
d="M38 0v512h44v-472h368v-40h-412z" />
    <glyph glyph-name="m" unicode="m" horiz-adv-x="964" 
d="M56 512l46.0039 0.00292969v-87h2c20 34 47.667 59.667 83 77s73.333 26 114 26c31.333 0 58.166 -3.16699 80.499 -9.5s41.166 -15 56.499 -26s27.666 -23.667 36.999 -38s16.666 -29.5 21.999 -45.5c37.333 79.333 103.333 119 198 119c74 0 128 -15.667 162 -47
s51 -76 51 -134v-347h-46v332c0 20.667 -3 40.5 -9 59.5s-15.667 35.667 -29 50s-30.5 25.666 -51.5 33.999s-46.5 12.5 -76.5 12.5c-62.667 0 -110.167 -15.333 -142.5 -46s-48.5 -73 -48.5 -127v-315h-46v341c0 45.333 -12.833 81.166 -38.5 107.499
s-68.167 39.5 -127.5 39.5c-28 0 -53.667 -4 -77 -12s-43.5 -19.833 -60.5 -35.5s-30.167 -34.834 -39.5 -57.501s-14 -48.667 -14 -78v-305h-46v512z" />
    <glyph glyph-name="n" unicode="n" horiz-adv-x="611" 
d="M56 512l45.998 0.00390625v-102h2c8 15.333 18.333 30 31 44s27.834 26.5 45.501 37.5s38 19.833 61 26.5s49.167 10 78.5 10c39.333 0 72.333 -3.83301 99 -11.5s48.667 -17.667 66 -30s30.833 -26.166 40.5 -41.499s16.667 -30.833 21 -46.5
s6.83301 -30.834 7.5 -45.501s1 -27 1 -37v-316h-46v314c0 26 -2.83301 49.667 -8.5 71s-15.667 39.666 -30 54.999s-33.666 27.166 -57.999 35.499s-55.5 12.5 -93.5 12.5s-70.667 -5.33301 -98 -16s-49.833 -24.834 -67.5 -42.501s-30.667 -37.834 -39 -60.501
s-12.5 -46 -12.5 -70v-299h-46v512z" />
    <glyph glyph-name="o" unicode="o" horiz-adv-x="630" 
d="M72 256c0 -29.333 5 -57.833 15 -85.5s25.167 -52.334 45.5 -74.001s45.666 -39.167 75.999 -52.5s65.833 -20 106.5 -20s76.167 6.66699 106.5 20s55.666 30.833 75.999 52.5s35.5 46.334 45.5 74.001s15 56.167 15 85.5c0 28.667 -5 57 -15 85
s-25.167 52.833 -45.5 74.5s-45.666 39.167 -75.999 52.5s-65.833 20 -106.5 20s-76.167 -6.66699 -106.5 -20s-55.666 -30.833 -75.999 -52.5s-35.5 -46.5 -45.5 -74.5s-15 -56.333 -15 -85zM26 256c0 36 6.5 70.333 19.5 103s31.833 61.5 56.5 86.5s54.834 45 90.501 60
s76.5 22.5 122.5 22.5s86.833 -7.5 122.5 -22.5s65.834 -35 90.501 -60s43.5 -53.833 56.5 -86.5s19.5 -67 19.5 -103s-6.5 -70.5 -19.5 -103.5s-31.833 -62 -56.5 -87s-54.834 -44.833 -90.501 -59.5s-76.5 -22 -122.5 -22s-86.833 7.33301 -122.5 22
s-65.834 34.5 -90.501 59.5s-43.5 54 -56.5 87s-19.5 67.5 -19.5 103.5z" />
    <glyph glyph-name="p" unicode="p" horiz-adv-x="593" 
d="M101 220v-220.001h-44v512h339c18 0 36.333 -2 55 -6s35.5 -11.167 50.5 -21.5s27.333 -25 37 -44s14.5 -43.5 14.5 -73.5c0 -43.333 -13 -78.666 -39 -105.999s-67 -41 -123 -41h-290zM101 471.999v-212.001h289c14.667 0 29.334 1.66699 44.001 5s27.5 9 38.5 17
s20 18.833 27 32.5s10.5 30.834 10.5 51.501c0 26.667 -4.5 47.167 -13.5 61.5s-20.167 24.833 -33.5 31.5s-27.333 10.5 -42 11.5s-27.334 1.5 -38.001 1.5h-282z" />
    <glyph glyph-name="q" unicode="q" horiz-adv-x="630" 
d="M608 10l-24.001 -35l-90 62c-23.333 -16.667 -50 -29.667 -80 -39s-63 -14 -99 -14c-46 0 -86.833 7.33301 -122.5 22s-65.834 34.5 -90.501 59.5s-43.5 54 -56.5 87s-19.5 67.5 -19.5 103.5s6.5 70.333 19.5 103s31.833 61.5 56.5 86.5s54.834 45 90.501 60
s76.5 22.5 122.5 22.5s86.833 -7.5 122.5 -22.5s65.834 -35 90.501 -60s43.5 -53.833 56.5 -86.5s19.5 -67 19.5 -103s-6.5 -70.333 -19.5 -103s-31.833 -61.667 -56.5 -87zM400.999 155l91 -64c22 22 38.5 47.333 49.5 76s16.5 58.334 16.5 89.001c0 28.667 -5 57 -15 85
s-25.167 52.833 -45.5 74.5s-45.666 39.167 -75.999 52.5s-65.833 20 -106.5 20s-76.167 -6.66699 -106.5 -20s-55.666 -30.833 -75.999 -52.5s-35.5 -46.5 -45.5 -74.5s-15 -56.333 -15 -85c0 -29.333 5 -57.833 15 -85.5s25.167 -52.334 45.5 -74.001
s45.666 -39.167 75.999 -52.5s65.5 -20 105.5 -20c30 0 56.667 3.5 80 10.5s44.666 16.5 63.999 28.5l-82 57z" />
    <glyph glyph-name="r" unicode="r" horiz-adv-x="380" 
d="M56 512h46.002v-121h2c17.333 46 44.5 78.833 81.5 98.5s80.5 29.5 130.5 29.5c7.33301 0 13.666 -0.5 18.999 -1.5s11.666 -2.5 18.999 -4.5v-46c-5.33301 2 -11.833 3.5 -19.5 4.5s-18.834 1.5 -33.501 1.5c-33.333 0 -62.5 -5.33301 -87.5 -16s-45.667 -25 -62 -43
s-28.666 -38.833 -36.999 -62.5s-12.5 -48.5 -12.5 -74.5v-277h-46v512z" />
    <glyph glyph-name="s" unicode="s" horiz-adv-x="537" 
d="M450 362c-3.33301 42.667 -19.8301 74.3281 -49.4971 94.9951s-77.834 31 -144.501 31c-31.333 0 -57.666 -2.83301 -78.999 -8.5s-38.5 -13.167 -51.5 -22.5s-22.333 -20.166 -28 -32.499s-8.5 -25.166 -8.5 -38.499c0 -28 9.5 -48.5 28.5 -61.5
s43.833 -21.5 74.5 -25.5l163 -22c24 -3.33301 45.833 -8.16602 65.5 -14.499s36.667 -15 51 -26s25.333 -24.667 33 -41s11.5 -35.833 11.5 -58.5c0 -34.667 -8.66699 -62.167 -26 -82.5s-38.666 -35.666 -63.999 -45.999s-52 -17 -80 -20s-53 -4.5 -75 -4.5
c-35.333 0 -67.833 3.16699 -97.5 9.5s-55.5 16.5 -77.5 30.5s-39.5 32.167 -52.5 54.5s-20.5 49.5 -22.5 81.5h46c1.33301 -13.333 4 -27.833 8 -43.5s13.167 -30.334 27.5 -44.001s35.5 -25.167 63.5 -34.5s67 -14 117 -14c67.333 0 115.333 9.66699 144 29
s43 47.333 43 84c0 30 -9.66699 52 -29 66s-44 23 -74 27l-180 24c-16 2 -32.5 5.66699 -49.5 11s-32.5 12.833 -46.5 22.5s-25.5 22.167 -34.5 37.5s-13.5 34.666 -13.5 57.999c0 14.667 3 30.334 9 47.001s17 32.334 33 47.001s38 26.834 66 36.501s63.667 14.5 107 14.5
c47.333 0 86.166 -4.83301 116.499 -14.5s54.166 -22.5 71.499 -38.5s29.666 -33.833 36.999 -53.5s11.666 -39.5 12.999 -59.5h-46z" />
    <glyph glyph-name="t" unicode="t" horiz-adv-x="487" 
d="M266 472v-472h-44v472h-222v40h487v-40h-221z" />
    <glyph glyph-name="u" unicode="u" horiz-adv-x="611" 
d="M555 0l-45.998 -0.00292969v102h-2c-8 -15.333 -18.333 -30 -31 -44s-27.834 -26.5 -45.501 -37.5s-38.167 -19.833 -61.5 -26.5s-49.333 -10 -78 -10c-39.333 0 -72.333 3.83301 -99 11.5s-48.667 17.667 -66 30s-30.833 26.166 -40.5 41.499s-16.667 30.833 -21 46.5
s-6.83301 30.667 -7.5 45s-1 26.833 -1 37.5v316h46v-314c0 -26 2.83301 -49.667 8.5 -71s15.667 -39.666 30 -54.999s33.666 -27.166 57.999 -35.499s55.5 -12.5 93.5 -12.5s70.667 5.33301 98 16s49.833 24.834 67.5 42.501s30.667 37.834 39 60.501s12.5 46 12.5 70v299
h46v-512z" />
    <glyph glyph-name="v" unicode="v" horiz-adv-x="556" 
d="M255 0l-253 512h52l224 -466l224 466h52l-253 -512h-46z" />
    <glyph glyph-name="w" unicode="w" horiz-adv-x="870" 
d="M231 58l175 454h58l181 -454l179 454h52l-209 -512h-52l-180 460l-180 -460h-52l-209 512h52z" />
    <glyph glyph-name="x" unicode="x" horiz-adv-x="537" 
d="M-11 0l248 267l-227 245h64l195 -211l196 211h58l-225 -242l250 -270h-64l-218 235l-219 -235h-58z" />
    <glyph glyph-name="y" unicode="y" horiz-adv-x="500" 
d="M270 214v-214h-44v214l-238 298h60l200 -256l204 256h56z" />
    <glyph glyph-name="z" unicode="z" horiz-adv-x="519" 
d="M12 0v46l417 426h-391v40h455v-34l-429 -438h443v-40h-495z" />
    <glyph glyph-name="braceleft" unicode="{" horiz-adv-x="207" 
d="M146 -133c-22 0 -38.833 6.33496 -50.5 19.002s-17.5 36 -17.5 70v106c0 30 -3.5 55.167 -10.5 75.5s-20.5 31.166 -40.5 32.499v39c20 1.33301 33.5 12.166 40.5 32.499s10.5 45.5 10.5 75.5v106c0 34 5.83301 57.333 17.5 70s28.167 19 49.5 19h47v-40h-40
c-6 0 -10.833 -0.333008 -14.5 -1s-6.66699 -3 -9 -7s-4 -10.167 -5 -18.5s-1.5 -19.833 -1.5 -34.5v-105c0 -36 -4.5 -62.5 -13.5 -79.5s-19.167 -29.167 -30.5 -36.5c11.333 -7.33301 21.5 -19.5 30.5 -36.5s13.5 -43.5 13.5 -79.5v-106c0 -15.333 0.5 -27 1.5 -35
s2.66699 -14 5 -18s5.33301 -6.33301 9 -7s8.5 -1 14.5 -1h40v-40h-47h1z" />
    <glyph glyph-name="bar" unicode="|" horiz-adv-x="155" 
d="M57 -12v534h40v-534h-40z" />
    <glyph glyph-name="braceright" unicode="}" horiz-adv-x="207" 
d="M124 -44c0 -34 -5.83398 -57.335 -17.501 -70.002s-28.5 -19 -50.5 -19h-47v40h40c6 0 10.833 0.333008 14.5 1s6.66699 3 9 7s4 10 5 18s1.5 19.667 1.5 35l1 105c0.666992 35.333 5.33398 61.833 14.001 79.5s18.334 30.167 29.001 37.5
c-11.333 7.33301 -21.5 19.5 -30.5 36.5s-13.5 43.167 -13.5 78.5v106c0 14.667 -0.5 26.167 -1.5 34.5s-2.66699 14.5 -5 18.5s-5.33301 6.33301 -9 7s-8.5 1 -14.5 1h-40v40h47c22 0 39 -6.33301 51 -19s17.667 -36 17 -70l-1 -106
c-0.666992 -30 2.66602 -55.167 9.99902 -75.5s21 -31.166 41 -32.499l1 -39c-20 -1.33301 -33.5 -12.166 -40.5 -32.499s-10.5 -45.5 -10.5 -75.5v-106z" />
    <glyph glyph-name="asciitilde" unicode="~" horiz-adv-x="420" 
d="M288 143c-14 0 -27.3291 2.49902 -39.9961 7.49902s-26.667 11.5 -42 19.5c-8 4 -18.333 8.33301 -31 13s-23.334 7 -32.001 7c-18.667 0 -32.834 -5.66699 -42.501 -17s-17.834 -24.666 -24.501 -39.999l-30 32c12 20 24.667 35.833 38 47.5s31.666 17.5 54.999 17.5
c14.667 0 27.667 -2.16699 39 -6.5s25 -10.166 41 -17.499l32.5 -16c10.333 -5.33301 22.166 -8 35.499 -8c12 0 23.667 5.66699 35 17s21 24.666 29 39.999l29 -31c-11.333 -16 -24.166 -31 -38.499 -45s-32.5 -21 -54.5 -21z" />
    <glyph glyph-name="nonbreakingspace" unicode="&#xa0;" horiz-adv-x="222" 
 />
    <glyph glyph-name="exclamdown" unicode="&#xa1;" horiz-adv-x="181" 
d="M69 374h48v-82h-48v82zM69 2c0 40 0.832031 80 2.49902 120s2.83398 81 3.50098 123h35c1.33301 -42 2.83301 -83 4.5 -123s2.5 -80 2.5 -120v-140h-48v140z" />
    <glyph glyph-name="cent" unicode="&#xa2;" horiz-adv-x="648" 
d="M310 487c-36.667 -2.66699 -68.668 -11 -96.001 -25s-50.166 -31.833 -68.499 -53.5s-32 -46.167 -41 -73.5s-13.5 -55.333 -13.5 -84c0 -20 3.66699 -42.5 11 -67.5s19.5 -48.833 36.5 -71.5s39.5 -42.167 67.5 -58.5s62.667 -25.833 104 -28.5v462zM309.999 -15
c-38.667 2 -74.167 9.83398 -106.5 23.501s-60.333 32.167 -84 55.5s-42 50.833 -55 82.5s-19.5 66.5 -19.5 104.5c0 42.667 7 80.667 21 114s33 61.666 57 84.999s52 41.5 84 54.5s66.333 20.5 103 22.5v93h34v-92c38 -0.666992 72.167 -6.33398 102.5 -17.001
s56.5 -24.334 78.5 -41.001s39.167 -35.5 51.5 -56.5s19.166 -41.833 20.499 -62.5h-46c-1.33301 15.333 -7.33301 31 -18 47s-25.167 30.5 -43.5 43.5s-39.833 23.833 -64.5 32.5s-51.667 13.334 -81 14.001v-464c53.333 0 99.333 13 138 39s63.667 64.667 75 116h46
c-6.66699 -32.667 -18 -61.167 -34 -85.5s-35.5 -44.666 -58.5 -60.999s-48.667 -28.5 -77 -36.5s-58.166 -12 -89.499 -12v-109h-34v110z" />
    <glyph glyph-name="sterling" unicode="&#xa3;" horiz-adv-x="648" 
d="M55 356l74.9941 -0.00195312c-39.333 67.333 -59 125 -59 173c0 12.667 2.66699 29.834 8 51.501s16.833 42.834 34.5 63.501s43.334 38.5 77.001 53.5s78.834 22.5 135.501 22.5c54.667 0 99.334 -6.83301 134.001 -20.5s61.834 -31.667 81.501 -54
s33.167 -48.166 40.5 -77.499s11 -59.333 11 -90h-46c0 38.667 -5.5 71 -16.5 97s-26.333 46.833 -46 62.5s-43 26.667 -70 33s-56.833 9.5 -89.5 9.5c-24 0 -48.333 -2.5 -73 -7.5s-47 -13.333 -67 -25s-36.333 -27.167 -49 -46.5s-19 -43.333 -19 -72
c0 -13.333 2 -27.166 6 -41.499s9.16699 -29 15.5 -44s13.333 -29.833 21 -44.5l22.5 -43h227v-34h-213c6 -15.333 10.667 -29.166 14 -41.499s5 -25.833 5 -40.5c0 -20.667 -3.33301 -40.667 -10 -60s-15.5 -37.833 -26.5 -55.5s-23.667 -34 -38 -49
s-29.166 -28.833 -44.499 -41.5l2 -2c32 18 58.667 28.5 80 31.5s38.666 4.5 51.999 4.5c17.333 0 34.833 -2.33301 52.5 -7s35.167 -9.66699 52.5 -15l51 -15c16.667 -4.66699 32.334 -7 47.001 -7c17.333 0 33.666 2.5 48.999 7.5s29.5 11.5 42.5 19.5
s24.833 16.667 35.5 26s19.667 18.666 27 27.999l21 -38c-30 -30.667 -60.333 -52.167 -91 -64.5s-58.667 -18.5 -84 -18.5c-20 0 -39.167 2.33301 -57.5 7s-36.166 9.66699 -53.499 15s-34.666 10.333 -51.999 15s-35 7 -53 7c-16 0 -29.5 -0.666992 -40.5 -2
s-21.833 -3.66602 -32.5 -6.99902s-22 -7.83301 -34 -13.5l-44 -21.5l-26 39c19.333 17.333 37 34.166 53 50.499s29.667 32.833 41 49.5s20 34 26 52s9 37.333 9 58c0 15.333 -2.66699 31.666 -8 48.999s-11 30.666 -17 39.999h-89v34z" />
    <glyph glyph-name="currency" unicode="&#xa4;" horiz-adv-x="648" 
d="M539 110l-53.999 55.001c-23.333 -20.667 -49 -36 -77 -46s-56 -15 -84 -15c-60.667 0 -114.334 20.333 -161.001 61l-55 -55l-28 26l58 55c-20 23.333 -35.167 48.833 -45.5 76.5s-15.833 55.834 -16.5 84.501s4.16602 56.834 14.499 84.501s25.833 53.167 46.5 76.5
l-57 56l28 26l55 -55c46.667 38.667 100.334 58.667 161.001 60c28 0 56 -5 84 -15s53.667 -25.333 77 -46l54 56l27 -28l-55 -54c20.667 -23.333 36 -48.833 46 -76.5s15 -55.834 15 -84.501s-5 -56.834 -15 -84.501s-25.333 -52.834 -46 -75.501l55 -54zM122.001 352.001
c0 -28 5.33301 -54.333 16 -79s25 -46 43 -64s39.333 -32.333 64 -43s51 -16 79 -16s54.333 5.33301 79 16s46 25 64 43s32.333 39.333 43 64s16 51 16 79s-5.33301 54.333 -16 79s-25 46 -43 64s-39.333 32.333 -64 43s-51 16 -79 16s-54.333 -5.33301 -79 -16
s-46 -25 -64 -43s-32.333 -39.333 -43 -64s-16 -51 -16 -79z" />
    <glyph glyph-name="yen" unicode="&#xa5;" horiz-adv-x="648" 
d="M301 0v170h-211v34h211v96l-12 16h-199v34h173l-273 354h64l265 -354h10l271 354h58l-273 -354h173v-34h-199l-12 -16v-96h211v-34h-211v-170h-46z" />
    <glyph glyph-name="brokenbar" unicode="&#xa6;" horiz-adv-x="222" 
d="M91 -16v270h40v-270h-40zM91 460v270h40v-270h-40z" />
    <glyph glyph-name="section" unicode="&#xa7;" horiz-adv-x="648" 
d="M484 549c0 9.33301 -0.833984 21.9941 -2.50098 37.9941s-7.83398 31.667 -18.501 47s-27.334 28.5 -50.001 39.5s-55 16.5 -97 16.5c-12 0 -27 -0.5 -45 -1.5s-35.667 -4.83301 -53 -11.5s-32.166 -16.834 -44.499 -30.501s-18.5 -33.5 -18.5 -59.5
c0 -15.333 5 -30.166 15 -44.499s29.333 -28.166 58 -41.499l266 -123c32.667 -15.333 59.167 -33.666 79.5 -54.999s30.5 -47.333 30.5 -78c0 -28 -5.5 -51.167 -16.5 -69.5s-24 -33 -39 -44s-29.833 -18.833 -44.5 -23.5s-25.667 -7.66699 -33 -9c6 -4 12.667 -9 20 -15
s14.333 -13.333 21 -22s12.334 -19.334 17.001 -32.001s7 -27.334 7 -44.001c0 -31.333 -6.5 -56.666 -19.5 -75.999s-29.833 -34.333 -50.5 -45s-44 -17.834 -70 -21.501s-52 -5.5 -78 -5.5c-21.333 0 -44.666 2 -69.999 6s-49 12.5 -71 25.5s-40.333 32 -55 57
s-22 58.167 -22 99.5h46c0 -52 14.5 -89.667 43.5 -113s72.5 -35 130.5 -35c8 0 21.333 0.5 40 1.5s37.667 4.66699 57 11s36.333 16.333 51 30s22 33.167 22 58.5c0 16.667 -2.83301 30.834 -8.5 42.501s-13.5 21.834 -23.5 30.501s-21.5 16.334 -34.5 23.001
s-26.833 13.334 -41.5 20.001l-204 95c-26.667 12.667 -48.667 24.834 -66 36.501s-31 23.667 -41 36s-17 24.833 -21 37.5s-6 26.334 -6 41.001c0 24.667 5.33301 45.667 16 63s23.167 31.333 37.5 42s28.833 18.834 43.5 24.501s26 9.5 34 11.5
c-7.33301 4.66699 -14.833 10 -22.5 16s-14.834 13.167 -21.501 21.5s-12 18.166 -16 29.499s-6 25 -6 41c0 22 4.83301 41.667 14.5 59s23.167 32 40.5 44s38 21.167 62 27.5s50.333 9.5 79 9.5c34.667 0 65.834 -3 93.501 -9s51.167 -16.167 70.5 -30.5s34.333 -33 45 -56
s16 -51.5 16 -85.5h-46zM207.999 459.994c-6 0 -15.502 -2.16895 -28.502 -6.50195s-26.167 -11.166 -39.5 -20.499s-25 -21.166 -35 -35.499s-15 -31.166 -15 -50.499c0 -16 2.83301 -29.833 8.5 -41.5s13.334 -21.834 23.001 -30.501s21.167 -16.5 34.5 -23.5
s28 -14.167 44 -21.5l236 -109c0.666992 0 7.5 1.16699 20.5 3.5s27 7.5 42 15.5s28.667 19.333 41 34s18.5 34 18.5 58c0 16 -3.16699 30 -9.5 42s-14.166 22.333 -23.499 31s-19.833 16 -31.5 22s-22.5 11.333 -32.5 16z" />
    <glyph glyph-name="dieresis" unicode="&#xa8;" 
d="M-46 598v106h46v-106h-46zM166 598v106h46v-106h-46z" />
    <glyph glyph-name="copyright" unicode="&#xa9;" horiz-adv-x="800" 
d="M67 357c0 -46 8.66699 -89.167 26 -129.5s41.166 -75.666 71.499 -105.999s65.666 -54.166 105.999 -71.499s83.5 -26 129.5 -26s89.167 8.66699 129.5 26s75.666 41.166 105.999 71.499s54.166 65.666 71.499 105.999s26 83.5 26 129.5s-8.66699 89.167 -26 129.5
s-41.166 75.666 -71.499 105.999s-65.666 54.166 -105.999 71.499s-83.5 26 -129.5 26s-89.167 -8.66699 -129.5 -26s-75.666 -41.166 -105.999 -71.499s-54.166 -65.666 -71.499 -105.999s-26 -83.5 -26 -129.5zM562 438c-7.33301 38 -23.999 67.667 -49.999 89
s-59.333 32 -100 32c-29.333 0 -55.5 -5 -78.5 -15s-42.5 -24 -58.5 -42s-28.167 -39.333 -36.5 -64s-12.5 -51.334 -12.5 -80.001c0 -28 4.33301 -54.333 13 -79s21 -46.167 37 -64.5s35.5 -33 58.5 -44s48.833 -16.5 77.5 -16.5c40.667 0 74 11.167 100 33.5
s42.667 53.5 50 93.5h40c-3.33301 -24 -10.666 -46 -21.999 -66s-25.5 -37 -42.5 -51s-36.167 -24.833 -57.5 -32.5s-44 -11.5 -68 -11.5c-34 0 -65 6 -93 18s-51.833 28.667 -71.5 50s-34.834 46.5 -45.501 75.5s-16 60.5 -16 94.5s5.16699 65.5 15.5 94.5
s25.166 53.833 44.499 74.5s43 36.834 71 48.501s59.667 17.5 95 17.5c48.667 0 90.5 -13.5 125.5 -40.5s56.5 -65.167 64.5 -114.5h-40zM27.001 357c0 51.333 9.83301 99.666 29.5 144.999s46.334 84.833 80.001 118.5s73.167 60.334 118.5 80.001
s93.666 29.5 144.999 29.5s99.666 -9.83301 144.999 -29.5s84.833 -46.334 118.5 -80.001s60.334 -73.167 80.001 -118.5s29.5 -93.666 29.5 -144.999s-9.83301 -99.666 -29.5 -144.999s-46.334 -84.833 -80.001 -118.5s-73.167 -60.334 -118.5 -80.001
s-93.666 -29.5 -144.999 -29.5s-99.666 9.83301 -144.999 29.5s-84.833 46.334 -118.5 80.001s-60.334 73.167 -80.001 118.5s-29.5 93.666 -29.5 144.999z" />
    <glyph glyph-name="ordfeminine" unicode="&#xaa;" horiz-adv-x="385" 
d="M306 574c-3.33301 -2.66699 -9.16992 -5.83301 -17.5029 -9.5s-21.166 -6.16699 -38.499 -7.5l-113 -8c-30.667 -2 -52.667 -8.66699 -66 -20s-20 -26 -20 -44c0 -8 1.5 -16 4.5 -24s8.33301 -15.167 16 -21.5s18.334 -11.5 32.001 -15.5s31.167 -6 52.5 -6
c14.667 0 30.834 1.83301 48.501 5.5s34 9.66699 49 18s27.5 19 37.5 32s15 28.833 15 47.5v53zM339.996 469.001c0 -11.333 0.837891 -20.6602 2.50488 -27.9932s8.16699 -11 19.5 -11c9.33301 0 19 1.33301 29 4v-28c-6 -1.33301 -10 -2.33301 -12 -3s-3.83301 -1 -5.5 -1
h-6.5h-16c-11.333 0 -20 1.5 -26 4.5s-10.5 7.33301 -13.5 13s-4.66699 12.167 -5 19.5s-0.5 15.666 -0.5 24.999h-2c-9.33301 -16.667 -20.333 -29.834 -33 -39.501s-25.834 -17 -39.501 -22s-27.334 -8.33301 -41.001 -10s-25.834 -2.5 -36.501 -2.5
c-28.667 0 -51.834 3 -69.501 9s-31.5 13.667 -41.5 23s-16.833 19.666 -20.5 30.999s-5.5 22.666 -5.5 33.999c0 28 10.5 49.167 31.5 63.5s51.5 23.166 91.5 26.499l112 8c15.333 1.33301 28.166 4.33301 38.499 9s15.5 13.667 15.5 27c0 8 -1 16.333 -3 25
s-6.83301 16.334 -14.5 23.001s-19.167 12.167 -34.5 16.5s-36.333 6.5 -63 6.5c-38 0 -68.333 -5.66699 -91 -17s-34 -31.333 -34 -60h-34c0 19.333 4.16699 35.666 12.5 48.999s19.333 24.166 33 32.499s29.5 14.333 47.5 18s36.667 5.5 56 5.5c20 0 39.667 -1 59 -3
s36.333 -6 51 -12s26.5 -14.833 35.5 -26.5s13.5 -26.834 13.5 -45.501v-164z" />
    <glyph glyph-name="guillemotleft" unicode="&#xab;" horiz-adv-x="444" 
d="M255 270l102 -104v-54l-136 135v46l136 135v-54zM107 270l102 -104v-54l-136 135v46l136 135v-54z" />
    <glyph glyph-name="logicalnot" unicode="&#xac;" horiz-adv-x="600" 
d="M513 108v222h-466v40h506v-262h-40z" />
    <glyph glyph-name="registered" unicode="&#xae;" horiz-adv-x="800" 
d="M256 578l170 -0.000976562c22 0 41.833 -1.83301 59.5 -5.5s32.667 -10.167 45 -19.5s22 -21.833 29 -37.5s10.5 -35.5 10.5 -59.5c0 -38.667 -10.167 -66.667 -30.5 -84s-47.833 -28.666 -82.5 -33.999l133 -202h-46l-133 202h-115v-202h-40v442zM296 371.999
l94 -0.000976562c20.667 0 39.5 0.833008 56.5 2.5s31.667 5.33398 44 11.001s22 14 29 25s10.5 26.167 10.5 45.5c0 34 -9.83301 57.167 -29.5 69.5s-44.5 18.5 -74.5 18.5h-130v-172zM67 356.998c0 -46 8.66699 -89.167 26 -129.5s41.166 -75.666 71.499 -105.999
s65.666 -54.166 105.999 -71.499s83.5 -26 129.5 -26s89.167 8.66699 129.5 26s75.666 41.166 105.999 71.499s54.166 65.666 71.499 105.999s26 83.5 26 129.5s-8.66699 89.167 -26 129.5s-41.166 75.666 -71.499 105.999s-65.666 54.166 -105.999 71.499
s-83.5 26 -129.5 26s-89.167 -8.66699 -129.5 -26s-75.666 -41.166 -105.999 -71.499s-54.166 -65.666 -71.499 -105.999s-26 -83.5 -26 -129.5zM27 356.998c0 51.333 9.83301 99.666 29.5 144.999s46.334 84.833 80.001 118.5s73.167 60.334 118.5 80.001
s93.666 29.5 144.999 29.5s99.666 -9.83301 144.999 -29.5s84.833 -46.334 118.5 -80.001s60.334 -73.167 80.001 -118.5s29.5 -93.666 29.5 -144.999s-9.83301 -99.666 -29.5 -144.999s-46.334 -84.833 -80.001 -118.5s-73.167 -60.334 -118.5 -80.001
s-93.666 -29.5 -144.999 -29.5s-99.666 9.83301 -144.999 29.5s-84.833 46.334 -118.5 80.001s-60.334 73.167 -80.001 118.5s-29.5 93.666 -29.5 144.999z" />
    <glyph glyph-name="macron" unicode="&#xaf;" 
d="M-108 640v34h382v-34h-382z" />
    <glyph glyph-name="degree" unicode="&#xb0;" horiz-adv-x="400" 
d="M55 575c0 20 3.83301 38.833 11.5 56.5s18 33 31 46s28.333 23.333 46 31s36.5 11.5 56.5 11.5s38.833 -3.83301 56.5 -11.5s33 -18 46 -31s23.333 -28.333 31 -46s11.5 -36.5 11.5 -56.5s-3.83301 -38.833 -11.5 -56.5s-18 -33 -31 -46s-28.333 -23.333 -46 -31
s-36.5 -11.5 -56.5 -11.5s-38.833 3.83301 -56.5 11.5s-33 18 -46 31s-23.333 28.333 -31 46s-11.5 36.5 -11.5 56.5zM89 575c0 -15.333 3 -29.666 9 -42.999s14 -25 24 -35s21.667 -18 35 -24s27.666 -9 42.999 -9c14.667 0 28.834 3 42.501 9s25.5 14 35.5 24
s18 21.667 24 35s9 27.666 9 42.999c0 14.667 -3 28.834 -9 42.501s-14 25.5 -24 35.5s-21.833 18 -35.5 24s-27.834 9 -42.501 9c-15.333 0 -29.666 -3 -42.999 -9s-25 -14 -35 -24s-18 -21.833 -24 -35.5s-9 -27.834 -9 -42.501z" />
    <glyph glyph-name="plusminus" unicode="&#xb1;" horiz-adv-x="600" 
d="M47 278v40h233v188h40v-188h233v-40h-233v-188h-40v188h-233zM47 0v40h506v-40h-506z" />
    <glyph glyph-name="twosuperior" unicode="&#xb2;" horiz-adv-x="421" 
d="M383 294l-345.002 -0.00195312c2.66699 22 7.33398 40.333 14.001 55s16 27.667 28 39s26.667 22 44 32s38 21.333 62 34l64 33.5c18.667 9.66699 34.5 19.667 47.5 30s23 21.833 30 34.5s10.5 28 10.5 46c0 17.333 -3.66699 32 -11 44s-16.666 21.667 -27.999 29
s-24.333 12.666 -39 15.999s-29.334 5 -44.001 5c-48 0 -82.667 -11.167 -104 -33.5s-32 -51.5 -32 -87.5h-34c0 52 14.167 89.833 42.5 113.5s70.833 35.5 127.5 35.5c19.333 0 38.333 -2.16699 57 -6.5s35.334 -11.333 50.001 -21s26.5 -22.167 35.5 -37.5
s13.5 -34.333 13.5 -57c0 -20.667 -3.66699 -38.5 -11 -53.5s-18 -28.667 -32 -41s-31.333 -24.166 -52 -35.499s-44 -23.333 -70 -36c-34.667 -17.333 -64 -34.166 -88 -50.499s-39.667 -36.166 -47 -59.499h311v-28z" />
    <glyph glyph-name="threesuperior" unicode="&#xb3;" horiz-adv-x="421" 
d="M187 528c13.333 0 28.832 0.5 46.499 1.5s34.5 4 50.5 9s29.5 13 40.5 24s16.5 26.5 16.5 46.5c0 16.667 -3.83301 30.334 -11.5 41.001s-17.5 19.167 -29.5 25.5s-25.167 10.666 -39.5 12.999s-28.166 3.5 -41.499 3.5c-18.667 0 -36.334 -2 -53.001 -6
s-31.334 -10.5 -44.001 -19.5s-22.667 -20.833 -30 -35.5s-11 -32.334 -11 -53.001h-34c0.666992 26 5.33398 48.167 14.001 66.5s20.667 33 36 44s33.833 19 55.5 24s45.834 7.5 72.501 7.5c16 0 32.833 -1.66699 50.5 -5s33.834 -9.33301 48.501 -18
s26.834 -20 36.501 -34s14.5 -32 14.5 -54c0 -31.333 -9.83301 -53.666 -29.5 -66.999s-43.5 -21.666 -71.5 -24.999v-2c32 0 58.833 -9.66699 80.5 -29s32.5 -47 32.5 -83c0 -26 -5.33301 -47.333 -16 -64s-24.5 -29.834 -41.5 -39.501s-36.167 -16.334 -57.5 -20.001
s-42.333 -5.5 -63 -5.5c-24.667 0 -47.667 2.66699 -69 8s-39.833 14 -55.5 26s-28 27.833 -37 47.5s-13.5 43.834 -13.5 72.501h34c0 -24 4 -44 12 -60s18.833 -29 32.5 -39s29.334 -17 47.001 -21s36.5 -6 56.5 -6c15.333 0 31.166 1.66699 47.499 5s31.166 9 44.499 17
s24.166 18.5 32.499 31.5s12.5 29.167 12.5 48.5c0 23.333 -5.66699 41.5 -17 54.5s-25.333 22.5 -42 28.5s-34.667 9.66699 -54 11s-37 2 -53 2v28z" />
    <glyph glyph-name="acute" unicode="&#xb4;" 
d="M75 654h58l-70 -61h-45z" />
    <glyph glyph-name="mu" unicode="&#xb5;" horiz-adv-x="611" 
d="M555 0l-45.998 -0.00292969v102h-2c-8 -15.333 -18.333 -30 -31 -44s-27.834 -26.5 -45.501 -37.5s-38.167 -19.833 -61.5 -26.5s-49.333 -10 -78 -10s-53.5 2.5 -74.5 7.5s-38.833 11.333 -53.5 19s-26.667 16.167 -36 25.5s-17 18.666 -23 27.999h-2v-266h-46v714h46
v-314c0 -26 2.83301 -49.667 8.5 -71s15.667 -39.666 30 -54.999s33.666 -27.166 57.999 -35.499s55.5 -12.5 93.5 -12.5s70.667 5.33301 98 16s49.833 24.834 67.5 42.501s30.667 37.834 39 60.501s12.5 46 12.5 70v299h46v-512z" />
    <glyph glyph-name="paragraph" unicode="&#xb6;" horiz-adv-x="600" 
d="M258 324c-29.333 0 -56.668 5.16602 -82.001 15.499s-47.166 24.333 -65.499 42s-32.833 38.334 -43.5 62.001s-16 48.5 -16 74.5c0 64.667 19.5 113.5 58.5 146.5s93.833 49.5 164.5 49.5h217v-860h-40v820h-153v-820h-40v470z" />
    <glyph glyph-name="periodcentered" unicode="&#xb7;" horiz-adv-x="222" 
d="M55 320c0 15.333 5.5 28.5 16.5 39.5s24.167 16.5 39.5 16.5s28.5 -5.5 39.5 -16.5s16.5 -24.167 16.5 -39.5s-5.5 -28.5 -16.5 -39.5s-24.167 -16.5 -39.5 -16.5s-28.5 5.5 -39.5 16.5s-16.5 24.167 -16.5 39.5z" />
    <glyph glyph-name="cedilla" unicode="&#xb8;" 
d="M80 0l33.999 -0.000976562l-51 -55l2 -2c18.667 4 33.334 6 44.001 6c10 0 20 -1.33301 30 -4s19.167 -6.5 27.5 -11.5s15 -11.5 20 -19.5s7.5 -17.333 7.5 -28c0 -14 -3.5 -25.833 -10.5 -35.5s-15.833 -17.5 -26.5 -23.5s-22.667 -10.333 -36 -13s-26 -4 -38 -4
c-16.667 0 -35.5 1.83301 -56.5 5.5s-39.167 7.83398 -54.5 12.501l10 28c12 -4.66699 26.833 -8.83398 44.5 -12.501s32.834 -5.5 45.501 -5.5c4.66699 0 11.5 0.166992 20.5 0.5s18 2 27 5s17 7.5 24 13.5s10.5 14.667 10.5 26c0 8 -2 14.333 -6 19s-9 8.5 -15 11.5
s-12.667 5 -20 6s-14 1.5 -20 1.5c-14.667 0 -26.334 -1.16699 -35.001 -3.5s-16.667 -5.16602 -24 -8.49902l-17 15z" />
    <glyph glyph-name="onesuperior" unicode="&#xb9;" horiz-adv-x="388" 
d="M201 655c-20.667 -17.333 -44 -30.167 -70 -38.5s-51 -13.833 -75 -16.5v28c12 0.666992 25.5 3 40.5 7s29.5 9.5 43.5 16.5s26.833 15.167 38.5 24.5s20.167 20 25.5 32h31v-422h-34v369z" />
    <glyph glyph-name="ordmasculine" unicode="&#xba;" horiz-adv-x="410" 
d="M51 555c0 -17.333 3.16699 -34.166 9.5 -50.499s16 -30.833 29 -43.5s29.167 -23 48.5 -31s41.666 -12 66.999 -12c24.667 0 46.667 4 66 12s35.5 18.333 48.5 31s22.833 27.167 29.5 43.5s10 33.166 10 50.499c0 16.667 -3.33301 33.334 -10 50.001
s-16.5 31.334 -29.5 44.001s-29.167 23 -48.5 31s-41.333 12 -66 12c-25.333 0 -47.666 -4 -66.999 -12s-35.5 -18.333 -48.5 -31s-22.667 -27.334 -29 -44.001s-9.5 -33.334 -9.5 -50.001zM17 555c0 26.667 5 50.334 15 71.001s23.5 38 40.5 52s37 24.5 60 31.5
s47.167 10.5 72.5 10.5s49.5 -3.5 72.5 -10.5s43 -17.5 60 -31.5s30.5 -31.333 40.5 -52s15 -44.334 15 -71.001c0 -27.333 -5 -51.166 -15 -71.499s-23.5 -37.5 -40.5 -51.5s-37 -24.5 -60 -31.5s-47.167 -10.5 -72.5 -10.5s-49.5 3.5 -72.5 10.5s-43 17.5 -60 31.5
s-30.5 31.167 -40.5 51.5s-15 44.166 -15 71.499z" />
    <glyph glyph-name="guillemotright" unicode="&#xbb;" horiz-adv-x="444" 
d="M337 270l-102 104v54l136 -135v-46l-136 -135v54zM189 270l-102 104v54l136 -135v-46l-136 -135v54z" />
    <glyph glyph-name="onequarter" unicode="&#xbc;" horiz-adv-x="972" 
d="M799 422h34v-285h89v-28h-89v-109h-34v109h-245v33zM799 382l-211 -245h211v245zM176 655c-20.667 -17.333 -44 -30.167 -70 -38.5s-51 -13.833 -75 -16.5v28c12 0.666992 25.5 3 40.5 7s29.5 9.5 43.5 16.5s26.833 15.167 38.5 24.5s20.167 20 25.5 32h31v-422h-34v369z
M660 719.999h40l-457 -736h-40z" />
    <glyph glyph-name="onehalf" unicode="&#xbd;" horiz-adv-x="972" 
d="M660 720h40l-457 -736h-40zM176 655c-20.667 -17.333 -44 -30.167 -70 -38.5s-51 -13.833 -75 -16.5v28c12 0.666992 25.5 3 40.5 7s29.5 9.5 43.5 16.5s26.833 15.167 38.5 24.5s20.167 20 25.5 32h31v-422h-34v369zM909 -0.000976562l-345.002 -0.00195312
c2.66699 22 7.33398 40.333 14.001 55s16 27.667 28 39s26.667 22 44 32s38 21.333 62 34l64 33.5c18.667 9.66699 34.5 19.667 47.5 30s23 21.833 30 34.5s10.5 28 10.5 46c0 17.333 -3.66699 32 -11 44s-16.666 21.667 -27.999 29s-24.333 12.666 -39 15.999
s-29.334 5 -44.001 5c-48 0 -82.667 -11.167 -104 -33.5s-32 -51.5 -32 -87.5h-34c0 52 14.167 89.833 42.5 113.5s70.833 35.5 127.5 35.5c19.333 0 38.333 -2.16699 57 -6.5s35.334 -11.333 50.001 -21s26.5 -22.167 35.5 -37.5s13.5 -34.333 13.5 -57
c0 -20.667 -3.66699 -38.5 -11 -53.5s-18 -28.667 -32 -41s-31.333 -24.166 -52 -35.499s-44 -23.333 -70 -36c-34.667 -17.333 -64 -34.166 -88 -50.499s-39.667 -36.166 -47 -59.499h311v-28z" />
    <glyph glyph-name="threequarters" unicode="&#xbe;" horiz-adv-x="972" 
d="M799 424h34v-287h89v-28h-89v-109h-34v109h-245v33zM799 384l-211 -247h211v247zM730 720h40l-457 -736h-40zM207 528c13.333 0 28.832 0.5 46.499 1.5s34.5 4 50.5 9s29.5 13 40.5 24s16.5 26.5 16.5 46.5c0 16.667 -3.83301 30.334 -11.5 41.001
s-17.5 19.167 -29.5 25.5s-25.167 10.666 -39.5 12.999s-28.166 3.5 -41.499 3.5c-18.667 0 -36.334 -2 -53.001 -6s-31.334 -10.5 -44.001 -19.5s-22.667 -20.833 -30 -35.5s-11 -32.334 -11 -53.001h-34c0.666992 26 5.33398 48.167 14.001 66.5s20.667 33 36 44
s33.833 19 55.5 24s45.834 7.5 72.501 7.5c16 0 32.833 -1.66699 50.5 -5s33.834 -9.33301 48.501 -18s26.834 -20 36.501 -34s14.5 -32 14.5 -54c0 -31.333 -9.83301 -53.666 -29.5 -66.999s-43.5 -21.666 -71.5 -24.999v-2c32 0 58.833 -9.66699 80.5 -29
s32.5 -47 32.5 -83c0 -26 -5.33301 -47.333 -16 -64s-24.5 -29.834 -41.5 -39.501s-36.167 -16.334 -57.5 -20.001s-42.333 -5.5 -63 -5.5c-24.667 0 -47.667 2.66699 -69 8s-39.833 14 -55.5 26s-28 27.833 -37 47.5s-13.5 43.834 -13.5 72.501h34c0 -24 4 -44 12 -60
s18.833 -29 32.5 -39s29.334 -17 47.001 -21s36.5 -6 56.5 -6c15.333 0 31.166 1.66699 47.499 5s31.166 9 44.499 17s24.166 18.5 32.499 31.5s12.5 29.167 12.5 48.5c0 23.333 -5.66699 41.5 -17 54.5s-25.333 22.5 -42 28.5s-34.667 9.66699 -54 11s-37 2 -53 2v28z" />
    <glyph glyph-name="questiondown" unicode="&#xbf;" horiz-adv-x="441" 
d="M205 369h49v-82h-49v82zM226 -154c-26 0 -50.1709 2.66895 -72.5039 8.00195s-41.666 13.833 -57.999 25.5s-29.166 26.167 -38.499 43.5s-14 38 -14 62c0 15.333 1.83301 29 5.5 41s9.33398 23.167 17.001 33.5s17.334 20.5 29.001 30.5s25.834 20.333 42.501 31
l35 23.5c9.33301 6.33301 16.5 12.666 21.5 18.999s8.5 13 10.5 20s3 16.167 3 27.5v29h45v-21c0 -17.333 -1.5 -31.833 -4.5 -43.5s-8 -22 -15 -31s-16.167 -17.833 -27.5 -26.5s-25 -18.334 -41 -29.001c-15.333 -10.667 -28 -19.834 -38 -27.501
s-17.833 -15.334 -23.5 -23.001s-9.5 -15.5 -11.5 -23.5s-3 -17.333 -3 -28c0 -18 3.83301 -33.333 11.5 -46s17.667 -23 30 -31s26.666 -14 42.999 -18s33.166 -6 50.499 -6c46.667 0 82.5 10.333 107.5 31s37.5 56 37.5 106h44c0 -31.333 -4.66699 -58.166 -14 -80.499
s-22.166 -40.666 -38.499 -54.999s-36 -24.833 -59 -31.5s-47.833 -10 -74.5 -10z" />
    <glyph glyph-name="Agrave" unicode="&#xc0;" horiz-adv-x="686" 
d="M-11 0l328 714h52l328 -714h-52l-105 230h-394l-105 -230h-52zM343 662l-179 -392h358zM363 755l-78 61h58l65 -61h-45z" />
    <glyph glyph-name="Aacute" unicode="&#xc1;" horiz-adv-x="686" 
d="M-11 0l328 714h52l328 -714h-52l-105 230h-394l-105 -230h-52zM343 662l-179 -392h358zM335 816h58l-70 -61h-45z" />
    <glyph glyph-name="Acircumflex" unicode="&#xc2;" horiz-adv-x="686" 
d="M-11 0l328 714h52l328 -714h-52l-105 230h-394l-105 -230h-52zM343 662l-179 -392h358zM526 755h-53l-130 114l-130 -114h-53l155 142h56z" />
    <glyph glyph-name="Atilde" unicode="&#xc3;" horiz-adv-x="686" 
d="M-11 0l328 714h52l328 -714h-52l-105 230h-394l-105 -230h-52zM343 662l-179 -392h358zM169 778c2.66699 22 12.333 42.166 29 60.499s38.334 27.5 65.001 27.5c16 0 31.167 -2.66699 45.5 -8s28.166 -11.666 41.499 -18.999s26.333 -13.666 39 -18.999s25.667 -8 39 -8
c10 0 18.333 1.83301 25 5.5s12 8.33398 16 14.001s7 11.5 9 17.5s3.66699 11.667 5 17h34c-3.33301 -24 -12.333 -44.333 -27 -61c-7.33301 -8 -15.833 -14.5 -25.5 -19.5s-20.834 -7.5 -33.501 -7.5c-17.333 0 -33.5 2.66699 -48.5 8s-29.167 11.666 -42.5 18.999
s-26.5 13.666 -39.5 18.999s-26.5 8 -40.5 8c-16 0 -29.167 -5.5 -39.5 -16.5s-16.166 -23.5 -17.499 -37.5h-34z" />
    <glyph glyph-name="Adieresis" unicode="&#xc4;" horiz-adv-x="686" 
d="M-11 0l328 714h52l328 -714h-52l-105 230h-394l-105 -230h-52zM343 662l-179 -392h358zM214 760v106h46v-106h-46zM426 760v106h46v-106h-46z" />
    <glyph glyph-name="Aring" unicode="&#xc5;" horiz-adv-x="686" 
d="M-11 0l328 714h52l328 -714h-52l-105 230h-394l-105 -230h-52zM343 662l-179 -392h358zM233 840c0 15.333 2.83301 29.666 8.5 42.999s13.5 25 23.5 35s21.667 17.833 35 23.5s27.666 8.5 42.999 8.5s29.666 -2.83301 42.999 -8.5s25 -13.5 35 -23.5
s17.833 -21.667 23.5 -35s8.5 -27.666 8.5 -42.999s-2.83301 -29.666 -8.5 -42.999s-13.5 -25 -23.5 -35s-21.667 -17.833 -35 -23.5s-27.666 -8.5 -42.999 -8.5s-29.666 2.83301 -42.999 8.5s-25 13.5 -35 23.5s-17.833 21.667 -23.5 35s-8.5 27.666 -8.5 42.999zM267 840
c0 -21.333 7.33301 -39.333 22 -54s32.667 -22 54 -22s39.333 7.33301 54 22s22 32.667 22 54s-7.33301 39.333 -22 54s-32.667 22 -54 22s-39.333 -7.33301 -54 -22s-22 -32.667 -22 -54z" />
    <glyph glyph-name="AE" unicode="&#xc6;" horiz-adv-x="1056" 
d="M-33 0l464 714h601v-40h-472v-284h451v-40h-451v-310h478v-40h-524v257h-326l-166 -257h-55zM457 674l-243 -377h300v377h-57z" />
    <glyph glyph-name="Ccedilla" unicode="&#xc7;" horiz-adv-x="796" 
d="M760 271c-4 -34 -14.3291 -67.8369 -30.9961 -101.504s-39.5 -64.167 -68.5 -91.5s-64.167 -49.666 -105.5 -66.999s-88.333 -26.333 -141 -27l-36 -39l2 -2c18.667 4 33.334 6 44.001 6c10 0 20 -1.33301 30 -4s19.167 -6.5 27.5 -11.5s15 -11.5 20 -19.5
s7.5 -17.333 7.5 -28c0 -14 -3.5 -25.833 -10.5 -35.5s-15.833 -17.5 -26.5 -23.5s-22.667 -10.333 -36 -13s-26 -4 -38 -4c-16.667 0 -35.5 1.83301 -56.5 5.5s-39.167 7.83398 -54.5 12.501l10 28c12 -4.66699 26.833 -8.83398 44.5 -12.501s32.834 -5.5 45.501 -5.5
c4.66699 0 11.5 0.166992 20.5 0.5s18 2 27 5s17 7.5 24 13.5s10.5 14.667 10.5 26c0 8 -2 14.333 -6 19s-9 8.5 -15 11.5s-12.667 5 -20 6s-14 1.5 -20 1.5c-14.667 0 -26.334 -1.16699 -35.001 -3.5s-16.667 -5.16602 -24 -8.49902l-17 15l51 61
c-51.333 2.66699 -98.5 13 -141.5 31s-80.333 42.833 -112 74.5s-56.334 69.834 -74.001 114.501s-26.5 95.334 -26.5 152.001c0 43.333 7.5 87.166 22.5 131.499s38 84.333 69 120s70.5 64.834 118.5 87.501s104.667 34 170 34c42.667 0 82.667 -5 120 -15
s70.666 -25 99.999 -45s54.166 -45 74.499 -75s35.166 -65 44.499 -105h-46c-8.66699 34 -22.5 63.667 -41.5 89s-41.5 46.166 -67.5 62.499s-54.667 28.5 -86 36.5s-64 12 -98 12c-51.333 0 -97.5 -8.83301 -138.5 -26.5s-76 -41.834 -105 -72.501
s-51.333 -66.167 -67 -106.5s-23.5 -82.833 -23.5 -127.5s7.16699 -87.167 21.5 -127.5s35.5 -75.666 63.5 -105.999s62.833 -54.5 104.5 -72.5s89.834 -27 144.501 -27c39.333 0 76.166 5.66699 110.499 17s64.666 27.5 90.999 48.5s48.5 46.833 66.5 77.5
s30.333 65.334 37 104.001h46z" />
    <glyph glyph-name="Egrave" unicode="&#xc8;" horiz-adv-x="648" 
d="M60 0v714h564v-40h-518v-284h497v-40h-497v-310h524v-40h-570zM344 755l-78 61h58l65 -61h-45z" />
    <glyph glyph-name="Eacute" unicode="&#xc9;" horiz-adv-x="648" 
d="M60 0v714h564v-40h-518v-284h497v-40h-497v-310h524v-40h-570zM316 816h58l-70 -61h-45z" />
    <glyph glyph-name="Ecircumflex" unicode="&#xca;" horiz-adv-x="648" 
d="M60 0v714h564v-40h-518v-284h497v-40h-497v-310h524v-40h-570zM507 755h-53l-130 114l-130 -114h-53l155 142h56z" />
    <glyph glyph-name="Edieresis" unicode="&#xcb;" horiz-adv-x="648" 
d="M60 0v714h564v-40h-518v-284h497v-40h-497v-310h524v-40h-570zM195 760v106h46v-106h-46zM407 760v106h46v-106h-46z" />
    <glyph glyph-name="Igrave" unicode="&#xcc;" 
d="M60 0v714h46v-714h-46zM103 755l-78 61h58l65 -61h-45z" />
    <glyph glyph-name="Iacute" unicode="&#xcd;" 
d="M60 0v714h46v-714h-46zM75 816h58l-70 -61h-45z" />
    <glyph glyph-name="Icircumflex" unicode="&#xce;" 
d="M60 0v714h46v-714h-46zM266 755h-53l-130 114l-130 -114h-53l155 142h56z" />
    <glyph glyph-name="Idieresis" unicode="&#xcf;" 
d="M60 0v714h46v-714h-46zM-46 760v106h46v-106h-46zM166 760v106h46v-106h-46z" />
    <glyph glyph-name="Eth" unicode="&#xd0;" horiz-adv-x="759" 
d="M60 350l-60.002 -0.000976562v40h60v324h334c42 0 82.333 -5.66699 121 -17s72.834 -30.666 102.501 -57.999s53.167 -64 70.5 -110s26 -103.333 26 -172c0 -52 -6.66699 -100 -20 -144s-33.5 -81.667 -60.5 -113s-61.167 -55.833 -102.5 -73.5
s-89.666 -26.5 -144.999 -26.5h-326v350zM105.998 389.999h266.002v-40h-266v-310h289c39.333 0 75.666 6.16699 108.999 18.5s62.166 31.5 86.499 57.5s43.333 58.833 57 98.5s20.5 87.167 20.5 142.5c0 56.667 -6.83301 105 -20.5 145s-33 72.667 -58 98s-55 44 -90 56
s-73.5 18 -115.5 18h-278v-284z" />
    <glyph glyph-name="Ntilde" unicode="&#xd1;" horiz-adv-x="759" 
d="M60 0v714h58l533 -650h2v650h46v-714h-58l-533 650h-2v-650h-46zM206 778c2.66699 22 12.333 42.166 29 60.499s38.334 27.5 65.001 27.5c16 0 31.167 -2.66699 45.5 -8s28.166 -11.666 41.499 -18.999s26.333 -13.666 39 -18.999s25.667 -8 39 -8
c10 0 18.333 1.83301 25 5.5s12 8.33398 16 14.001s7 11.5 9 17.5s3.66699 11.667 5 17h34c-3.33301 -24 -12.333 -44.333 -27 -61c-7.33301 -8 -15.833 -14.5 -25.5 -19.5s-20.834 -7.5 -33.501 -7.5c-17.333 0 -33.5 2.66699 -48.5 8s-29.167 11.666 -42.5 18.999
s-26.5 13.666 -39.5 18.999s-26.5 8 -40.5 8c-16 0 -29.167 -5.5 -39.5 -16.5s-16.166 -23.5 -17.499 -37.5h-34z" />
    <glyph glyph-name="Ograve" unicode="&#xd2;" horiz-adv-x="816" 
d="M75 357c0 -42.667 7.33301 -84 22 -124s36 -75.5 64 -106.5s62.667 -55.833 104 -74.5s89 -28 143 -28s101.667 9.33301 143 28s76 43.5 104 74.5s49.333 66.5 64 106.5s22 81.333 22 124s-7.33301 84 -22 124s-36 75.5 -64 106.5s-62.667 55.833 -104 74.5
s-89 28 -143 28s-101.667 -9.33301 -143 -28s-76 -43.5 -104 -74.5s-49.333 -66.5 -64 -106.5s-22 -81.333 -22 -124zM29 357c0 23.333 2.66699 48.666 8 75.999s14 54.833 26 82.5s27.667 54.334 47 80.001s43 48.5 71 68.5s60.667 36 98 48s80.333 18 129 18
c48 0 90.833 -6 128.5 -18s70.5 -28 98.5 -48s51.667 -42.833 71 -68.5s35 -52.334 47 -80.001s20.667 -55.167 26 -82.5s8 -52.666 8 -75.999s-2.66699 -48.666 -8 -75.999s-14 -54.833 -26 -82.5s-27.667 -54.334 -47 -80.001s-43 -48.5 -71 -68.5s-60.833 -36 -98.5 -48
s-80.5 -18 -128.5 -18s-90.833 6 -128.5 18s-70.5 28 -98.5 48s-51.667 42.833 -71 68.5s-35 52.334 -47 80.001s-20.667 55.167 -26 82.5s-8 52.666 -8 75.999zM428 755l-78 61h58l65 -61h-45z" />
    <glyph glyph-name="Oacute" unicode="&#xd3;" horiz-adv-x="816" 
d="M75 357c0 -42.667 7.33301 -84 22 -124s36 -75.5 64 -106.5s62.667 -55.833 104 -74.5s89 -28 143 -28s101.667 9.33301 143 28s76 43.5 104 74.5s49.333 66.5 64 106.5s22 81.333 22 124s-7.33301 84 -22 124s-36 75.5 -64 106.5s-62.667 55.833 -104 74.5
s-89 28 -143 28s-101.667 -9.33301 -143 -28s-76 -43.5 -104 -74.5s-49.333 -66.5 -64 -106.5s-22 -81.333 -22 -124zM29 357c0 23.333 2.66699 48.666 8 75.999s14 54.833 26 82.5s27.667 54.334 47 80.001s43 48.5 71 68.5s60.667 36 98 48s80.333 18 129 18
c48 0 90.833 -6 128.5 -18s70.5 -28 98.5 -48s51.667 -42.833 71 -68.5s35 -52.334 47 -80.001s20.667 -55.167 26 -82.5s8 -52.666 8 -75.999s-2.66699 -48.666 -8 -75.999s-14 -54.833 -26 -82.5s-27.667 -54.334 -47 -80.001s-43 -48.5 -71 -68.5s-60.833 -36 -98.5 -48
s-80.5 -18 -128.5 -18s-90.833 6 -128.5 18s-70.5 28 -98.5 48s-51.667 42.833 -71 68.5s-35 52.334 -47 80.001s-20.667 55.167 -26 82.5s-8 52.666 -8 75.999zM400 816h58l-70 -61h-45z" />
    <glyph glyph-name="Ocircumflex" unicode="&#xd4;" horiz-adv-x="816" 
d="M75 357c0 -42.667 7.33301 -84 22 -124s36 -75.5 64 -106.5s62.667 -55.833 104 -74.5s89 -28 143 -28s101.667 9.33301 143 28s76 43.5 104 74.5s49.333 66.5 64 106.5s22 81.333 22 124s-7.33301 84 -22 124s-36 75.5 -64 106.5s-62.667 55.833 -104 74.5
s-89 28 -143 28s-101.667 -9.33301 -143 -28s-76 -43.5 -104 -74.5s-49.333 -66.5 -64 -106.5s-22 -81.333 -22 -124zM29 357c0 23.333 2.66699 48.666 8 75.999s14 54.833 26 82.5s27.667 54.334 47 80.001s43 48.5 71 68.5s60.667 36 98 48s80.333 18 129 18
c48 0 90.833 -6 128.5 -18s70.5 -28 98.5 -48s51.667 -42.833 71 -68.5s35 -52.334 47 -80.001s20.667 -55.167 26 -82.5s8 -52.666 8 -75.999s-2.66699 -48.666 -8 -75.999s-14 -54.833 -26 -82.5s-27.667 -54.334 -47 -80.001s-43 -48.5 -71 -68.5s-60.833 -36 -98.5 -48
s-80.5 -18 -128.5 -18s-90.833 6 -128.5 18s-70.5 28 -98.5 48s-51.667 42.833 -71 68.5s-35 52.334 -47 80.001s-20.667 55.167 -26 82.5s-8 52.666 -8 75.999zM591 755h-53l-130 114l-130 -114h-53l155 142h56z" />
    <glyph glyph-name="Otilde" unicode="&#xd5;" horiz-adv-x="816" 
d="M75 357c0 -42.667 7.33301 -84 22 -124s36 -75.5 64 -106.5s62.667 -55.833 104 -74.5s89 -28 143 -28s101.667 9.33301 143 28s76 43.5 104 74.5s49.333 66.5 64 106.5s22 81.333 22 124s-7.33301 84 -22 124s-36 75.5 -64 106.5s-62.667 55.833 -104 74.5
s-89 28 -143 28s-101.667 -9.33301 -143 -28s-76 -43.5 -104 -74.5s-49.333 -66.5 -64 -106.5s-22 -81.333 -22 -124zM29 357c0 23.333 2.66699 48.666 8 75.999s14 54.833 26 82.5s27.667 54.334 47 80.001s43 48.5 71 68.5s60.667 36 98 48s80.333 18 129 18
c48 0 90.833 -6 128.5 -18s70.5 -28 98.5 -48s51.667 -42.833 71 -68.5s35 -52.334 47 -80.001s20.667 -55.167 26 -82.5s8 -52.666 8 -75.999s-2.66699 -48.666 -8 -75.999s-14 -54.833 -26 -82.5s-27.667 -54.334 -47 -80.001s-43 -48.5 -71 -68.5s-60.833 -36 -98.5 -48
s-80.5 -18 -128.5 -18s-90.833 6 -128.5 18s-70.5 28 -98.5 48s-51.667 42.833 -71 68.5s-35 52.334 -47 80.001s-20.667 55.167 -26 82.5s-8 52.666 -8 75.999zM234 778c2.66699 22 12.333 42.166 29 60.499s38.334 27.5 65.001 27.5c16 0 31.167 -2.66699 45.5 -8
s28.166 -11.666 41.499 -18.999s26.333 -13.666 39 -18.999s25.667 -8 39 -8c10 0 18.333 1.83301 25 5.5s12 8.33398 16 14.001s7 11.5 9 17.5s3.66699 11.667 5 17h34c-3.33301 -24 -12.333 -44.333 -27 -61c-7.33301 -8 -15.833 -14.5 -25.5 -19.5
s-20.834 -7.5 -33.501 -7.5c-17.333 0 -33.5 2.66699 -48.5 8s-29.167 11.666 -42.5 18.999s-26.5 13.666 -39.5 18.999s-26.5 8 -40.5 8c-16 0 -29.167 -5.5 -39.5 -16.5s-16.166 -23.5 -17.499 -37.5h-34z" />
    <glyph glyph-name="Odieresis" unicode="&#xd6;" horiz-adv-x="816" 
d="M75 357c0 -42.667 7.33301 -84 22 -124s36 -75.5 64 -106.5s62.667 -55.833 104 -74.5s89 -28 143 -28s101.667 9.33301 143 28s76 43.5 104 74.5s49.333 66.5 64 106.5s22 81.333 22 124s-7.33301 84 -22 124s-36 75.5 -64 106.5s-62.667 55.833 -104 74.5
s-89 28 -143 28s-101.667 -9.33301 -143 -28s-76 -43.5 -104 -74.5s-49.333 -66.5 -64 -106.5s-22 -81.333 -22 -124zM29 357c0 23.333 2.66699 48.666 8 75.999s14 54.833 26 82.5s27.667 54.334 47 80.001s43 48.5 71 68.5s60.667 36 98 48s80.333 18 129 18
c48 0 90.833 -6 128.5 -18s70.5 -28 98.5 -48s51.667 -42.833 71 -68.5s35 -52.334 47 -80.001s20.667 -55.167 26 -82.5s8 -52.666 8 -75.999s-2.66699 -48.666 -8 -75.999s-14 -54.833 -26 -82.5s-27.667 -54.334 -47 -80.001s-43 -48.5 -71 -68.5s-60.833 -36 -98.5 -48
s-80.5 -18 -128.5 -18s-90.833 6 -128.5 18s-70.5 28 -98.5 48s-51.667 42.833 -71 68.5s-35 52.334 -47 80.001s-20.667 55.167 -26 82.5s-8 52.666 -8 75.999zM279 760v106h46v-106h-46zM491 760v106h46v-106h-46z" />
    <glyph glyph-name="multiply" unicode="&#xd7;" horiz-adv-x="420" 
d="M346 14l-136 136l-137 -136l-26 27l136 136l-136 137l26 27l137 -137l136 137l27 -27l-136 -137l136 -136z" />
    <glyph glyph-name="Oslash" unicode="&#xd8;" horiz-adv-x="816" 
d="M126 99c-18 20 -33.168 40.998 -45.501 62.998s-22.333 44.333 -30 67s-13.167 44.834 -16.5 66.501s-5 42.167 -5 61.5c0 23.333 2.66699 48.666 8 75.999s14 54.833 26 82.5s27.667 54.334 47 80.001s43 48.5 71 68.5s60.667 36 98 48s80.333 18 129 18
c58.667 0 109.167 -8.5 151.5 -25.5s78.5 -39.5 108.5 -67.5l93 93l22 -22l-94 -93c18 -19.333 33.167 -40.166 45.5 -62.499s22.333 -44.833 30 -67.5s13.334 -45 17.001 -67s5.5 -42.333 5.5 -61c0 -23.333 -2.66699 -48.666 -8 -75.999s-14 -54.833 -26 -82.5
s-27.667 -54.334 -47 -80.001s-43 -48.5 -71 -68.5s-60.833 -36 -98.5 -48s-80.5 -18 -128.5 -18c-58.667 0 -109.167 8.33301 -151.5 25s-78.5 39 -108.5 67l-93 -92l-22 22zM635.999 605.998c-28 25.333 -60.832 45.667 -98.499 61s-80.834 23 -129.501 23
c-54 0 -101.667 -9.33301 -143 -28s-76 -43.5 -104 -74.5s-49.333 -66.5 -64 -106.5s-22 -81.333 -22 -124c0 -42 6.83301 -82.667 20.5 -122s34.5 -74 62.5 -104zM180 107.999c28 -26 61 -46.5 99 -61.5s81 -22.5 129 -22.5c54 0 101.667 9.33301 143 28s76 43.5 104 74.5
s49.333 66.5 64 106.5s22 81.333 22 124c0 42 -6.83301 82.333 -20.5 121s-34.5 74 -62.5 106z" />
    <glyph glyph-name="Ugrave" unicode="&#xd9;" horiz-adv-x="740" 
d="M54 714h46.0039v-448c0 -38 4.83301 -72 14.5 -102s25.167 -55.333 46.5 -76s49.166 -36.5 83.499 -47.5s76.166 -16.5 125.499 -16.5s91.166 5.5 125.499 16.5s62.166 26.833 83.499 47.5s36.833 46 46.5 76s14.5 64 14.5 102v448h46v-450
c0 -186.667 -105.333 -280 -316 -280s-316 93.333 -316 280v450zM390.004 755l-78 61h58l65 -61h-45z" />
    <glyph glyph-name="Uacute" unicode="&#xda;" horiz-adv-x="740" 
d="M54 714h46.0039v-448c0 -38 4.83301 -72 14.5 -102s25.167 -55.333 46.5 -76s49.166 -36.5 83.499 -47.5s76.166 -16.5 125.499 -16.5s91.166 5.5 125.499 16.5s62.166 26.833 83.499 47.5s36.833 46 46.5 76s14.5 64 14.5 102v448h46v-450
c0 -186.667 -105.333 -280 -316 -280s-316 93.333 -316 280v450zM362.004 816h58l-70 -61h-45z" />
    <glyph glyph-name="Ucircumflex" unicode="&#xdb;" horiz-adv-x="740" 
d="M54 714h46.0039v-448c0 -38 4.83301 -72 14.5 -102s25.167 -55.333 46.5 -76s49.166 -36.5 83.499 -47.5s76.166 -16.5 125.499 -16.5s91.166 5.5 125.499 16.5s62.166 26.833 83.499 47.5s36.833 46 46.5 76s14.5 64 14.5 102v448h46v-450
c0 -186.667 -105.333 -280 -316 -280s-316 93.333 -316 280v450zM553.004 755h-53l-130 114l-130 -114h-53l155 142h56z" />
    <glyph glyph-name="Udieresis" unicode="&#xdc;" horiz-adv-x="740" 
d="M54 714h46.0039v-448c0 -38 4.83301 -72 14.5 -102s25.167 -55.333 46.5 -76s49.166 -36.5 83.499 -47.5s76.166 -16.5 125.499 -16.5s91.166 5.5 125.499 16.5s62.166 26.833 83.499 47.5s36.833 46 46.5 76s14.5 64 14.5 102v448h46v-450
c0 -186.667 -105.333 -280 -316 -280s-316 93.333 -316 280v450zM241.004 760v106h46v-106h-46zM453.004 760v106h46v-106h-46z" />
    <glyph glyph-name="Yacute" unicode="&#xdd;" horiz-adv-x="668" 
d="M311 300l-331 414h64l290 -371l296 371h58l-331 -414v-300h-46v300zM326 816h58l-70 -61h-45z" />
    <glyph glyph-name="Thorn" unicode="&#xde;" horiz-adv-x="667" 
d="M60 714l45.999 0.00195312v-150h326c24.667 0 50 -2.66699 76 -8s49.333 -15.333 70 -30s37.667 -34.834 51 -60.501s20 -58.834 20 -99.501c0 -30 -4.33301 -57.333 -13 -82s-22.167 -46 -40.5 -64s-41.666 -31.833 -69.999 -41.5s-61.833 -14.5 -100.5 -14.5h-319v-164
h-46v714zM105.999 204.002h318c22 0 43.667 2.5 65 7.5s40.5 13.5 57.5 25.5s30.667 28.333 41 49s15.5 46.667 15.5 78c0 40 -7 70.833 -21 92.5s-31 37.5 -51 47.5s-40.833 15.833 -62.5 17.5s-40.167 2.5 -55.5 2.5h-307v-320z" />
    <glyph glyph-name="germandbls" unicode="&#xdf;" horiz-adv-x="593" 
d="M56 0l-0.0078125 521.996c0 36.667 5.5 68 16.5 94s26.5 47.333 46.5 64s44.333 28.834 73 36.501s60.667 11.5 96 11.5c34 0 65.833 -3 95.5 -9s55.334 -16 77.001 -30s38.834 -32.167 51.501 -54.5s19 -49.833 19 -82.5c0 -15.333 -2.16699 -31 -6.5 -47
s-12 -31.167 -23 -45.5s-25.5 -26.833 -43.5 -37.5s-41 -18 -69 -22v-2c60 -4 104.667 -23.667 134 -59s44 -80 44 -134c0 -29.333 -4.83301 -57.166 -14.5 -83.499s-24.5 -49.166 -44.5 -68.499s-45 -34.666 -75 -45.999s-65 -17 -105 -17c-38.667 0 -65 3.33301 -79 10v40
c6 -2 16.167 -4.16699 30.5 -6.5s31.5 -3.5 51.5 -3.5c24.667 0 48.334 3 71.001 9s42.834 16 60.501 30s31.834 32.833 42.501 56.5s16 53.167 16 88.5c0 29.333 -5.16699 54.333 -15.5 75s-25.166 37.334 -44.499 50.001s-42.833 21.834 -70.5 27.501s-58.5 8.5 -92.5 8.5
h-37v40h30c29.333 0 56 2.66699 80 8s44.5 13.666 61.5 24.999s30 25.5 39 42.5s13.5 37.5 13.5 61.5c0 12 -2.16699 25.833 -6.5 41.5s-13.333 30.5 -27 44.5s-33.167 25.833 -58.5 35.5s-58.666 14.5 -99.999 14.5c-35.333 0 -65.166 -3.83301 -89.499 -11.5
s-44 -18.834 -59 -33.501s-25.833 -32.167 -32.5 -52.5s-10 -42.833 -10 -67.5v-523h-46z" />
    <glyph glyph-name="agrave" unicode="&#xe0;" horiz-adv-x="593" 
d="M476 286l-1.99902 -0.00195312c-5.33301 -6 -14.833 -11.667 -28.5 -17s-31.5 -8.66602 -53.5 -9.99902l-173 -12c-21.333 -1.33301 -41 -4.16602 -59 -8.49902s-33.5 -10.666 -46.5 -18.999s-23.167 -19 -30.5 -32s-11 -28.833 -11 -47.5
c0 -26 5.83301 -46.667 17.5 -62s26 -27 43 -35s35.167 -13.167 54.5 -15.5s36.666 -3.5 51.999 -3.5c25.333 0 52 3 80 9s53.667 15.667 77 29s42.5 30.666 57.5 51.999s22.5 47.333 22.5 78v94zM49.001 353.998c4 32 11.4971 59.165 22.4971 81.498s26 40.333 45 54
s42.5 23.5 70.5 29.5s61.333 9 100 9c36.667 0 69.667 -2.5 99 -7.5s54 -13.167 74 -24.5s35.333 -26.666 46 -45.999s16 -43.333 16 -72v-287c0 -19.333 1.33301 -34.333 4 -45s12.667 -16 30 -16c12.667 0 27.667 2.66699 45 8v-40c-16 -5.33301 -34.667 -8 -56 -8
c-16 0 -28.167 2.66699 -36.5 8s-14.5 12.833 -18.5 22.5s-6.33301 21.334 -7 35.001s-1 29.167 -1 46.5h-2c-14 -26 -31.5 -46.833 -52.5 -62.5s-42.833 -27.667 -65.5 -36s-45.167 -13.666 -67.5 -15.999s-41.833 -3.5 -58.5 -3.5
c-7.33301 0 -17.666 0.166992 -30.999 0.5s-27.666 2 -42.999 5s-31.166 7.66699 -47.499 14s-31 15.333 -44 27s-23.667 26.334 -32 44.001s-12.5 39.5 -12.5 65.5s5.16699 48 15.5 66s24.333 32.667 42 44s38.167 19.833 61.5 25.5s48 9.5 74 11.5l179 12
c13.333 0.666992 24.833 2 34.5 4s17.834 5.5 24.501 10.5s11.5 12.167 14.5 21.5s4.5 21.666 4.5 36.999c0 17.333 -2.83301 33.166 -8.5 47.499s-15.667 26.5 -30 36.5s-33.666 17.833 -57.999 23.5s-55.5 8.5 -93.5 8.5c-34 0 -62.333 -2.66699 -85 -8
s-41.334 -13.5 -56.001 -24.5s-25.834 -25 -33.501 -42s-13.167 -36.833 -16.5 -59.5h-46zM286.998 592.996l-78 61h58l65 -61h-45z" />
    <glyph glyph-name="aacute" unicode="&#xe1;" horiz-adv-x="593" 
d="M476 286l-1.99902 -0.00195312c-5.33301 -6 -14.833 -11.667 -28.5 -17s-31.5 -8.66602 -53.5 -9.99902l-173 -12c-21.333 -1.33301 -41 -4.16602 -59 -8.49902s-33.5 -10.666 -46.5 -18.999s-23.167 -19 -30.5 -32s-11 -28.833 -11 -47.5
c0 -26 5.83301 -46.667 17.5 -62s26 -27 43 -35s35.167 -13.167 54.5 -15.5s36.666 -3.5 51.999 -3.5c25.333 0 52 3 80 9s53.667 15.667 77 29s42.5 30.666 57.5 51.999s22.5 47.333 22.5 78v94zM49.001 353.998c4 32 11.4971 59.165 22.4971 81.498s26 40.333 45 54
s42.5 23.5 70.5 29.5s61.333 9 100 9c36.667 0 69.667 -2.5 99 -7.5s54 -13.167 74 -24.5s35.333 -26.666 46 -45.999s16 -43.333 16 -72v-287c0 -19.333 1.33301 -34.333 4 -45s12.667 -16 30 -16c12.667 0 27.667 2.66699 45 8v-40c-16 -5.33301 -34.667 -8 -56 -8
c-16 0 -28.167 2.66699 -36.5 8s-14.5 12.833 -18.5 22.5s-6.33301 21.334 -7 35.001s-1 29.167 -1 46.5h-2c-14 -26 -31.5 -46.833 -52.5 -62.5s-42.833 -27.667 -65.5 -36s-45.167 -13.666 -67.5 -15.999s-41.833 -3.5 -58.5 -3.5
c-7.33301 0 -17.666 0.166992 -30.999 0.5s-27.666 2 -42.999 5s-31.166 7.66699 -47.499 14s-31 15.333 -44 27s-23.667 26.334 -32 44.001s-12.5 39.5 -12.5 65.5s5.16699 48 15.5 66s24.333 32.667 42 44s38.167 19.833 61.5 25.5s48 9.5 74 11.5l179 12
c13.333 0.666992 24.833 2 34.5 4s17.834 5.5 24.501 10.5s11.5 12.167 14.5 21.5s4.5 21.666 4.5 36.999c0 17.333 -2.83301 33.166 -8.5 47.499s-15.667 26.5 -30 36.5s-33.666 17.833 -57.999 23.5s-55.5 8.5 -93.5 8.5c-34 0 -62.333 -2.66699 -85 -8
s-41.334 -13.5 -56.001 -24.5s-25.834 -25 -33.501 -42s-13.167 -36.833 -16.5 -59.5h-46zM328.998 653.996h58l-70 -61h-45z" />
    <glyph glyph-name="acircumflex" unicode="&#xe2;" horiz-adv-x="593" 
d="M476 286l-1.99902 -0.00195312c-5.33301 -6 -14.833 -11.667 -28.5 -17s-31.5 -8.66602 -53.5 -9.99902l-173 -12c-21.333 -1.33301 -41 -4.16602 -59 -8.49902s-33.5 -10.666 -46.5 -18.999s-23.167 -19 -30.5 -32s-11 -28.833 -11 -47.5
c0 -26 5.83301 -46.667 17.5 -62s26 -27 43 -35s35.167 -13.167 54.5 -15.5s36.666 -3.5 51.999 -3.5c25.333 0 52 3 80 9s53.667 15.667 77 29s42.5 30.666 57.5 51.999s22.5 47.333 22.5 78v94zM49.001 353.998c4 32 11.4971 59.165 22.4971 81.498s26 40.333 45 54
s42.5 23.5 70.5 29.5s61.333 9 100 9c36.667 0 69.667 -2.5 99 -7.5s54 -13.167 74 -24.5s35.333 -26.666 46 -45.999s16 -43.333 16 -72v-287c0 -19.333 1.33301 -34.333 4 -45s12.667 -16 30 -16c12.667 0 27.667 2.66699 45 8v-40c-16 -5.33301 -34.667 -8 -56 -8
c-16 0 -28.167 2.66699 -36.5 8s-14.5 12.833 -18.5 22.5s-6.33301 21.334 -7 35.001s-1 29.167 -1 46.5h-2c-14 -26 -31.5 -46.833 -52.5 -62.5s-42.833 -27.667 -65.5 -36s-45.167 -13.666 -67.5 -15.999s-41.833 -3.5 -58.5 -3.5
c-7.33301 0 -17.666 0.166992 -30.999 0.5s-27.666 2 -42.999 5s-31.166 7.66699 -47.499 14s-31 15.333 -44 27s-23.667 26.334 -32 44.001s-12.5 39.5 -12.5 65.5s5.16699 48 15.5 66s24.333 32.667 42 44s38.167 19.833 61.5 25.5s48 9.5 74 11.5l179 12
c13.333 0.666992 24.833 2 34.5 4s17.834 5.5 24.501 10.5s11.5 12.167 14.5 21.5s4.5 21.666 4.5 36.999c0 17.333 -2.83301 33.166 -8.5 47.499s-15.667 26.5 -30 36.5s-33.666 17.833 -57.999 23.5s-55.5 8.5 -93.5 8.5c-34 0 -62.333 -2.66699 -85 -8
s-41.334 -13.5 -56.001 -24.5s-25.834 -25 -33.501 -42s-13.167 -36.833 -16.5 -59.5h-46zM479.998 592.996h-53l-130 114l-130 -114h-53l155 142h56z" />
    <glyph glyph-name="atilde" unicode="&#xe3;" horiz-adv-x="593" 
d="M476 286l-1.99902 -0.00195312c-5.33301 -6 -14.833 -11.667 -28.5 -17s-31.5 -8.66602 -53.5 -9.99902l-173 -12c-21.333 -1.33301 -41 -4.16602 -59 -8.49902s-33.5 -10.666 -46.5 -18.999s-23.167 -19 -30.5 -32s-11 -28.833 -11 -47.5
c0 -26 5.83301 -46.667 17.5 -62s26 -27 43 -35s35.167 -13.167 54.5 -15.5s36.666 -3.5 51.999 -3.5c25.333 0 52 3 80 9s53.667 15.667 77 29s42.5 30.666 57.5 51.999s22.5 47.333 22.5 78v94zM49.001 353.998c4 32 11.4971 59.165 22.4971 81.498s26 40.333 45 54
s42.5 23.5 70.5 29.5s61.333 9 100 9c36.667 0 69.667 -2.5 99 -7.5s54 -13.167 74 -24.5s35.333 -26.666 46 -45.999s16 -43.333 16 -72v-287c0 -19.333 1.33301 -34.333 4 -45s12.667 -16 30 -16c12.667 0 27.667 2.66699 45 8v-40c-16 -5.33301 -34.667 -8 -56 -8
c-16 0 -28.167 2.66699 -36.5 8s-14.5 12.833 -18.5 22.5s-6.33301 21.334 -7 35.001s-1 29.167 -1 46.5h-2c-14 -26 -31.5 -46.833 -52.5 -62.5s-42.833 -27.667 -65.5 -36s-45.167 -13.666 -67.5 -15.999s-41.833 -3.5 -58.5 -3.5
c-7.33301 0 -17.666 0.166992 -30.999 0.5s-27.666 2 -42.999 5s-31.166 7.66699 -47.499 14s-31 15.333 -44 27s-23.667 26.334 -32 44.001s-12.5 39.5 -12.5 65.5s5.16699 48 15.5 66s24.333 32.667 42 44s38.167 19.833 61.5 25.5s48 9.5 74 11.5l179 12
c13.333 0.666992 24.833 2 34.5 4s17.834 5.5 24.501 10.5s11.5 12.167 14.5 21.5s4.5 21.666 4.5 36.999c0 17.333 -2.83301 33.166 -8.5 47.499s-15.667 26.5 -30 36.5s-33.666 17.833 -57.999 23.5s-55.5 8.5 -93.5 8.5c-34 0 -62.333 -2.66699 -85 -8
s-41.334 -13.5 -56.001 -24.5s-25.834 -25 -33.501 -42s-13.167 -36.833 -16.5 -59.5h-46zM122.998 615.996c2.66699 22 12.333 42.166 29 60.499s38.334 27.5 65.001 27.5c16 0 31.167 -2.66699 45.5 -8s28.166 -11.666 41.499 -18.999s26.333 -13.666 39 -18.999
s25.667 -8 39 -8c10 0 18.333 1.83301 25 5.5s12 8.33398 16 14.001s7 11.5 9 17.5s3.66699 11.667 5 17h34c-3.33301 -24 -12.333 -44.333 -27 -61c-7.33301 -8 -15.833 -14.5 -25.5 -19.5s-20.834 -7.5 -33.501 -7.5c-17.333 0 -33.5 2.66699 -48.5 8
s-29.167 11.666 -42.5 18.999s-26.5 13.666 -39.5 18.999s-26.5 8 -40.5 8c-16 0 -29.167 -5.5 -39.5 -16.5s-16.166 -23.5 -17.499 -37.5h-34z" />
    <glyph glyph-name="adieresis" unicode="&#xe4;" horiz-adv-x="593" 
d="M476 286l-1.99902 -0.00195312c-5.33301 -6 -14.833 -11.667 -28.5 -17s-31.5 -8.66602 -53.5 -9.99902l-173 -12c-21.333 -1.33301 -41 -4.16602 -59 -8.49902s-33.5 -10.666 -46.5 -18.999s-23.167 -19 -30.5 -32s-11 -28.833 -11 -47.5
c0 -26 5.83301 -46.667 17.5 -62s26 -27 43 -35s35.167 -13.167 54.5 -15.5s36.666 -3.5 51.999 -3.5c25.333 0 52 3 80 9s53.667 15.667 77 29s42.5 30.666 57.5 51.999s22.5 47.333 22.5 78v94zM49.001 353.998c4 32 11.4971 59.165 22.4971 81.498s26 40.333 45 54
s42.5 23.5 70.5 29.5s61.333 9 100 9c36.667 0 69.667 -2.5 99 -7.5s54 -13.167 74 -24.5s35.333 -26.666 46 -45.999s16 -43.333 16 -72v-287c0 -19.333 1.33301 -34.333 4 -45s12.667 -16 30 -16c12.667 0 27.667 2.66699 45 8v-40c-16 -5.33301 -34.667 -8 -56 -8
c-16 0 -28.167 2.66699 -36.5 8s-14.5 12.833 -18.5 22.5s-6.33301 21.334 -7 35.001s-1 29.167 -1 46.5h-2c-14 -26 -31.5 -46.833 -52.5 -62.5s-42.833 -27.667 -65.5 -36s-45.167 -13.666 -67.5 -15.999s-41.833 -3.5 -58.5 -3.5
c-7.33301 0 -17.666 0.166992 -30.999 0.5s-27.666 2 -42.999 5s-31.166 7.66699 -47.499 14s-31 15.333 -44 27s-23.667 26.334 -32 44.001s-12.5 39.5 -12.5 65.5s5.16699 48 15.5 66s24.333 32.667 42 44s38.167 19.833 61.5 25.5s48 9.5 74 11.5l179 12
c13.333 0.666992 24.833 2 34.5 4s17.834 5.5 24.501 10.5s11.5 12.167 14.5 21.5s4.5 21.666 4.5 36.999c0 17.333 -2.83301 33.166 -8.5 47.499s-15.667 26.5 -30 36.5s-33.666 17.833 -57.999 23.5s-55.5 8.5 -93.5 8.5c-34 0 -62.333 -2.66699 -85 -8
s-41.334 -13.5 -56.001 -24.5s-25.834 -25 -33.501 -42s-13.167 -36.833 -16.5 -59.5h-46zM167.998 597.996v106h46v-106h-46zM379.998 597.996v106h46v-106h-46z" />
    <glyph glyph-name="aring" unicode="&#xe5;" horiz-adv-x="593" 
d="M476 286l-1.99902 -0.00195312c-5.33301 -6 -14.833 -11.667 -28.5 -17s-31.5 -8.66602 -53.5 -9.99902l-173 -12c-21.333 -1.33301 -41 -4.16602 -59 -8.49902s-33.5 -10.666 -46.5 -18.999s-23.167 -19 -30.5 -32s-11 -28.833 -11 -47.5
c0 -26 5.83301 -46.667 17.5 -62s26 -27 43 -35s35.167 -13.167 54.5 -15.5s36.666 -3.5 51.999 -3.5c25.333 0 52 3 80 9s53.667 15.667 77 29s42.5 30.666 57.5 51.999s22.5 47.333 22.5 78v94zM49.001 353.998c4 32 11.4971 59.165 22.4971 81.498s26 40.333 45 54
s42.5 23.5 70.5 29.5s61.333 9 100 9c36.667 0 69.667 -2.5 99 -7.5s54 -13.167 74 -24.5s35.333 -26.666 46 -45.999s16 -43.333 16 -72v-287c0 -19.333 1.33301 -34.333 4 -45s12.667 -16 30 -16c12.667 0 27.667 2.66699 45 8v-40c-16 -5.33301 -34.667 -8 -56 -8
c-16 0 -28.167 2.66699 -36.5 8s-14.5 12.833 -18.5 22.5s-6.33301 21.334 -7 35.001s-1 29.167 -1 46.5h-2c-14 -26 -31.5 -46.833 -52.5 -62.5s-42.833 -27.667 -65.5 -36s-45.167 -13.666 -67.5 -15.999s-41.833 -3.5 -58.5 -3.5
c-7.33301 0 -17.666 0.166992 -30.999 0.5s-27.666 2 -42.999 5s-31.166 7.66699 -47.499 14s-31 15.333 -44 27s-23.667 26.334 -32 44.001s-12.5 39.5 -12.5 65.5s5.16699 48 15.5 66s24.333 32.667 42 44s38.167 19.833 61.5 25.5s48 9.5 74 11.5l179 12
c13.333 0.666992 24.833 2 34.5 4s17.834 5.5 24.501 10.5s11.5 12.167 14.5 21.5s4.5 21.666 4.5 36.999c0 17.333 -2.83301 33.166 -8.5 47.499s-15.667 26.5 -30 36.5s-33.666 17.833 -57.999 23.5s-55.5 8.5 -93.5 8.5c-34 0 -62.333 -2.66699 -85 -8
s-41.334 -13.5 -56.001 -24.5s-25.834 -25 -33.501 -42s-13.167 -36.833 -16.5 -59.5h-46zM186.998 677.996c0 15.333 2.83301 29.666 8.5 42.999s13.5 25 23.5 35s21.667 17.833 35 23.5s27.666 8.5 42.999 8.5s29.666 -2.83301 42.999 -8.5s25 -13.5 35 -23.5
s17.833 -21.667 23.5 -35s8.5 -27.666 8.5 -42.999s-2.83301 -29.666 -8.5 -42.999s-13.5 -25 -23.5 -35s-21.667 -17.833 -35 -23.5s-27.666 -8.5 -42.999 -8.5s-29.666 2.83301 -42.999 8.5s-25 13.5 -35 23.5s-17.833 21.667 -23.5 35s-8.5 27.666 -8.5 42.999z
M220.998 677.996c0 -21.333 7.33301 -39.333 22 -54s32.667 -22 54 -22s39.333 7.33301 54 22s22 32.667 22 54s-7.33301 39.333 -22 54s-32.667 22 -54 22s-39.333 -7.33301 -54 -22s-22 -32.667 -22 -54z" />
    <glyph glyph-name="ae" unicode="&#xe6;" horiz-adv-x="1055" 
d="M516 246c0.666992 -32 6.49512 -61.4961 17.4951 -88.4961s26.833 -50.5 47.5 -70.5s46 -35.5 76 -46.5s64.333 -16.5 103 -16.5c40 0 73 5.5 99 16.5s47 24.167 63 39.5s28.167 31.333 36.5 48s14.833 30.667 19.5 42h46c-21.333 -64.667 -54.333 -111.834 -99 -141.501
s-101.334 -44.5 -170.001 -44.5c-25.333 0 -50.833 2.5 -76.5 7.5s-50 13.5 -73 25.5s-43.667 28.167 -62 48.5s-32.833 45.5 -43.5 75.5h-2c-13.333 -46.667 -42.333 -84.5 -87 -113.5s-103 -43.5 -175 -43.5c-7.33301 0 -17.666 0.166992 -30.999 0.5s-27.666 2 -42.999 5
s-31.166 7.66699 -47.499 14s-31 15.333 -44 27s-23.667 26.334 -32 44.001s-12.5 39.5 -12.5 65.5s5.16699 48 15.5 66s24.333 32.667 42 44s38.167 19.833 61.5 25.5s48 9.5 74 11.5l179 12c13.333 0.666992 24.833 2 34.5 4s17.834 5.5 24.501 10.5
s11.5 12.167 14.5 21.5s4.5 21.666 4.5 36.999c0 17.333 -2.83301 33.166 -8.5 47.499s-15.667 26.5 -30 36.5s-33.666 17.833 -57.999 23.5s-55.5 8.5 -93.5 8.5c-34 0 -62.333 -2.66699 -85 -8s-41.334 -13.5 -56.001 -24.5s-25.834 -25 -33.501 -42
s-13.167 -36.833 -16.5 -59.5h-46c4 32 11.5 59.167 22.5 81.5s26 40.333 45 54s42.5 23.5 70.5 29.5s61.333 9 100 9c28.667 0 56.167 -1.66699 82.5 -5s49.833 -10 70.5 -20s37.667 -23.833 51 -41.5s21.666 -40.834 24.999 -69.501h2
c16.667 42 45.834 75.167 87.501 99.5s91.834 36.5 150.501 36.5c44.667 0 84.334 -7 119.001 -21s64 -33.5 88 -58.5s42.333 -54.833 55 -89.5s19.334 -72.334 20.001 -113.001h-522zM985.995 286.004c-4.66699 34.667 -14.001 64.833 -28.001 90.5s-31.5 46.667 -52.5 63
s-44.667 28.5 -71 36.5s-54.166 12 -83.499 12c-66.667 0 -120 -18.167 -160 -54.5s-65 -85.5 -75 -147.5h470zM475.994 286.003l-1.99902 -0.00195312c-5.33301 -6 -14.833 -11.667 -28.5 -17s-31.5 -8.66602 -53.5 -9.99902l-173 -12
c-21.333 -1.33301 -41 -4.16602 -59 -8.49902s-33.5 -10.666 -46.5 -18.999s-23.167 -19 -30.5 -32s-11 -28.833 -11 -47.5c0 -26 5.83301 -46.667 17.5 -62s26 -27 43 -35s35.167 -13.167 54.5 -15.5s36.666 -3.5 51.999 -3.5c25.333 0 52 3 80 9s53.667 15.667 77 29
s42.5 30.666 57.5 51.999s22.5 47.333 22.5 78v94z" />
    <glyph glyph-name="ccedilla" unicode="&#xe7;" horiz-adv-x="611" 
d="M585 179c-6.66699 -32.667 -18.1719 -61.002 -34.5049 -85.002s-36.166 -44 -59.499 -60s-49.333 -28 -78 -36s-59 -12.333 -91 -13l-36 -40l2 -2c18.667 4 33.334 6 44.001 6c10 0 20 -1.33301 30 -4s19.167 -6.5 27.5 -11.5s15 -11.5 20 -19.5s7.5 -17.333 7.5 -28
c0 -14 -3.5 -25.833 -10.5 -35.5s-15.833 -17.5 -26.5 -23.5s-22.667 -10.333 -36 -13s-26 -4 -38 -4c-16.667 0 -35.5 1.83301 -56.5 5.5s-39.167 7.83398 -54.5 12.501l10 28c12 -4.66699 26.833 -8.83398 44.5 -12.501s32.834 -5.5 45.501 -5.5
c4.66699 0 11.5 0.166992 20.5 0.5s18 2 27 5s17 7.5 24 13.5s10.5 14.667 10.5 26c0 8 -2 14.333 -6 19s-9 8.5 -15 11.5s-12.667 5 -20 6s-14 1.5 -20 1.5c-14.667 0 -26.334 -1.16699 -35.001 -3.5s-16.667 -5.16602 -24 -8.49902l-17 15l51 62
c-39.333 2 -75.166 9.83301 -107.499 23.5s-60.166 32.167 -83.499 55.5s-41.5 50.833 -54.5 82.5s-19.5 66.167 -19.5 103.5c0 44.667 7.66699 84.334 23 119.001s36.166 63.667 62.499 87s57 41 92 53s72.167 18 111.5 18c38.667 0 74 -5.16699 106 -15.5
s59.333 -23.833 82 -40.5s40.5 -35.5 53.5 -56.5s20.167 -42.5 21.5 -64.5h-46c-1.33301 16 -7.66602 32.167 -18.999 48.5s-26.5 31 -45.5 44s-41.5 23.667 -67.5 32s-54.333 12.5 -85 12.5c-40.667 0 -76.167 -6.66699 -106.5 -20s-55.666 -31 -75.999 -53
s-35.5 -47.167 -45.5 -75.5s-15 -57.833 -15 -88.5c0 -20.667 4 -44.167 12 -70.5s21.333 -51 40 -74s43.667 -42.5 75 -58.5s70 -24 116 -24c26 0 51.167 3.16699 75.5 9.5s46.5 15.833 66.5 28.5s37.167 28.667 51.5 48s24.5 42.333 30.5 69h46z" />
    <glyph glyph-name="egrave" unicode="&#xe8;" horiz-adv-x="611" 
d="M72 246c0.666992 -32 6.49805 -61.498 17.498 -88.498s26.833 -50.5 47.5 -70.5s46 -35.5 76 -46.5s64.333 -16.5 103 -16.5c40 0 73 5.5 99 16.5s47 24.167 63 39.5s28.167 31.333 36.5 48s14.833 30.667 19.5 42h46c-21.333 -64.667 -54.333 -111.834 -99 -141.501
s-101.334 -44.5 -170.001 -44.5c-44 0 -83.5 6.33301 -118.5 19s-64.833 31 -89.5 55s-43.667 53 -57 87s-20 72.333 -20 115c0 26.667 4.66699 55.667 14 87s25 60.333 47 87s51.333 49 88 67s82.334 27 137.001 27c44.667 0 84.334 -7 119.001 -21s64 -33.5 88 -58.5
s42.333 -54.833 55 -89.5s19.334 -72.334 20.001 -113.001h-522zM541.998 286.002c-4.66699 34.667 -14.001 64.833 -28.001 90.5s-31.5 46.667 -52.5 63s-44.667 28.5 -71 36.5s-54.166 12 -83.499 12c-66.667 0 -120 -18.167 -160 -54.5s-65 -85.5 -75 -147.5h470z
M305.997 593.001l-78 61h58l65 -61h-45z" />
    <glyph glyph-name="eacute" unicode="&#xe9;" horiz-adv-x="611" 
d="M72 246c0.666992 -32 6.49805 -61.498 17.498 -88.498s26.833 -50.5 47.5 -70.5s46 -35.5 76 -46.5s64.333 -16.5 103 -16.5c40 0 73 5.5 99 16.5s47 24.167 63 39.5s28.167 31.333 36.5 48s14.833 30.667 19.5 42h46c-21.333 -64.667 -54.333 -111.834 -99 -141.501
s-101.334 -44.5 -170.001 -44.5c-44 0 -83.5 6.33301 -118.5 19s-64.833 31 -89.5 55s-43.667 53 -57 87s-20 72.333 -20 115c0 26.667 4.66699 55.667 14 87s25 60.333 47 87s51.333 49 88 67s82.334 27 137.001 27c44.667 0 84.334 -7 119.001 -21s64 -33.5 88 -58.5
s42.333 -54.833 55 -89.5s19.334 -72.334 20.001 -113.001h-522zM541.998 286.002c-4.66699 34.667 -14.001 64.833 -28.001 90.5s-31.5 46.667 -52.5 63s-44.667 28.5 -71 36.5s-54.166 12 -83.499 12c-66.667 0 -120 -18.167 -160 -54.5s-65 -85.5 -75 -147.5h470z
M337.997 654.001h58l-70 -61h-45z" />
    <glyph glyph-name="ecircumflex" unicode="&#xea;" horiz-adv-x="611" 
d="M72 246c0.666992 -32 6.49805 -61.498 17.498 -88.498s26.833 -50.5 47.5 -70.5s46 -35.5 76 -46.5s64.333 -16.5 103 -16.5c40 0 73 5.5 99 16.5s47 24.167 63 39.5s28.167 31.333 36.5 48s14.833 30.667 19.5 42h46c-21.333 -64.667 -54.333 -111.834 -99 -141.501
s-101.334 -44.5 -170.001 -44.5c-44 0 -83.5 6.33301 -118.5 19s-64.833 31 -89.5 55s-43.667 53 -57 87s-20 72.333 -20 115c0 26.667 4.66699 55.667 14 87s25 60.333 47 87s51.333 49 88 67s82.334 27 137.001 27c44.667 0 84.334 -7 119.001 -21s64 -33.5 88 -58.5
s42.333 -54.833 55 -89.5s19.334 -72.334 20.001 -113.001h-522zM541.998 286.002c-4.66699 34.667 -14.001 64.833 -28.001 90.5s-31.5 46.667 -52.5 63s-44.667 28.5 -71 36.5s-54.166 12 -83.499 12c-66.667 0 -120 -18.167 -160 -54.5s-65 -85.5 -75 -147.5h470z
M488.997 593.001h-53l-130 114l-130 -114h-53l155 142h56z" />
    <glyph glyph-name="edieresis" unicode="&#xeb;" horiz-adv-x="611" 
d="M72 246c0.666992 -32 6.49805 -61.498 17.498 -88.498s26.833 -50.5 47.5 -70.5s46 -35.5 76 -46.5s64.333 -16.5 103 -16.5c40 0 73 5.5 99 16.5s47 24.167 63 39.5s28.167 31.333 36.5 48s14.833 30.667 19.5 42h46c-21.333 -64.667 -54.333 -111.834 -99 -141.501
s-101.334 -44.5 -170.001 -44.5c-44 0 -83.5 6.33301 -118.5 19s-64.833 31 -89.5 55s-43.667 53 -57 87s-20 72.333 -20 115c0 26.667 4.66699 55.667 14 87s25 60.333 47 87s51.333 49 88 67s82.334 27 137.001 27c44.667 0 84.334 -7 119.001 -21s64 -33.5 88 -58.5
s42.333 -54.833 55 -89.5s19.334 -72.334 20.001 -113.001h-522zM541.998 286.002c-4.66699 34.667 -14.001 64.833 -28.001 90.5s-31.5 46.667 -52.5 63s-44.667 28.5 -71 36.5s-54.166 12 -83.499 12c-66.667 0 -120 -18.167 -160 -54.5s-65 -85.5 -75 -147.5h470z
M176.997 598.001v106h46v-106h-46zM388.997 598.001v106h46v-106h-46z" />
    <glyph glyph-name="igrave" unicode="&#xec;" 
d="M60 0v512h46v-512h-46zM66 593l-78 61h58l65 -61h-45z" />
    <glyph glyph-name="iacute" unicode="&#xed;" 
d="M60 0v512h46v-512h-46zM115 654h58l-70 -61h-45z" />
    <glyph glyph-name="icircumflex" unicode="&#xee;" 
d="M60 0v512h46v-512h-46zM266 593h-53l-130 114l-130 -114h-53l155 142h56z" />
    <glyph glyph-name="idieresis" unicode="&#xef;" 
d="M60 0v512h46v-512h-46zM-46 598v106h46v-106h-46zM166 598v106h46v-106h-46z" />
    <glyph glyph-name="eth" unicode="&#xf0;" horiz-adv-x="630" 
d="M72 256c0 -29.333 5 -57.833 15 -85.5s25.167 -52.334 45.5 -74.001s45.666 -39.167 75.999 -52.5s65.833 -20 106.5 -20s76.167 6.66699 106.5 20s55.666 30.833 75.999 52.5s35.5 46.334 45.5 74.001s15 56.167 15 85.5c0 28.667 -5 57 -15 85
s-25.167 52.833 -45.5 74.5s-45.666 39.167 -75.999 52.5s-65.833 20 -106.5 20s-76.167 -6.66699 -106.5 -20s-55.666 -30.833 -75.999 -52.5s-35.5 -46.5 -45.5 -74.5s-15 -56.333 -15 -85zM26 256c0 36 6.33789 70.333 19.0049 103s31 61.5 55 86.5s53.167 45 87.5 60
s73.166 22.5 116.499 22.5c47.333 0 91.666 -8.66699 132.999 -26s77 -48.666 107 -93.999l2 2c-20 43.333 -42.333 81.833 -67 115.5s-52.167 63 -82.5 88s-64.5 46.333 -102.5 64s-80.333 32.5 -127 44.5l27 31c58.667 -14.667 113.167 -36.5 163.5 -65.5
s93.666 -64.333 129.999 -106s64.833 -88.834 85.5 -141.501s31 -110 31 -172c0 -41.333 -6.5 -79.5 -19.5 -114.5s-31.833 -65 -56.5 -90s-54.834 -44.5 -90.501 -58.5s-76.5 -21 -122.5 -21s-86.833 7.33301 -122.5 22s-65.834 34.5 -90.501 59.5s-43.5 54 -56.5 87
s-19.5 67.5 -19.5 103.5zM486.005 730l-268 -133l-27 20l272 136z" />
    <glyph glyph-name="ntilde" unicode="&#xf1;" horiz-adv-x="611" 
d="M56 512l45.998 0.00390625v-102h2c8 15.333 18.333 30 31 44s27.834 26.5 45.501 37.5s38 19.833 61 26.5s49.167 10 78.5 10c39.333 0 72.333 -3.83301 99 -11.5s48.667 -17.667 66 -30s30.833 -26.166 40.5 -41.499s16.667 -30.833 21 -46.5
s6.83301 -30.834 7.5 -45.501s1 -27 1 -37v-316h-46v314c0 26 -2.83301 49.667 -8.5 71s-15.667 39.666 -30 54.999s-33.666 27.166 -57.999 35.499s-55.5 12.5 -93.5 12.5s-70.667 -5.33301 -98 -16s-49.833 -24.834 -67.5 -42.501s-30.667 -37.834 -39 -60.501
s-12.5 -46 -12.5 -70v-299h-46v512zM131.998 616.004c2.66699 22 12.333 42.166 29 60.499s38.334 27.5 65.001 27.5c16 0 31.167 -2.66699 45.5 -8s28.166 -11.666 41.499 -18.999s26.333 -13.666 39 -18.999s25.667 -8 39 -8c10 0 18.333 1.83301 25 5.5
s12 8.33398 16 14.001s7 11.5 9 17.5s3.66699 11.667 5 17h34c-3.33301 -24 -12.333 -44.333 -27 -61c-7.33301 -8 -15.833 -14.5 -25.5 -19.5s-20.834 -7.5 -33.501 -7.5c-17.333 0 -33.5 2.66699 -48.5 8s-29.167 11.666 -42.5 18.999s-26.5 13.666 -39.5 18.999
s-26.5 8 -40.5 8c-16 0 -29.167 -5.5 -39.5 -16.5s-16.166 -23.5 -17.499 -37.5h-34z" />
    <glyph glyph-name="ograve" unicode="&#xf2;" horiz-adv-x="630" 
d="M72 256c0 -29.333 5 -57.833 15 -85.5s25.167 -52.334 45.5 -74.001s45.666 -39.167 75.999 -52.5s65.833 -20 106.5 -20s76.167 6.66699 106.5 20s55.666 30.833 75.999 52.5s35.5 46.334 45.5 74.001s15 56.167 15 85.5c0 28.667 -5 57 -15 85
s-25.167 52.833 -45.5 74.5s-45.666 39.167 -75.999 52.5s-65.833 20 -106.5 20s-76.167 -6.66699 -106.5 -20s-55.666 -30.833 -75.999 -52.5s-35.5 -46.5 -45.5 -74.5s-15 -56.333 -15 -85zM26 256c0 36 6.5 70.333 19.5 103s31.833 61.5 56.5 86.5s54.834 45 90.501 60
s76.5 22.5 122.5 22.5s86.833 -7.5 122.5 -22.5s65.834 -35 90.501 -60s43.5 -53.833 56.5 -86.5s19.5 -67 19.5 -103s-6.5 -70.5 -19.5 -103.5s-31.833 -62 -56.5 -87s-54.834 -44.833 -90.501 -59.5s-76.5 -22 -122.5 -22s-86.833 7.33301 -122.5 22
s-65.834 34.5 -90.501 59.5s-43.5 54 -56.5 87s-19.5 67.5 -19.5 103.5zM325 593l-78 61h58l65 -61h-45z" />
    <glyph glyph-name="oacute" unicode="&#xf3;" horiz-adv-x="630" 
d="M72 256c0 -29.333 5 -57.833 15 -85.5s25.167 -52.334 45.5 -74.001s45.666 -39.167 75.999 -52.5s65.833 -20 106.5 -20s76.167 6.66699 106.5 20s55.666 30.833 75.999 52.5s35.5 46.334 45.5 74.001s15 56.167 15 85.5c0 28.667 -5 57 -15 85
s-25.167 52.833 -45.5 74.5s-45.666 39.167 -75.999 52.5s-65.833 20 -106.5 20s-76.167 -6.66699 -106.5 -20s-55.666 -30.833 -75.999 -52.5s-35.5 -46.5 -45.5 -74.5s-15 -56.333 -15 -85zM26 256c0 36 6.5 70.333 19.5 103s31.833 61.5 56.5 86.5s54.834 45 90.501 60
s76.5 22.5 122.5 22.5s86.833 -7.5 122.5 -22.5s65.834 -35 90.501 -60s43.5 -53.833 56.5 -86.5s19.5 -67 19.5 -103s-6.5 -70.5 -19.5 -103.5s-31.833 -62 -56.5 -87s-54.834 -44.833 -90.501 -59.5s-76.5 -22 -122.5 -22s-86.833 7.33301 -122.5 22
s-65.834 34.5 -90.501 59.5s-43.5 54 -56.5 87s-19.5 67.5 -19.5 103.5zM367 654h58l-70 -61h-45z" />
    <glyph glyph-name="ocircumflex" unicode="&#xf4;" horiz-adv-x="630" 
d="M72 256c0 -29.333 5 -57.833 15 -85.5s25.167 -52.334 45.5 -74.001s45.666 -39.167 75.999 -52.5s65.833 -20 106.5 -20s76.167 6.66699 106.5 20s55.666 30.833 75.999 52.5s35.5 46.334 45.5 74.001s15 56.167 15 85.5c0 28.667 -5 57 -15 85
s-25.167 52.833 -45.5 74.5s-45.666 39.167 -75.999 52.5s-65.833 20 -106.5 20s-76.167 -6.66699 -106.5 -20s-55.666 -30.833 -75.999 -52.5s-35.5 -46.5 -45.5 -74.5s-15 -56.333 -15 -85zM26 256c0 36 6.5 70.333 19.5 103s31.833 61.5 56.5 86.5s54.834 45 90.501 60
s76.5 22.5 122.5 22.5s86.833 -7.5 122.5 -22.5s65.834 -35 90.501 -60s43.5 -53.833 56.5 -86.5s19.5 -67 19.5 -103s-6.5 -70.5 -19.5 -103.5s-31.833 -62 -56.5 -87s-54.834 -44.833 -90.501 -59.5s-76.5 -22 -122.5 -22s-86.833 7.33301 -122.5 22
s-65.834 34.5 -90.501 59.5s-43.5 54 -56.5 87s-19.5 67.5 -19.5 103.5zM498 593h-53l-130 114l-130 -114h-53l155 142h56z" />
    <glyph glyph-name="otilde" unicode="&#xf5;" horiz-adv-x="630" 
d="M72 256c0 -29.333 5 -57.833 15 -85.5s25.167 -52.334 45.5 -74.001s45.666 -39.167 75.999 -52.5s65.833 -20 106.5 -20s76.167 6.66699 106.5 20s55.666 30.833 75.999 52.5s35.5 46.334 45.5 74.001s15 56.167 15 85.5c0 28.667 -5 57 -15 85
s-25.167 52.833 -45.5 74.5s-45.666 39.167 -75.999 52.5s-65.833 20 -106.5 20s-76.167 -6.66699 -106.5 -20s-55.666 -30.833 -75.999 -52.5s-35.5 -46.5 -45.5 -74.5s-15 -56.333 -15 -85zM26 256c0 36 6.5 70.333 19.5 103s31.833 61.5 56.5 86.5s54.834 45 90.501 60
s76.5 22.5 122.5 22.5s86.833 -7.5 122.5 -22.5s65.834 -35 90.501 -60s43.5 -53.833 56.5 -86.5s19.5 -67 19.5 -103s-6.5 -70.5 -19.5 -103.5s-31.833 -62 -56.5 -87s-54.834 -44.833 -90.501 -59.5s-76.5 -22 -122.5 -22s-86.833 7.33301 -122.5 22
s-65.834 34.5 -90.501 59.5s-43.5 54 -56.5 87s-19.5 67.5 -19.5 103.5zM141 616c2.66699 22 12.333 42.166 29 60.499s38.334 27.5 65.001 27.5c16 0 31.167 -2.66699 45.5 -8s28.166 -11.666 41.499 -18.999s26.333 -13.666 39 -18.999s25.667 -8 39 -8
c10 0 18.333 1.83301 25 5.5s12 8.33398 16 14.001s7 11.5 9 17.5s3.66699 11.667 5 17h34c-3.33301 -24 -12.333 -44.333 -27 -61c-7.33301 -8 -15.833 -14.5 -25.5 -19.5s-20.834 -7.5 -33.501 -7.5c-17.333 0 -33.5 2.66699 -48.5 8s-29.167 11.666 -42.5 18.999
s-26.5 13.666 -39.5 18.999s-26.5 8 -40.5 8c-16 0 -29.167 -5.5 -39.5 -16.5s-16.166 -23.5 -17.499 -37.5h-34z" />
    <glyph glyph-name="odieresis" unicode="&#xf6;" horiz-adv-x="630" 
d="M72 256c0 -29.333 5 -57.833 15 -85.5s25.167 -52.334 45.5 -74.001s45.666 -39.167 75.999 -52.5s65.833 -20 106.5 -20s76.167 6.66699 106.5 20s55.666 30.833 75.999 52.5s35.5 46.334 45.5 74.001s15 56.167 15 85.5c0 28.667 -5 57 -15 85
s-25.167 52.833 -45.5 74.5s-45.666 39.167 -75.999 52.5s-65.833 20 -106.5 20s-76.167 -6.66699 -106.5 -20s-55.666 -30.833 -75.999 -52.5s-35.5 -46.5 -45.5 -74.5s-15 -56.333 -15 -85zM26 256c0 36 6.5 70.333 19.5 103s31.833 61.5 56.5 86.5s54.834 45 90.501 60
s76.5 22.5 122.5 22.5s86.833 -7.5 122.5 -22.5s65.834 -35 90.501 -60s43.5 -53.833 56.5 -86.5s19.5 -67 19.5 -103s-6.5 -70.5 -19.5 -103.5s-31.833 -62 -56.5 -87s-54.834 -44.833 -90.501 -59.5s-76.5 -22 -122.5 -22s-86.833 7.33301 -122.5 22
s-65.834 34.5 -90.501 59.5s-43.5 54 -56.5 87s-19.5 67.5 -19.5 103.5zM186 598v106h46v-106h-46zM398 598v106h46v-106h-46z" />
    <glyph glyph-name="divide" unicode="&#xf7;" horiz-adv-x="600" 
d="M47 273h506v-40h-506v40zM247 453c0 14.667 5.16699 27.167 15.5 37.5s22.833 15.5 37.5 15.5s27.167 -5.16699 37.5 -15.5s15.5 -22.833 15.5 -37.5s-5.16699 -27.167 -15.5 -37.5s-22.833 -15.5 -37.5 -15.5s-27.167 5.16699 -37.5 15.5s-15.5 22.833 -15.5 37.5z
M247 53c0 14.667 5.16699 27.167 15.5 37.5s22.833 15.5 37.5 15.5s27.167 -5.16699 37.5 -15.5s15.5 -22.833 15.5 -37.5s-5.16699 -27.167 -15.5 -37.5s-22.833 -15.5 -37.5 -15.5s-27.167 5.16699 -37.5 15.5s-15.5 22.833 -15.5 37.5z" />
    <glyph glyph-name="oslash" unicode="&#xf8;" horiz-adv-x="630" 
d="M480 432c-19.333 17.333 -42.668 31 -70.001 41s-59 15 -95 15c-40.667 0 -76.167 -6.66699 -106.5 -20s-55.666 -30.833 -75.999 -52.5s-35.5 -46.5 -45.5 -74.5s-15 -56.333 -15 -85c0 -30 5 -58.5 15 -85.5s24.667 -51.167 44 -72.5zM149.998 80
c20.667 -17.333 44.334 -31.001 71.001 -41.001s58 -15 94 -15c40.667 0 76.167 6.66699 106.5 20s55.666 30.833 75.999 52.5s35.5 46.334 45.5 74.001s15 56.167 15 85.5c0 30 -5 58.5 -15 85.5s-24.667 51.167 -44 72.5zM99.998 67.999
c-24 24.667 -42.335 53.168 -55.002 85.501s-19 66.5 -19 102.5s6.5 70.333 19.5 103s31.833 61.5 56.5 86.5s54.834 45 90.501 60s76.5 22.5 122.5 22.5c40.667 0 77.334 -5.83301 110.001 -17.5s61.334 -27.834 86.001 -48.501l72 69l18 -19l-71 -68
c24 -25.333 42.333 -54 55 -86s19 -66 19 -102s-6.5 -70.5 -19.5 -103.5s-31.833 -62 -56.5 -87s-54.834 -44.833 -90.501 -59.5s-76.5 -22 -122.5 -22c-42 0 -79.333 6 -112 18s-60.667 28 -84 48l-72 -69l-18 19z" />
    <glyph glyph-name="ugrave" unicode="&#xf9;" horiz-adv-x="611" 
d="M555 0l-45.998 -0.00292969v102h-2c-8 -15.333 -18.333 -30 -31 -44s-27.834 -26.5 -45.501 -37.5s-38.167 -19.833 -61.5 -26.5s-49.333 -10 -78 -10c-39.333 0 -72.333 3.83301 -99 11.5s-48.667 17.667 -66 30s-30.833 26.166 -40.5 41.499s-16.667 30.833 -21 46.5
s-6.83301 30.667 -7.5 45s-1 26.833 -1 37.5v316h46v-314c0 -26 2.83301 -49.667 8.5 -71s15.667 -39.666 30 -54.999s33.666 -27.166 57.999 -35.499s55.5 -12.5 93.5 -12.5s70.667 5.33301 98 16s49.833 24.834 67.5 42.501s30.667 37.834 39 60.501s12.5 46 12.5 70v299
h46v-512zM286.002 592.997l-78 61h58l65 -61h-45z" />
    <glyph glyph-name="uacute" unicode="&#xfa;" horiz-adv-x="611" 
d="M555 0l-45.998 -0.00292969v102h-2c-8 -15.333 -18.333 -30 -31 -44s-27.834 -26.5 -45.501 -37.5s-38.167 -19.833 -61.5 -26.5s-49.333 -10 -78 -10c-39.333 0 -72.333 3.83301 -99 11.5s-48.667 17.667 -66 30s-30.833 26.166 -40.5 41.499s-16.667 30.833 -21 46.5
s-6.83301 30.667 -7.5 45s-1 26.833 -1 37.5v316h46v-314c0 -26 2.83301 -49.667 8.5 -71s15.667 -39.666 30 -54.999s33.666 -27.166 57.999 -35.499s55.5 -12.5 93.5 -12.5s70.667 5.33301 98 16s49.833 24.834 67.5 42.501s30.667 37.834 39 60.501s12.5 46 12.5 70v299
h46v-512zM298.002 653.997h58l-70 -61h-45z" />
    <glyph glyph-name="ucircumflex" unicode="&#xfb;" horiz-adv-x="611" 
d="M555 0l-45.998 -0.00292969v102h-2c-8 -15.333 -18.333 -30 -31 -44s-27.834 -26.5 -45.501 -37.5s-38.167 -19.833 -61.5 -26.5s-49.333 -10 -78 -10c-39.333 0 -72.333 3.83301 -99 11.5s-48.667 17.667 -66 30s-30.833 26.166 -40.5 41.499s-16.667 30.833 -21 46.5
s-6.83301 30.667 -7.5 45s-1 26.833 -1 37.5v316h46v-314c0 -26 2.83301 -49.667 8.5 -71s15.667 -39.666 30 -54.999s33.666 -27.166 57.999 -35.499s55.5 -12.5 93.5 -12.5s70.667 5.33301 98 16s49.833 24.834 67.5 42.501s30.667 37.834 39 60.501s12.5 46 12.5 70v299
h46v-512zM489.002 592.997h-53l-130 114l-130 -114h-53l155 142h56z" />
    <glyph glyph-name="udieresis" unicode="&#xfc;" horiz-adv-x="611" 
d="M555 0l-45.998 -0.00292969v102h-2c-8 -15.333 -18.333 -30 -31 -44s-27.834 -26.5 -45.501 -37.5s-38.167 -19.833 -61.5 -26.5s-49.333 -10 -78 -10c-39.333 0 -72.333 3.83301 -99 11.5s-48.667 17.667 -66 30s-30.833 26.166 -40.5 41.499s-16.667 30.833 -21 46.5
s-6.83301 30.667 -7.5 45s-1 26.833 -1 37.5v316h46v-314c0 -26 2.83301 -49.667 8.5 -71s15.667 -39.666 30 -54.999s33.666 -27.166 57.999 -35.499s55.5 -12.5 93.5 -12.5s70.667 5.33301 98 16s49.833 24.834 67.5 42.501s30.667 37.834 39 60.501s12.5 46 12.5 70v299
h46v-512zM177.002 597.997v106h46v-106h-46zM389.002 597.997v106h46v-106h-46z" />
    <glyph glyph-name="yacute" unicode="&#xfd;" horiz-adv-x="519" 
d="M270 214v-214h-44v214l-238 298h60l200 -256l204 256h56zM252 654h58l-70 -61h-45z" />
    <glyph glyph-name="thorn" unicode="&#xfe;" horiz-adv-x="630" 
d="M56 714l46.002 0.000976562v-314h2c6 15.333 15 30.666 27 45.999s27.333 29 46 41s40.667 21.833 66 29.5s54.666 11.5 87.999 11.5c44.667 0 84.167 -7.5 118.5 -22.5s62.833 -35 85.5 -60s39.834 -54 51.501 -87s17.5 -67.5 17.5 -103.5
c0 -40.667 -6.83301 -77.667 -20.5 -111s-32.834 -61.833 -57.501 -85.5s-53.667 -42 -87 -55s-69.333 -19.5 -108 -19.5c-31.333 0 -59.5 3.83301 -84.5 11.5s-46.833 17.667 -65.5 30s-34.334 25.833 -47.001 40.5s-22.667 29 -30 43h-2v-311h-46v916zM336.002 488.001
c-48 0 -87.502 -7.49707 -118.502 -22.4971s-55.5 -33.833 -73.5 -56.5s-30.5 -47.334 -37.5 -74.001s-10.5 -51.334 -10.5 -74.001c0 -45.333 7.33301 -83 22 -113s33.334 -54.333 56.001 -73s47.834 -31.834 75.501 -39.501s54.5 -11.5 80.5 -11.5
c29.333 0 57.833 4.66699 85.5 14s52 23.5 73 42.5s37.833 42.833 50.5 71.5s19 62.667 19 102c0 36.667 -5.66699 69.5 -17 98.5s-26.833 53.5 -46.5 73.5s-43 35.333 -70 46s-56.5 16 -88.5 16z" />
    <glyph glyph-name="ydieresis" unicode="&#xff;" horiz-adv-x="519" 
d="M270 214v-214h-44v214l-238 298h60l200 -256l204 256h56zM131 598v106h46v-106h-46zM343 598v106h46v-106h-46z" />
    <glyph glyph-name="dotlessi" unicode="&#x131;" 
d="M60 0v512h46v-512h-46z" />
    <glyph glyph-name="Lslash" unicode="&#x141;" horiz-adv-x="574" 
d="M60 0v237l-60 -48v46l60 48v431h46v-394l258 208v-46l-258 -208v-234h468v-40h-514z" />
    <glyph glyph-name="lslash" unicode="&#x142;" 
d="M60 0v328l-60 -63v45l60 63v341h46v-293l60 63v-45l-60 -63v-376h-46z" />
    <glyph glyph-name="OE" unicode="&#x152;" horiz-adv-x="1167" 
d="M632 578c0 10 -5.49902 21.499 -16.499 34.499s-26.667 25.333 -47 37s-44.833 21.334 -73.5 29.001s-60.334 11.5 -95.001 11.5c-51.333 0 -97 -8.33301 -137 -25s-73.5 -39.834 -100.5 -69.501s-47.5 -64.667 -61.5 -105s-21 -84.166 -21 -131.499
c0 -42 5.5 -83 16.5 -123s29.167 -75.833 54.5 -107.5s58.333 -57 99 -76s90.667 -28.5 150 -28.5c36.667 0 69.5 4.5 98.5 13.5s53.333 19.667 73 32s34.667 25 45 38s15.5 23.833 15.5 32.5v438zM678.001 39.999l471 0.000976562v-40h-517v76
c-32 -34 -68.167 -57.833 -108.5 -71.5s-82.833 -20.5 -127.5 -20.5c-54.667 0 -104.167 8.5 -148.5 25.5s-82.333 41.5 -114 73.5s-56.167 71.167 -73.5 117.5s-26 99.166 -26 158.499c0 58 9.33301 110 28 156s44.167 84.833 76.5 116.5s70.5 56 114.5 73
s91.667 25.5 143 25.5c44 0 86.333 -6 127 -18s77 -34 109 -66v68h511v-40h-465v-284h444v-40h-444v-310z" />
    <glyph glyph-name="oe" unicode="&#x153;" horiz-adv-x="1074" 
d="M1002 286c-8 66 -30.001 116.167 -66.001 150.5s-87.333 51.5 -154 51.5c-32 0 -61.667 -5.66699 -89 -17s-50.666 -26.5 -69.999 -45.5s-34.5 -40.5 -45.5 -64.5s-16.5 -49 -16.5 -75h441zM1042 165c-6 -28.667 -16.8291 -54.166 -32.4961 -76.499
s-34.834 -41.333 -57.501 -57s-48.5 -27.5 -77.5 -35.5s-59.833 -12 -92.5 -12c-27.333 0 -54 3.16699 -80 9.5s-49.833 16 -71.5 29s-40.5 29.333 -56.5 49s-27.333 43.167 -34 70.5h-2c-20.667 -54 -51.5 -93.833 -92.5 -119.5s-91.833 -38.5 -152.5 -38.5
c-40.667 0 -77.5 6.5 -110.5 19.5s-61 31.333 -84 55s-40.833 52.167 -53.5 85.5s-19 70.666 -19 111.999c0 40 6.66699 76.667 20 110s31.833 62 55.5 86s52.167 42.667 85.5 56s70 20 110 20c58.667 0 109.167 -13 151.5 -39s73.166 -66 92.499 -120h2
c24 56 57.167 96.5 99.5 121.5s88.833 37.5 139.5 37.5c44 0 82.333 -6.83301 115 -20.5s60 -33 82 -58s38.667 -54.833 50 -89.5s17.666 -72.667 18.999 -114h-487c0 -68.667 19.333 -122.834 58 -162.501s93 -59.5 163 -59.5c54.667 0 100.667 11.333 138 34
s62.666 58.334 75.999 107.001h46zM521.003 256.001c0 34.667 -5.00098 66.332 -15.001 94.999s-24.5 53.167 -43.5 73.5s-42.333 36 -70 47s-59.5 16.5 -95.5 16.5c-35.333 0 -66.833 -5.5 -94.5 -16.5s-51.167 -26.667 -70.5 -47s-34.166 -44.833 -44.499 -73.5
s-15.5 -60.334 -15.5 -95.001s5 -66.167 15 -94.5s24.667 -52.666 44 -72.999s42.833 -36.166 70.5 -47.499s59.5 -17 95.5 -17c34.667 0 66 5.5 94 16.5s51.5 26.5 70.5 46.5s33.667 44.333 44 73s15.5 60.667 15.5 96z" />
    <glyph glyph-name="Scaron" unicode="&#x160;" horiz-adv-x="667" 
d="M74 236c0.666992 -66.667 22.4951 -118.672 65.4951 -156.005s112.5 -56 208.5 -56c44 0 81.167 4.33301 111.5 13s55 20.334 74 35.001s32.667 31.5 41 50.5s12.5 39.167 12.5 60.5c0 20 -2.83301 37.5 -8.5 52.5s-15.5 28.167 -29.5 39.5s-33.167 21.333 -57.5 30
s-55.166 17 -92.499 25l-133 28c-39.333 8 -72.666 17.333 -99.999 28s-49.666 23.334 -66.999 38.001s-29.833 31.834 -37.5 51.501s-11.5 42.834 -11.5 69.501s5.83301 51.334 17.5 74.001s28.834 42.167 51.501 58.5s50.834 29.166 84.501 38.499s72.5 14 116.5 14
c44.667 0 85.167 -4.16699 121.5 -12.5s67.5 -21.5 93.5 -39.5s46.167 -40.667 60.5 -68s22.166 -60 23.499 -98h-46c-1.33301 20.667 -5.83301 41.5 -13.5 62.5s-20.5 40 -38.5 57s-42.167 31 -72.5 42s-68.833 16.5 -115.5 16.5c-43.333 0 -79.833 -3.83301 -109.5 -11.5
s-53.5 -18 -71.5 -31s-30.833 -28.333 -38.5 -46s-11.5 -36.834 -11.5 -57.501c0 -19.333 2.5 -36.166 7.5 -50.499s13.667 -27.166 26 -38.499s29.5 -21.166 51.5 -29.499s50 -15.833 84 -22.5l147 -29c36 -7.33301 67.667 -15.833 95 -25.5s50.333 -21.834 69 -36.501
s32.834 -32.167 42.501 -52.5s14.5 -44.833 14.5 -73.5c0 -24 -4.5 -48.167 -13.5 -72.5s-24.5 -46 -46.5 -65s-51.333 -34.5 -88 -46.5s-83 -18 -139 -18c-58.667 0 -108.5 6 -149.5 18s-74.5 29 -100.5 51s-44.833 48.5 -56.5 79.5s-17.5 65.5 -17.5 103.5h46z
M463.995 896.995h53l-155 -142h-56l-155 142h53l130 -114z" />
    <glyph glyph-name="scaron" unicode="&#x161;" horiz-adv-x="537" 
d="M450 362c-3.33301 42.667 -19.8301 74.3281 -49.4971 94.9951s-77.834 31 -144.501 31c-31.333 0 -57.666 -2.83301 -78.999 -8.5s-38.5 -13.167 -51.5 -22.5s-22.333 -20.166 -28 -32.499s-8.5 -25.166 -8.5 -38.499c0 -28 9.5 -48.5 28.5 -61.5
s43.833 -21.5 74.5 -25.5l163 -22c24 -3.33301 45.833 -8.16602 65.5 -14.499s36.667 -15 51 -26s25.333 -24.667 33 -41s11.5 -35.833 11.5 -58.5c0 -34.667 -8.66699 -62.167 -26 -82.5s-38.666 -35.666 -63.999 -45.999s-52 -17 -80 -20s-53 -4.5 -75 -4.5
c-35.333 0 -67.833 3.16699 -97.5 9.5s-55.5 16.5 -77.5 30.5s-39.5 32.167 -52.5 54.5s-20.5 49.5 -22.5 81.5h46c1.33301 -13.333 4 -27.833 8 -43.5s13.167 -30.334 27.5 -44.001s35.5 -25.167 63.5 -34.5s67 -14 117 -14c67.333 0 115.333 9.66699 144 29
s43 47.333 43 84c0 30 -9.66699 52 -29 66s-44 23 -74 27l-180 24c-16 2 -32.5 5.66699 -49.5 11s-32.5 12.833 -46.5 22.5s-25.5 22.167 -34.5 37.5s-13.5 34.666 -13.5 57.999c0 14.667 3 30.334 9 47.001s17 32.334 33 47.001s38 26.834 66 36.501s63.667 14.5 107 14.5
c47.333 0 86.166 -4.83301 116.499 -14.5s54.166 -22.5 71.499 -38.5s29.666 -33.833 36.999 -53.5s11.666 -39.5 12.999 -59.5h-46zM399.003 734.994h53l-155 -142h-56l-155 142h53l130 -114z" />
    <glyph glyph-name="Ydieresis" unicode="&#x178;" horiz-adv-x="668" 
d="M311 300l-331 414h64l290 -371l296 371h58l-331 -414v-300h-46v300zM205 760v106h46v-106h-46zM417 760v106h46v-106h-46z" />
    <glyph glyph-name="Zcaron" unicode="&#x17d;" horiz-adv-x="611" 
d="M-5 0v49l561 625h-528v40h580v-46l-561 -628h569v-40h-621zM436 897h53l-155 -142h-56l-155 142h53l130 -114z" />
    <glyph glyph-name="zcaron" unicode="&#x17e;" horiz-adv-x="519" 
d="M12 0v46l417 426h-391v40h455v-34l-429 -438h443v-40h-495zM390 735h53l-155 -142h-56l-155 142h53l130 -114z" />
    <glyph glyph-name="florin" unicode="&#x192;" horiz-adv-x="648" 
d="M156 424l137.994 -0.00195312l33 153c5.33301 25.333 12.333 47 21 65s19.5 32.833 32.5 44.5s29 20.167 48 25.5s41.833 8 68.5 8c20.667 0 43.667 -2 69 -6l-8 -40c-14 1.33301 -22.833 2.33301 -26.5 3s-6.33398 1.33398 -8.00098 2.00098s-4.33398 1 -8.00098 1
h-25.5c-20.667 0 -37.834 -2.5 -51.501 -7.5s-25 -12.5 -34 -22.5s-16.167 -22.167 -21.5 -36.5s-10 -30.833 -14 -49.5l-29 -140h141l-6 -34h-142l-83 -398c-5.33301 -26.667 -11.166 -51.167 -17.499 -73.5s-15.666 -41.5 -27.999 -57.5s-29.166 -28.5 -50.499 -37.5
s-49.333 -13.5 -84 -13.5c-11.333 0 -23.166 0.333008 -35.499 1s-24.166 1.66699 -35.499 3l7 40c14 -2 26.667 -3.16699 38 -3.5s20 -0.5 26 -0.5c22.667 0 41.334 2.83301 56.001 8.5s26.334 13 35.001 22s15.334 19.333 20.001 31s8.33398 23.834 11.001 36.501l95 442
h-139z" />
    <glyph glyph-name="circumflex" unicode="&#x2c6;" 
d="M266 593h-53l-130 114l-130 -114h-53l155 142h56z" />
    <glyph glyph-name="caron" unicode="&#x2c7;" 
d="M213 735h53l-155 -142h-56l-155 142h53l130 -114z" />
    <glyph glyph-name="breve" unicode="&#x2d8;" 
d="M-41 720c7.33301 -33.333 22 -55.5 44 -66.5s48.667 -16.5 80 -16.5s58 5.5 80 16.5s36.667 33.167 44 66.5h34c-2.66699 -22 -8.66699 -40.333 -18 -55s-21 -26.667 -35 -36s-30 -16 -48 -20s-37 -6 -57 -6s-39 2 -57 6s-34 10.667 -48 20s-25.667 21.333 -35 36
s-15.333 33 -18 55h34z" />
    <glyph glyph-name="dotaccent" unicode="&#x2d9;" 
d="M60 598v106h46v-106h-46z" />
    <glyph glyph-name="ring" unicode="&#x2da;" 
d="M-27 678c0 15.333 2.83301 29.666 8.5 42.999s13.5 25 23.5 35s21.667 17.833 35 23.5s27.666 8.5 42.999 8.5s29.666 -2.83301 42.999 -8.5s25 -13.5 35 -23.5s17.833 -21.667 23.5 -35s8.5 -27.666 8.5 -42.999s-2.83301 -29.666 -8.5 -42.999s-13.5 -25 -23.5 -35
s-21.667 -17.833 -35 -23.5s-27.666 -8.5 -42.999 -8.5s-29.666 2.83301 -42.999 8.5s-25 13.5 -35 23.5s-17.833 21.667 -23.5 35s-8.5 27.666 -8.5 42.999zM7 678c0 -21.333 7.33301 -39.333 22 -54s32.667 -22 54 -22s39.333 7.33301 54 22s22 32.667 22 54
s-7.33301 39.333 -22 54s-32.667 22 -54 22s-39.333 -7.33301 -54 -22s-22 -32.667 -22 -54z" />
    <glyph glyph-name="ogonek" unicode="&#x2db;" 
d="M223 -173c-11.333 -4.66699 -26.499 -8.66602 -45.499 -11.999s-38.167 -5 -57.5 -5c-32.667 0 -56.667 6.66699 -72 20s-23 30.666 -23 51.999c0 16 4.33301 30.5 13 43.5s19.167 24.5 31.5 34.5s25.333 18.333 39 25s25.5 11.667 35.5 15h31
c-14 -6 -27.667 -13 -41 -21s-25 -16.833 -35 -26.5s-18.167 -20 -24.5 -31s-9.5 -22.167 -9.5 -33.5c0 -18.667 5.66699 -31.667 17 -39s27.333 -11 48 -11c17.333 0 32.166 1.16699 44.499 3.5s24.5 5.83301 36.5 10.5z" />
    <glyph glyph-name="tilde" unicode="&#x2dc;" 
d="M-91 616c2.66699 22 12.333 42.166 29 60.499s38.334 27.5 65.001 27.5c16 0 31.167 -2.66699 45.5 -8s28.166 -11.666 41.499 -18.999s26.333 -13.666 39 -18.999s25.667 -8 39 -8c10 0 18.333 1.83301 25 5.5s12 8.33398 16 14.001s7 11.5 9 17.5s3.66699 11.667 5 17
h34c-3.33301 -24 -12.333 -44.333 -27 -61c-7.33301 -8 -15.833 -14.5 -25.5 -19.5s-20.834 -7.5 -33.501 -7.5c-17.333 0 -33.5 2.66699 -48.5 8s-29.167 11.666 -42.5 18.999s-26.5 13.666 -39.5 18.999s-26.5 8 -40.5 8c-16 0 -29.167 -5.5 -39.5 -16.5
s-16.166 -23.5 -17.499 -37.5h-34z" />
    <glyph glyph-name="hungarumlaut" unicode="&#x2dd;" 
d="M64 735h58l-157 -142h-45zM258 735h58l-157 -142h-45z" />
    <glyph glyph-name="uni03BC" unicode="&#x3bc;" horiz-adv-x="611" 
d="M555 0l-45.998 -0.00292969v102h-2c-8 -15.333 -18.333 -30 -31 -44s-27.834 -26.5 -45.501 -37.5s-38.167 -19.833 -61.5 -26.5s-49.333 -10 -78 -10s-53.5 2.5 -74.5 7.5s-38.833 11.333 -53.5 19s-26.667 16.167 -36 25.5s-17 18.666 -23 27.999h-2v-266h-46v714h46
v-314c0 -26 2.83301 -49.667 8.5 -71s15.667 -39.666 30 -54.999s33.666 -27.166 57.999 -35.499s55.5 -12.5 93.5 -12.5s70.667 5.33301 98 16s49.833 24.834 67.5 42.501s30.667 37.834 39 60.501s12.5 46 12.5 70v299h46v-512z" />
    <glyph glyph-name="endash" unicode="&#x2013;" horiz-adv-x="500" 
d="M0 253v34h500v-34h-500z" />
    <glyph glyph-name="emdash" unicode="&#x2014;" horiz-adv-x="1000" 
d="M0 253v34h1000v-34h-1000z" />
    <glyph glyph-name="quoteleft" unicode="&#x2018;" horiz-adv-x="222" 
d="M85 584c0 30 5.16602 56.5 15.499 79.5s28.5 39.833 54.5 50.5v-34c-15.333 -6.66699 -25.166 -18 -29.499 -34s-6.5 -31.667 -6.5 -47v-15h18v-100h-52v100z" />
    <glyph glyph-name="quoteright" unicode="&#x2019;" horiz-adv-x="222" 
d="M85 714h52.001v-100c0 -30 -5.16699 -56.5 -15.5 -79.5s-28.5 -39.833 -54.5 -50.5v34c15.333 6.66699 25.166 18 29.499 34s6.5 31.667 6.5 47v15h-18v100z" />
    <glyph glyph-name="quotesinglbase" unicode="&#x201a;" horiz-adv-x="222" 
d="M85 100h52.001v-100c0 -30 -5.16699 -56.5 -15.5 -79.5s-28.5 -39.833 -54.5 -50.5v34c15.333 6.66699 25.166 18 29.499 34s6.5 31.667 6.5 47v15h-18v100z" />
    <glyph glyph-name="quotedblleft" unicode="&#x201c;" horiz-adv-x="352" 
d="M74 584c0 30 5.16602 56.5 15.499 79.5s28.5 39.833 54.5 50.5v-34c-15.333 -6.66699 -25.166 -18 -29.499 -34s-6.5 -31.667 -6.5 -47v-15h18v-100h-52v100zM225.999 584c0 30 5.16602 56.5 15.499 79.5s28.5 39.833 54.5 50.5v-34
c-15.333 -6.66699 -25.166 -18 -29.499 -34s-6.5 -31.667 -6.5 -47v-15h18v-100h-52v100z" />
    <glyph glyph-name="quotedblright" unicode="&#x201d;" horiz-adv-x="352" 
d="M74 714h52.001v-100c0 -30 -5.16699 -56.5 -15.5 -79.5s-28.5 -39.833 -54.5 -50.5v34c15.333 6.66699 25.166 18 29.499 34s6.5 31.667 6.5 47v15h-18v100zM226.001 714h52.001v-100c0 -30 -5.16699 -56.5 -15.5 -79.5s-28.5 -39.833 -54.5 -50.5v34
c15.333 6.66699 25.166 18 29.499 34s6.5 31.667 6.5 47v15h-18v100z" />
    <glyph glyph-name="quotedblbase" unicode="&#x201e;" horiz-adv-x="352" 
d="M74 100h52.001v-100c0 -30 -5.16699 -56.5 -15.5 -79.5s-28.5 -39.833 -54.5 -50.5v34c15.333 6.66699 25.166 18 29.499 34s6.5 31.667 6.5 47v15h-18v100zM226.001 100h52.001v-100c0 -30 -5.16699 -56.5 -15.5 -79.5s-28.5 -39.833 -54.5 -50.5v34
c15.333 6.66699 25.166 18 29.499 34s6.5 31.667 6.5 47v15h-18v100z" />
    <glyph glyph-name="dagger" unicode="&#x2020;" horiz-adv-x="648" 
d="M50 430v40h251v244h46v-244h251v-40h-251v-586h-46v586h-251z" />
    <glyph glyph-name="daggerdbl" unicode="&#x2021;" horiz-adv-x="648" 
d="M50 46v40h251v386h-251v40h251v202h46v-202h251v-40h-251v-386h251v-40h-251v-202h-46v202h-251z" />
    <glyph glyph-name="bullet" unicode="&#x2022;" horiz-adv-x="500" 
d="M72 357c0 24.667 4.66699 47.834 14 69.501s22 40.5 38 56.5s34.833 28.667 56.5 38s44.834 14 69.501 14s47.834 -4.66699 69.501 -14s40.5 -22 56.5 -38s28.667 -34.833 38 -56.5s14 -44.834 14 -69.501s-4.66699 -47.834 -14 -69.501s-22 -40.5 -38 -56.5
s-34.833 -28.667 -56.5 -38s-44.834 -14 -69.501 -14s-47.834 4.66699 -69.501 14s-40.5 22 -56.5 38s-28.667 34.833 -38 56.5s-14 44.834 -14 69.501z" />
    <glyph glyph-name="ellipsis" unicode="&#x2026;" horiz-adv-x="1000" 
d="M141 0v100h52v-100h-52zM474 0v100h52v-100h-52zM807 0v100h52v-100h-52z" />
    <glyph glyph-name="perthousand" unicode="&#x2030;" horiz-adv-x="1167" 
d="M988 -16c-29.333 0 -54.998 4.66406 -76.998 13.9971s-40.167 22.5 -54.5 39.5s-25 37.333 -32 61s-10.5 49.834 -10.5 78.501c0 28 3.66699 53.5 11 76.5s18.166 43 32.499 60s32.333 30.167 54 39.5s47.167 14 76.5 14c59.333 0 103.166 -17.333 131.499 -52
s42.5 -80.667 42.5 -138c0 -27.333 -3.5 -52.666 -10.5 -75.999s-17.667 -43.666 -32 -60.999s-32.5 -31 -54.5 -41s-47.667 -15 -77 -15zM988.002 17.9971c24 0 44.5 4.16699 61.5 12.5s30.833 19.666 41.5 33.999s18.5 31.166 23.5 50.499s7.5 40 7.5 62
s-2.5 42.5 -7.5 61.5s-12.833 35.5 -23.5 49.5s-24.5 25 -41.5 33s-37.5 12 -61.5 12s-44.333 -4 -61 -12s-30.5 -19 -41.5 -33s-19 -30.5 -24 -49.5s-7.5 -39.5 -7.5 -61.5s2.5 -42.667 7.5 -62s12.833 -36.166 23.5 -50.499s24.5 -25.666 41.5 -33.999
s37.5 -12.5 61.5 -12.5zM589.002 -16.0029c-29.333 0 -54.998 4.66406 -76.998 13.9971s-40.167 22.5 -54.5 39.5s-25 37.333 -32 61s-10.5 49.834 -10.5 78.501c0 28 3.66699 53.5 11 76.5s18.166 43 32.499 60s32.333 30.167 54 39.5s47.167 14 76.5 14
c59.333 0 103.166 -17.333 131.499 -52s42.5 -80.667 42.5 -138c0 -27.333 -3.5 -52.666 -10.5 -75.999s-17.667 -43.666 -32 -60.999s-32.5 -31 -54.5 -41s-47.667 -15 -77 -15zM589.004 17.9941c24 0 44.5 4.16699 61.5 12.5s30.833 19.666 41.5 33.999
s18.5 31.166 23.5 50.499s7.5 40 7.5 62s-2.5 42.5 -7.5 61.5s-12.833 35.5 -23.5 49.5s-24.5 25 -41.5 33s-37.5 12 -61.5 12s-44.333 -4 -61 -12s-30.5 -19 -41.5 -33s-19 -30.5 -24 -49.5s-7.5 -39.5 -7.5 -61.5s2.5 -42.667 7.5 -62s12.833 -36.166 23.5 -50.499
s24.5 -25.666 41.5 -33.999s37.5 -12.5 61.5 -12.5zM179.004 336.994c-29.333 0 -54.998 4.66406 -76.998 13.9971s-40.167 22.5 -54.5 39.5s-25 37.333 -32 61s-10.5 49.834 -10.5 78.501c0 28 3.66699 53.5 11 76.5s18.166 43 32.499 60s32.333 30.167 54 39.5
s47.167 14 76.5 14c59.333 0 103.166 -17.333 131.499 -52s42.5 -80.667 42.5 -138c0 -27.333 -3.5 -52.666 -10.5 -75.999s-17.667 -43.666 -32 -60.999s-32.5 -31 -54.5 -41s-47.667 -15 -77 -15zM179.006 370.991c24 0 44.5 4.16699 61.5 12.5s30.833 19.666 41.5 33.999
s18.5 31.166 23.5 50.499s7.5 40 7.5 62s-2.5 42.5 -7.5 61.5s-12.833 35.5 -23.5 49.5s-24.5 25 -41.5 33s-37.5 12 -61.5 12s-44.333 -4 -61 -12s-30.5 -19 -41.5 -33s-19 -30.5 -24 -49.5s-7.5 -39.5 -7.5 -61.5s2.5 -42.667 7.5 -62s12.833 -36.166 23.5 -50.499
s24.5 -25.666 41.5 -33.999s37.5 -12.5 61.5 -12.5zM620.006 725.991h40l-529 -748h-40z" />
    <glyph glyph-name="guilsinglleft" unicode="&#x2039;" horiz-adv-x="296" 
d="M73 247v46l136 135v-54l-102 -104l102 -104v-54z" />
    <glyph glyph-name="guilsinglright" unicode="&#x203a;" horiz-adv-x="296" 
d="M189 270l-102 104v54l136 -135v-46l-136 -135v54z" />
    <glyph glyph-name="fraction" unicode="&#x2044;" horiz-adv-x="167" 
d="M-165 -16l457 736h40l-457 -736h-40z" />
    <glyph glyph-name="trademark" unicode="&#x2122;" horiz-adv-x="990" 
d="M187 302v378h-143v34h320v-34h-143v-378h-34zM832 302v378h-2l-167 -378h-18l-167 378h-2v-378h-34v412h58l154 -346l154 346h58v-412h-34z" />
    <glyph glyph-name="minus" unicode="&#x2212;" horiz-adv-x="600" 
d="M47 233v40h506v-40h-506z" />
    <glyph glyph-name="fi" unicode="&#xfb01;" horiz-adv-x="444" 
d="M352 512h46v-512h-46v512zM352 714h46v-106h-46v106zM110 472l-119.999 -0.000976562v40h120v77c0 20 1.83301 38 5.5 54s10.167 29.833 19.5 41.5s22.5 20.5 39.5 26.5s38.833 9 65.5 9c11.333 0 23.666 -0.666992 36.999 -2l42 -4v-40c-11.333 2 -23.5 3.5 -36.5 4.5
s-25.167 1.5 -36.5 1.5c-6 0 -14 -0.333008 -24 -1s-19.833 -3.5 -29.5 -8.5s-18.167 -12.667 -25.5 -23s-11 -25.166 -11 -44.499v-91h148v-40h-148v-472h-46v472z" />
    <glyph glyph-name="fl" unicode="&#xfb02;" horiz-adv-x="444" 
d="M110 472l-119.999 -0.000976562v40h120v77c0 20 1.83301 38 5.5 54s10.167 29.833 19.5 41.5s22.5 20.5 39.5 26.5s38.833 9 65.5 9c11.333 0 23.666 -0.666992 36.999 -2l42 -4v-40c-11.333 2 -23.5 3.5 -36.5 4.5s-25.167 1.5 -36.5 1.5c-6 0 -14 -0.333008 -24 -1
s-19.833 -3.5 -29.5 -8.5s-18.167 -12.667 -25.5 -23s-11 -25.166 -11 -44.499v-91h148v-40h-148v-472h-46v472zM352.001 713.999h46v-714h-46v714z" />
  </font>
</defs>
</svg>
